<svg xmlns="http://www.w3.org/2000/svg" xmlns:xlink="http://www.w3.org/1999/xlink" id="Layer_1" x="0px" y="0px" viewBox="0 0 432 432" style="enable-background:new 0 0 432 432;" xml:space="preserve"><style type="text/css">	.st0{fill:#F8ECE5;}	.st1{fill-rule:evenodd;clip-rule:evenodd;fill:url(#SVGID_2_);}	.st2{fill-rule:evenodd;clip-rule:evenodd;fill:url(#SVGID_3_);}	.st3{fill-rule:evenodd;clip-rule:evenodd;fill:url(#SVGID_5_);}	.st4{fill-rule:evenodd;clip-rule:evenodd;fill:url(#SVGID_6_);}	.st5{fill-rule:evenodd;clip-rule:evenodd;fill:url(#SVGID_7_);}	.st6{fill-rule:evenodd;clip-rule:evenodd;fill:#E6E6E6;}	.st7{fill-rule:evenodd;clip-rule:evenodd;fill:url(#SVGID_8_);}	.st8{fill-rule:evenodd;clip-rule:evenodd;fill:url(#SVGID_10_);}	.st9{fill-rule:evenodd;clip-rule:evenodd;fill:url(#SVGID_11_);}	.st10{fill-rule:evenodd;clip-rule:evenodd;fill:url(#SVGID_12_);}	.st11{fill-rule:evenodd;clip-rule:evenodd;fill:url(#SVGID_13_);}	.st12{fill-rule:evenodd;clip-rule:evenodd;fill:url(#SVGID_15_);}	.st13{fill-rule:evenodd;clip-rule:evenodd;fill:url(#SVGID_16_);}	.st14{fill-rule:evenodd;clip-rule:evenodd;fill:url(#SVGID_17_);}	.st15{fill-rule:evenodd;clip-rule:evenodd;fill:url(#SVGID_18_);}	.st16{fill-rule:evenodd;clip-rule:evenodd;fill:url(#SVGID_19_);}	.st17{fill-rule:evenodd;clip-rule:evenodd;fill:url(#SVGID_20_);filter:url(#Adobe_OpacityMaskFilter);}	.st18{mask:url(#id5_2_);fill-rule:evenodd;clip-rule:evenodd;fill:#2E1A24;}	.st19{fill-rule:evenodd;clip-rule:evenodd;fill:url(#SVGID_21_);}	.st20{fill-rule:evenodd;clip-rule:evenodd;fill:url(#SVGID_22_);}	.st21{fill-rule:evenodd;clip-rule:evenodd;fill:url(#SVGID_23_);}	.st22{fill-rule:evenodd;clip-rule:evenodd;fill:url(#SVGID_24_);}	.st23{fill-rule:evenodd;clip-rule:evenodd;fill:url(#SVGID_25_);}	.st24{fill:#FFFFFF;}	.st25{fill-rule:evenodd;clip-rule:evenodd;fill:url(#SVGID_26_);}	.st26{fill-rule:evenodd;clip-rule:evenodd;fill:url(#SVGID_27_);filter:url(#Adobe_OpacityMaskFilter_1_);}	.st27{mask:url(#id7_2_);fill-rule:evenodd;clip-rule:evenodd;fill:#2E1A24;}	.st28{fill-rule:evenodd;clip-rule:evenodd;fill:url(#SVGID_28_);}	.st29{fill-rule:evenodd;clip-rule:evenodd;fill:url(#SVGID_29_);}	.st30{fill-rule:evenodd;clip-rule:evenodd;fill:url(#SVGID_30_);}	.st31{fill-rule:evenodd;clip-rule:evenodd;fill:url(#SVGID_31_);}	.st32{fill-rule:evenodd;clip-rule:evenodd;fill:#2E1A24;}	.st33{fill-rule:evenodd;clip-rule:evenodd;fill:url(#SVGID_32_);}	.st34{fill-rule:evenodd;clip-rule:evenodd;fill:url(#SVGID_33_);}	.st35{fill:url(#SVGID_34_);}	.st36{fill:url(#SVGID_35_);}	.st37{clip-path:url(#SVGID_37_);}	.st38{clip-path:url(#SVGID_39_);}	.st39{fill-rule:evenodd;clip-rule:evenodd;fill:url(#SVGID_40_);}	.st40{clip-path:url(#SVGID_42_);fill-rule:evenodd;clip-rule:evenodd;fill:url(#SVGID_43_);}	.st41{clip-path:url(#SVGID_45_);}	.st42{fill-rule:evenodd;clip-rule:evenodd;fill:url(#SVGID_46_);}	.st43{clip-path:url(#SVGID_50_);}	.st44{fill-rule:evenodd;clip-rule:evenodd;fill:url(#SVGID_51_);}	.st45{filter:url(#Adobe_OpacityMaskFilter_2_);}	.st46{clip-path:url(#SVGID_53_);}	.st47{clip-path:url(#SVGID_55_);fill:url(#SVGID_56_);}	.st48{clip-path:url(#SVGID_53_);mask:url(#SVGID_14_);fill-rule:evenodd;clip-rule:evenodd;fill:#1A1A1A;}	.st49{clip-path:url(#SVGID_58_);}	.st50{fill-rule:evenodd;clip-rule:evenodd;fill:url(#SVGID_59_);}	.st51{clip-path:url(#SVGID_61_);fill-rule:evenodd;clip-rule:evenodd;fill:#FFFFFF;}	.st52{clip-path:url(#SVGID_63_);}	.st53{fill-rule:evenodd;clip-rule:evenodd;fill:url(#SVGID_64_);}	.st54{clip-path:url(#SVGID_66_);}	.st55{fill-rule:evenodd;clip-rule:evenodd;fill:url(#SVGID_67_);}	.st56{clip-path:url(#SVGID_69_);}	.st57{fill-rule:evenodd;clip-rule:evenodd;fill:url(#SVGID_70_);}	.st58{clip-path:url(#SVGID_72_);}	.st59{fill-rule:evenodd;clip-rule:evenodd;fill:url(#SVGID_73_);}	.st60{clip-path:url(#SVGID_75_);}	.st61{fill-rule:evenodd;clip-rule:evenodd;fill:url(#SVGID_76_);}	.st62{clip-path:url(#SVGID_78_);}	.st63{fill-rule:evenodd;clip-rule:evenodd;fill:url(#SVGID_79_);}	.st64{clip-path:url(#SVGID_81_);fill-rule:evenodd;clip-rule:evenodd;}	.st65{clip-path:url(#SVGID_83_);}	.st66{clip-path:url(#SVGID_85_);fill:url(#SVGID_86_);}	.st67{clip-path:url(#SVGID_88_);}	.st68{clip-path:url(#SVGID_90_);fill:url(#SVGID_91_);}	.st69{clip-path:url(#SVGID_93_);fill-rule:evenodd;clip-rule:evenodd;}	.st70{clip-path:url(#SVGID_95_);fill:none;stroke:#000000;stroke-width:0.4799;stroke-miterlimit:2.6131;}	.st71{clip-path:url(#SVGID_97_);}	.st72{clip-path:url(#SVGID_99_);fill:url(#SVGID_100_);}	.st73{clip-path:url(#SVGID_102_);fill:none;stroke:#000000;stroke-width:0.4799;stroke-miterlimit:2.6131;}	.st74{clip-path:url(#SVGID_104_);}	.st75{fill-rule:evenodd;clip-rule:evenodd;fill:url(#SVGID_105_);}	.st76{clip-path:url(#SVGID_107_);}	.st77{fill-rule:evenodd;clip-rule:evenodd;fill:url(#SVGID_108_);}	.st78{clip-path:url(#SVGID_110_);}	.st79{fill-rule:evenodd;clip-rule:evenodd;fill:url(#SVGID_111_);}	.st80{clip-path:url(#SVGID_113_);fill:#FEFEFE;}	.st81{clip-path:url(#SVGID_115_);}	.st82{fill:url(#SVGID_116_);}	.st83{clip-path:url(#SVGID_118_);}	.st84{fill:url(#SVGID_119_);}	.st85{clip-path:url(#SVGID_121_);fill:#FEFEFE;}	.st86{fill-rule:evenodd;clip-rule:evenodd;fill:url(#SVGID_122_);}	.st87{fill-rule:evenodd;clip-rule:evenodd;fill:url(#SVGID_123_);}	.st88{fill-rule:evenodd;clip-rule:evenodd;fill:#333333;}	.st89{fill-rule:evenodd;clip-rule:evenodd;fill:url(#SVGID_124_);}	.st90{fill-rule:evenodd;clip-rule:evenodd;fill:url(#SVGID_125_);}	.st91{fill-rule:evenodd;clip-rule:evenodd;fill:url(#SVGID_126_);}	.st92{fill-rule:evenodd;clip-rule:evenodd;fill:url(#SVGID_127_);}	.st93{filter:url(#Adobe_OpacityMaskFilter_3_);}	.st94{fill:url(#SVGID_128_);}	.st95{mask:url(#SVGID_9_);fill-rule:evenodd;clip-rule:evenodd;}	.st96{fill-rule:evenodd;clip-rule:evenodd;fill:url(#SVGID_129_);}	.st97{fill-rule:evenodd;clip-rule:evenodd;fill:url(#SVGID_130_);}	.st98{fill-rule:evenodd;clip-rule:evenodd;}	.st99{fill:url(#SVGID_131_);}	.st100{fill:#FEFEFE;}	.st101{filter:url(#Adobe_OpacityMaskFilter_4_);}	.st102{fill:url(#SVGID_132_);}	.st103{mask:url(#SVGID_4_);fill:#FF3255;}	.st104{fill:url(#SVGID_133_);}	.st105{fill-rule:evenodd;clip-rule:evenodd;fill:url(#SVGID_134_);}	.st106{fill-rule:evenodd;clip-rule:evenodd;fill:url(#SVGID_135_);}	.st107{fill-rule:evenodd;clip-rule:evenodd;fill:url(#SVGID_136_);}	.st108{fill-rule:evenodd;clip-rule:evenodd;fill:url(#SVGID_137_);}	.st109{fill-rule:evenodd;clip-rule:evenodd;fill:url(#SVGID_138_);}	.st110{fill-rule:evenodd;clip-rule:evenodd;fill:url(#SVGID_139_);}	.st111{fill:url(#SVGID_140_);}	.st112{fill-rule:evenodd;clip-rule:evenodd;fill:url(#SVGID_141_);}	.st113{fill-rule:evenodd;clip-rule:evenodd;fill:url(#SVGID_142_);}	.st114{fill-rule:evenodd;clip-rule:evenodd;fill:url(#SVGID_143_);filter:url(#Adobe_OpacityMaskFilter_5_);}	.st115{mask:url(#id0_2_);fill-rule:evenodd;clip-rule:evenodd;fill:#2E1A24;}	.st116{fill-rule:evenodd;clip-rule:evenodd;fill:url(#SVGID_144_);}	.st117{fill-rule:evenodd;clip-rule:evenodd;fill:url(#SVGID_145_);}	.st118{fill-rule:evenodd;clip-rule:evenodd;fill:url(#SVGID_146_);filter:url(#Adobe_OpacityMaskFilter_6_);}	.st119{mask:url(#id2_2_);fill-rule:evenodd;clip-rule:evenodd;fill:url(#SVGID_147_);}	.st120{fill-rule:evenodd;clip-rule:evenodd;fill:url(#SVGID_148_);filter:url(#Adobe_OpacityMaskFilter_7_);}	.st121{mask:url(#id4_2_);fill-rule:evenodd;clip-rule:evenodd;fill:url(#SVGID_149_);}	.st122{fill-rule:evenodd;clip-rule:evenodd;fill:url(#SVGID_150_);filter:url(#Adobe_OpacityMaskFilter_8_);}	.st123{mask:url(#id6_2_);fill-rule:evenodd;clip-rule:evenodd;fill:url(#SVGID_151_);}	.st124{fill-rule:evenodd;clip-rule:evenodd;fill:url(#SVGID_152_);filter:url(#Adobe_OpacityMaskFilter_9_);}	.st125{mask:url(#id8_2_);fill:#2E1A24;}	.st126{fill-rule:evenodd;clip-rule:evenodd;fill:url(#SVGID_153_);filter:url(#Adobe_OpacityMaskFilter_10_);}	.st127{mask:url(#id10_2_);fill-rule:evenodd;clip-rule:evenodd;fill:#2E1A24;}	.st128{fill:url(#SVGID_154_);}	.st129{fill-rule:evenodd;clip-rule:evenodd;fill:url(#SVGID_155_);filter:url(#Adobe_OpacityMaskFilter_11_);}	.st130{mask:url(#id12_2_);fill:#FF3255;}	.st131{fill:url(#SVGID_156_);}	.st132{fill-rule:evenodd;clip-rule:evenodd;fill:url(#SVGID_157_);}	.st133{fill-rule:evenodd;clip-rule:evenodd;fill:url(#SVGID_158_);}	.st134{fill-rule:evenodd;clip-rule:evenodd;fill:url(#SVGID_159_);}	.st135{fill-rule:evenodd;clip-rule:evenodd;fill:#666666;}	.st136{fill:none;}	.st137{fill-rule:evenodd;clip-rule:evenodd;fill:url(#SVGID_160_);}	.st138{fill-rule:evenodd;clip-rule:evenodd;fill:#4D4D4D;}	.st139{fill-rule:evenodd;clip-rule:evenodd;fill:url(#SVGID_161_);}	.st140{fill-rule:evenodd;clip-rule:evenodd;fill:url(#SVGID_162_);}	.st141{fill:url(#SVGID_163_);}	.st142{fill-rule:evenodd;clip-rule:evenodd;fill:url(#SVGID_164_);filter:url(#Adobe_OpacityMaskFilter_12_);}	.st143{mask:url(#id0_1_);fill:#FF3255;}	.st144{fill:url(#SVGID_165_);}</style><g>	<circle class="st0" cx="216" cy="216" r="216"></circle>	<g>		<g>							<linearGradient id="SVGID_2_" gradientUnits="userSpaceOnUse" x1="168.5644" y1="129.3343" x2="265.0154" y2="106.2877" gradientTransform="matrix(1 0 0 -1 0 434)">				<stop offset="0" style="stop-color:#FF6600"></stop>				<stop offset="1" style="stop-color:#FF00A6"></stop>			</linearGradient>			<path id="SVGID_1_" class="st1" d="M158.7,326.3c20,9.6,63.6,7.2,83.6,1.2c0.9,3.2,0.9,6.5,0.6,13.1l34.8-34.9l-49.2-1.1    c4.3,3.8,5.9,5,8.3,9.5C217.1,321.9,188,325.5,158.7,326.3"></path>		</g>	</g>	<g>		<g>							<linearGradient id="SVGID_3_" gradientUnits="userSpaceOnUse" x1="314.7558" y1="296.0745" x2="224.0768" y2="332.1454" gradientTransform="matrix(1 0 0 -1 0 434)">				<stop offset="0" style="stop-color:#FF6600"></stop>				<stop offset="1" style="stop-color:#FF00A6"></stop>			</linearGradient>			<path id="SVGID_00000044896420689756842830000003506128544047791782_" class="st2" d="M326.9,117.6    c-18.5-12.3-61.9-16.3-82.6-13.2c-0.4-3.3,0.1-6.6,1.3-13l-39.4,29.5l48.6,8.2c-3.7-4.4-5.1-5.8-6.8-10.6    C268.5,113.6,297.8,114.2,326.9,117.6"></path>		</g>	</g>	<path class="st88" d="M62.2,140.8l61.4-34.7c9.5-5.4,17.3,0.5,17.3,13.1v115c0,8.2-5.1,17.9-11.4,21.4l-67.3,38.1  c-6.2,3.5-11.4-0.3-11.4-8.6V162.2C50.8,153.9,55.9,144.3,62.2,140.8"></path>	<g>		<g>							<linearGradient id="SVGID_5_" gradientUnits="userSpaceOnUse" x1="67.5599" y1="166.9019" x2="148.4126" y2="311.6256" gradientTransform="matrix(1 0 0 -1 0 434)">				<stop offset="0" style="stop-color:#FF374C"></stop>				<stop offset="0.4869" style="stop-color:#661446"></stop>				<stop offset="0.5726" style="stop-color:#9F2A57"></stop>				<stop offset="0.6436" style="stop-color:#8A1C4F"></stop>				<stop offset="0.7343" style="stop-color:#AD1C52"></stop>				<stop offset="1" style="stop-color:#F9197A"></stop>			</linearGradient>			<path id="SVGID_00000103956230617924240710000002591149803362390431_" class="st3" d="M195,138.7l4.4,2.5l-83.3,57.3v123.1    l-65.3-36.3V162.2l0,0c0-8.2,5.1-17.9,11.4-21.4l61.4-34.7c3.9-2.2,7.8-2.4,10.7-1.1l61.2,34C195.3,138.8,195.1,138.7,195,138.7"></path>		</g>	</g>	<g>		<g>							<linearGradient id="SVGID_6_" gradientUnits="userSpaceOnUse" x1="135.4512" y1="124.6095" x2="178.8102" y2="251.0844" gradientTransform="matrix(1 0 0 -1 0 434)">				<stop offset="0" style="stop-color:#1A1A1A"></stop>				<stop offset="0.5" style="stop-color:#3D0822"></stop>				<stop offset="0.72" style="stop-color:#8A1C4F"></stop>				<stop offset="1" style="stop-color:#3D0B3B"></stop>			</linearGradient>			<path id="SVGID_00000031198278901659323050000005246668111081375624_" class="st4" d="M127.5,177.1l61.4-34.7    c9.5-5.4,17.3,0.5,17.3,13.1v115c0,8.2-5.1,17.9-11.4,21.4l-67.3,38.1c-6.2,3.5-11.4-0.3-11.4-8.6V198.5    C116.1,190.2,121.2,180.6,127.5,177.1"></path>		</g>	</g>	<g>		<g>							<linearGradient id="SVGID_7_" gradientUnits="userSpaceOnUse" x1="160.2694" y1="96.7372" x2="163.1229" y2="429.846" gradientTransform="matrix(1 0 0 -1 0 434)">				<stop offset="0" style="stop-color:#1A1A1A"></stop>				<stop offset="0.3" style="stop-color:#3D0822"></stop>				<stop offset="0.67" style="stop-color:#8A1C4F"></stop>				<stop offset="1" style="stop-color:#3D0B3B"></stop>			</linearGradient>			<path id="SVGID_00000000209671461204038080000005091445137446147002_" class="st5" d="M128.4,178.7c-6.4,3.6-10.8,13.2-10.8,20.4    v120.8c0,2.7,0.6,6.2,3,7.9c2.2,1.6,4.8,1,7-0.2l66.2-37.4c6.4-3.6,10.8-13.2,10.8-20.4V156.7c0-4.3-1-9.6-4.7-12.4    c-3.4-2.6-7.7-1.7-11.1,0.3L128.4,178.7z"></path>		</g>	</g>	<g>		<g>							<linearGradient id="SVGID_8_" gradientUnits="userSpaceOnUse" x1="149.7336" y1="107.2121" x2="161.2389" y2="287.7893" gradientTransform="matrix(1 0 0 -1 0 434)">				<stop offset="0" style="stop-color:#FF6600"></stop>				<stop offset="1" style="stop-color:#FF00A6"></stop>			</linearGradient>			<path id="SVGID_00000028297536667856709550000017267447612640984759_" class="st7" d="M128.4,178.7c-6.4,3.6-10.8,13.2-10.8,20.4    v120.8c0,2.7,0.6,6.2,3,7.9c2.2,1.6,4.8,1,7-0.2l56.8-32.2v-45.7c0-5.4,3-10.1,6.2-16s6.3-10.6,6.2-16l-0.2-66.7    c0-2.4-1.2-4.4-3.2-5.6c-2.1-1.2-4.4-1.2-6.5,0L128.4,178.7z"></path>		</g>	</g>	<defs>		<filter id="Adobe_OpacityMaskFilter" filterUnits="userSpaceOnUse" x="180.8" y="145.7" width="16" height="151.8">					</filter>	</defs>	<mask maskUnits="userSpaceOnUse" x="180.8" y="145.7" width="16" height="151.8" id="SVGID_9_">		<g style="filter:url(#Adobe_OpacityMaskFilter);">							<linearGradient id="SVGID_10_" gradientUnits="userSpaceOnUse" x1="4.8547" y1="-9.0628" x2="9.9147" y2="130.0972" gradientTransform="matrix(1 0 0 -1 180.8532 299.4856)">				<stop offset="0" style="stop-color:#FFFFFF"></stop>				<stop offset="1" style="stop-color:#000000"></stop>			</linearGradient>			<rect x="180.9" y="145.7" style="fill:url(#SVGID_10_);" width="16" height="151.8"></rect>		</g>	</mask>	<path class="st95" d="M180.9,297.5l3.5-2v-45.7c0-5.4,3-10.1,6.2-16s6.3-10.6,6.2-16l-0.2-66.7c0-2.1-0.9-3.9-2.6-5.2  c-0.3-0.1-0.6-0.2-1-0.3l0.1,74.1c0,5.4-3,10.1-6.2,16c-3.2,5.9-6.2,10.6-6.2,16L180.9,297.5L180.9,297.5z"></path>	<g>		<g>							<linearGradient id="SVGID_11_" gradientUnits="userSpaceOnUse" x1="123.7934" y1="257.4582" x2="127.2591" y2="69.4613" gradientTransform="matrix(1 0 0 -1 0 434)">				<stop offset="0" style="stop-color:#FF5397"></stop>				<stop offset="0.509" style="stop-color:#3D0822"></stop>				<stop offset="0.8828" style="stop-color:#8A1C4F"></stop>			</linearGradient>			<path id="SVGID_00000162337097461287947230000001497513835009356471_" class="st9" d="M128.4,178.7c-6.4,3.6-10.8,13.2-10.8,20.4    v120.8c0,2.7,0.6,6.2,3,7.9c2.2,1.6,4.8,1,7-0.2l4.9-2.8V176.4L128.4,178.7z"></path>		</g>	</g>	<g>		<g>							<linearGradient id="SVGID_12_" gradientUnits="userSpaceOnUse" x1="194.906" y1="181.6605" x2="195.8703" y2="189.021" gradientTransform="matrix(1 0 0 -1 0 434)">				<stop offset="0" style="stop-color:#FF6600"></stop>				<stop offset="1" style="stop-color:#FF00A6"></stop>			</linearGradient>			<path id="SVGID_00000116214498162457055010000001431487857055194552_" class="st10" d="M193.9,257c1.9-0.7,3.4,0.3,3.4,2.4    s-1.5,4.3-3.4,5c-1.9,0.7-3.4-0.3-3.4-2.4C190.4,260,192,257.8,193.9,257 M193.9,268.8c1.9-0.7,3.4,0.3,3.4,2.4s-1.5,4.3-3.4,5    c-1.9,0.7-3.4-0.3-3.4-2.4C190.4,271.7,192,269.5,193.9,268.8z M193.9,244.2c1.9-0.7,3.4,0.3,3.4,2.4s-1.5,4.3-3.4,5    c-1.9,0.7-3.4-0.3-3.4-2.4C190.4,247.2,192,244.9,193.9,244.2z"></path>		</g>	</g>	<path class="st98" d="M94.3,237.2l-4.5-2.6v4.5l4.5,2.6V237.2z M86.7,232.9l-4.5-2.6v4.5l4.5,2.6V232.9z M79.2,228.5l-4.5-2.6v4.5  l4.5,2.6V228.5z M71.6,224.2l-4.5-2.6v4.5l4.5,2.6V224.2z M101.8,248.1l-4.5-2.6v4.5l4.5,2.6V248.1z M94.3,243.8l-4.5-2.6v4.5  l4.5,2.6V243.8z M86.7,239.5l-4.5-2.6v4.5l4.5,2.6V239.5z M79.2,235.1l-4.5-2.6v4.5l4.5,2.6V235.1z M71.6,230.8l-4.5-2.6v4.5  l4.5,2.6V230.8z M101.8,254.7l-4.5-2.6v4.5l4.5,2.6V254.7z M94.3,250.4l-4.5-2.6v4.5l4.5,2.6V250.4z M86.7,246.1l-4.5-2.6v4.5  l4.5,2.6V246.1z M79.2,241.8l-4.5-2.6v4.5l4.5,2.6V241.8z M71.6,237.4l-4.5-2.6v4.5l4.5,2.6V237.4z M101.8,261.4l-4.5-2.6v4.5  l4.5,2.6V261.4z M94.3,257l-4.5-2.6v4.5l4.5,2.6V257z M86.7,252.7l-4.5-2.6v4.5l4.5,2.6V252.7z M79.2,248.4l-4.5-2.6v4.5l4.5,2.6  V248.4z M71.6,244.1l-4.5-2.6v4.5l4.5,2.6V244.1z M101.8,268l-4.5-2.6v4.5l4.5,2.6V268z M94.3,263.6l-4.5-2.6v4.5l4.5,2.6V263.6z   M86.7,259.3l-4.5-2.6v4.5l4.5,2.6V259.3z M79.2,255l-4.5-2.6v4.5l4.5,2.6V255z M71.6,250.7l-4.5-2.6v4.5l4.5,2.6V250.7z   M101.8,274.6l-4.5-2.6v4.5l4.5,2.6V274.6z M94.3,270.2l-4.5-2.6v4.5l4.5,2.6V270.2z M86.7,265.9l-4.5-2.6v4.5l4.5,2.6V265.9z   M79.2,261.6l-4.5-2.6v4.5l4.5,2.6V261.6z M71.6,257.3l-4.5-2.6v4.5l4.5,2.6V257.3z M101.8,281.2l-4.5-2.6v4.5l4.5,2.6V281.2z   M94.3,276.9l-4.5-2.6v4.5l4.5,2.6V276.9z M86.7,272.5l-4.5-2.6v4.5l4.5,2.6V272.5z M79.2,268.2l-4.5-2.6v4.5l4.5,2.6V268.2z   M71.6,263.9l-4.5-2.6v4.5l4.5,2.6V263.9z M101.8,287.8l-4.5-2.6v4.5l4.5,2.6V287.8z M94.3,283.5l-4.5-2.6v4.5l4.5,2.6V283.5z   M86.7,279.2l-4.5-2.6v4.5l4.5,2.6V279.2z M79.2,274.8l-4.5-2.6v4.5l4.5,2.6V274.8z M71.6,270.5l-4.5-2.6v4.5l4.5,2.6V270.5z   M101.8,241.5l-4.5-2.6v4.5l4.5,2.6V241.5z"></path>	<g>		<g>			<g>									<linearGradient id="SVGID_13_" gradientUnits="userSpaceOnUse" x1="235.34" y1="218.01" x2="356.58" y2="218.01" gradientTransform="matrix(1 0 0 -1 0 434)">					<stop offset="0" style="stop-color:#FF6600"></stop>					<stop offset="1" style="stop-color:#FF00A6"></stop>				</linearGradient>				<path id="SVGID_00000036953973377948051810000001590987684714322569_" style="fill:url(#SVGID_13_);" d="M258.7,276.6h74.5     c12.9,0,23.4-10.5,23.4-23.4v-74.5c0-12.9-10.5-23.4-23.4-23.4h-74.5c-12.9,0-23.4,10.5-23.4,23.4v74.5     C235.4,266.1,245.9,276.6,258.7,276.6"></path>			</g>		</g>		<path class="st100" d="M321.5,218.4c1.3,0,2.4,1.1,2.4,2.4c0,1.3-1,2.4-2.4,2.4c-1.3,0-2.4-1.1-2.4-2.4   C319.2,219.5,320.2,218.4,321.5,218.4 M321,253.2c1,0,3.8,0,4.3,0c4.2-0.1,7.9-3.4,7.9-7.6v-59.2c0-4.2-4.4-7.6-8.5-7.6h-3   l-28.5,0c-1.9,0-3.4,1.5-3.4,3.4v3.6v32.7c0,2.1,0.6,3.9,1.7,5.3c1.2,1.7,3.1,3,5.1,3.8l21.2,6.3c1.8,0.7,3.3,1.8,4.4,3.1   c1,1.3,1.6,2.8,1.6,4.6v6.9C323.9,250,324,252.4,321,253.2z"></path>		<defs>			<filter id="Adobe_OpacityMaskFilter_1_" filterUnits="userSpaceOnUse" x="289.8" y="178.8" width="43.4" height="74.5">							</filter>		</defs>		<mask maskUnits="userSpaceOnUse" x="289.8" y="178.8" width="43.4" height="74.5" id="SVGID_4_">			<g style="filter:url(#Adobe_OpacityMaskFilter_1_);">									<linearGradient id="SVGID_15_" gradientUnits="userSpaceOnUse" x1="-319.1513" y1="-2895.0825" x2="-335.4313" y2="-2895.0825" gradientTransform="matrix(1 0 0 -1 659.5948 -2679.0825)">					<stop offset="0" style="stop-color:#FFFFFF"></stop>					<stop offset="1" style="stop-color:#000000"></stop>				</linearGradient>				<rect x="289.8" y="178.8" style="fill:url(#SVGID_15_);" width="43.4" height="74.5"></rect>			</g>		</mask>		<path class="st103" d="M321.5,218.4c1.3,0,2.4,1.1,2.4,2.4c0,1.3-1,2.4-2.4,2.4c-1.3,0-2.4-1.1-2.4-2.4   C319.2,219.5,320.2,218.4,321.5,218.4 M321,253.2c1,0,3.8,0,4.3,0c4.2-0.1,7.9-3.4,7.9-7.6v-59.2c0-4.2-4.4-7.6-8.5-7.6h-3   l-28.5,0c-1.9,0-3.4,1.5-3.4,3.4v3.6v32.7c0,2.1,0.6,3.9,1.7,5.3c1.2,1.7,3.1,3,5.1,3.8l21.2,6.3c1.8,0.7,3.3,1.8,4.4,3.1   c1,1.3,1.6,2.8,1.6,4.6v6.9C323.9,250,324,252.4,321,253.2z"></path>		<g>			<g>									<linearGradient id="SVGID_16_" gradientUnits="userSpaceOnUse" x1="273.094" y1="213.335" x2="353.5059" y2="213.335" gradientTransform="matrix(1 0 0 -1 0 434)">					<stop offset="0" style="stop-color:#FFFFFF"></stop>					<stop offset="1" style="stop-color:#FF1C79"></stop>				</linearGradient>				<path id="SVGID_00000015312848809608002230000006577195303734971276_" style="fill:url(#SVGID_16_);" d="M266.4,253.2     c12.4,0,41,0,54.6,0c3-0.8,2.9-3.2,2.9-4.7v-6.9c0-1.8-0.6-3.3-1.6-4.6c-1.1-1.4-2.6-2.4-4.4-3.1l-21.2-6.3     c-2-0.8-3.9-2.1-5.1-3.8c-1.1-1.4-1.7-3.2-1.7-5.3v-30.4l-23.5,0c-4.2,0-7.6,3.4-7.6,7.6v49.9     C258.7,249.8,262.2,253.2,266.4,253.2"></path>			</g>		</g>	</g></g></svg>