<svg xmlns="http://www.w3.org/2000/svg" xmlns:xlink="http://www.w3.org/1999/xlink" id="Layer_1" x="0px" y="0px" viewBox="0 0 432 432" style="enable-background:new 0 0 432 432;" xml:space="preserve"><style type="text/css">	.st0{fill:#F8ECE5;}	.st1{fill-rule:evenodd;clip-rule:evenodd;fill:url(#SVGID_2_);}	.st2{fill-rule:evenodd;clip-rule:evenodd;fill:url(#SVGID_3_);}	.st3{fill-rule:evenodd;clip-rule:evenodd;fill:url(#SVGID_5_);}	.st4{fill-rule:evenodd;clip-rule:evenodd;fill:url(#SVGID_6_);}	.st5{fill-rule:evenodd;clip-rule:evenodd;fill:url(#SVGID_7_);}	.st6{fill-rule:evenodd;clip-rule:evenodd;fill:#E6E6E6;}	.st7{fill-rule:evenodd;clip-rule:evenodd;fill:url(#SVGID_8_);}	.st8{fill-rule:evenodd;clip-rule:evenodd;fill:url(#SVGID_10_);}	.st9{fill-rule:evenodd;clip-rule:evenodd;fill:url(#SVGID_11_);}	.st10{fill-rule:evenodd;clip-rule:evenodd;fill:url(#SVGID_12_);}	.st11{fill-rule:evenodd;clip-rule:evenodd;fill:url(#SVGID_13_);}	.st12{fill-rule:evenodd;clip-rule:evenodd;fill:url(#SVGID_15_);}	.st13{fill-rule:evenodd;clip-rule:evenodd;fill:url(#SVGID_16_);}	.st14{fill-rule:evenodd;clip-rule:evenodd;fill:url(#SVGID_17_);}	.st15{fill-rule:evenodd;clip-rule:evenodd;fill:url(#SVGID_18_);}	.st16{fill-rule:evenodd;clip-rule:evenodd;fill:url(#SVGID_19_);}	.st17{fill-rule:evenodd;clip-rule:evenodd;fill:url(#SVGID_20_);filter:url(#Adobe_OpacityMaskFilter);}	.st18{mask:url(#id5_2_);fill-rule:evenodd;clip-rule:evenodd;fill:#2E1A24;}	.st19{fill-rule:evenodd;clip-rule:evenodd;fill:url(#SVGID_21_);}	.st20{fill-rule:evenodd;clip-rule:evenodd;fill:url(#SVGID_22_);}	.st21{fill-rule:evenodd;clip-rule:evenodd;fill:url(#SVGID_23_);}	.st22{fill-rule:evenodd;clip-rule:evenodd;fill:url(#SVGID_24_);}	.st23{fill-rule:evenodd;clip-rule:evenodd;fill:url(#SVGID_25_);}	.st24{fill:#FFFFFF;}	.st25{fill-rule:evenodd;clip-rule:evenodd;fill:url(#SVGID_26_);}	.st26{fill-rule:evenodd;clip-rule:evenodd;fill:url(#SVGID_27_);filter:url(#Adobe_OpacityMaskFilter_1_);}	.st27{mask:url(#id7_2_);fill-rule:evenodd;clip-rule:evenodd;fill:#2E1A24;}	.st28{fill-rule:evenodd;clip-rule:evenodd;fill:url(#SVGID_28_);}	.st29{fill-rule:evenodd;clip-rule:evenodd;fill:url(#SVGID_29_);}	.st30{fill-rule:evenodd;clip-rule:evenodd;fill:url(#SVGID_30_);}	.st31{fill-rule:evenodd;clip-rule:evenodd;fill:url(#SVGID_31_);}	.st32{fill-rule:evenodd;clip-rule:evenodd;fill:#2E1A24;}	.st33{fill-rule:evenodd;clip-rule:evenodd;fill:url(#SVGID_32_);}	.st34{fill-rule:evenodd;clip-rule:evenodd;fill:url(#SVGID_33_);}	.st35{fill:url(#SVGID_34_);}	.st36{fill:url(#SVGID_35_);}	.st37{clip-path:url(#SVGID_37_);}	.st38{clip-path:url(#SVGID_39_);}	.st39{fill-rule:evenodd;clip-rule:evenodd;fill:url(#SVGID_40_);}	.st40{clip-path:url(#SVGID_42_);fill-rule:evenodd;clip-rule:evenodd;fill:url(#SVGID_43_);}	.st41{clip-path:url(#SVGID_45_);}	.st42{fill-rule:evenodd;clip-rule:evenodd;fill:url(#SVGID_46_);}	.st43{clip-path:url(#SVGID_50_);}	.st44{fill-rule:evenodd;clip-rule:evenodd;fill:url(#SVGID_51_);}	.st45{filter:url(#Adobe_OpacityMaskFilter_2_);}	.st46{clip-path:url(#SVGID_53_);}	.st47{clip-path:url(#SVGID_55_);fill:url(#SVGID_56_);}	.st48{clip-path:url(#SVGID_53_);mask:url(#SVGID_14_);fill-rule:evenodd;clip-rule:evenodd;fill:#1A1A1A;}	.st49{clip-path:url(#SVGID_58_);}	.st50{fill-rule:evenodd;clip-rule:evenodd;fill:url(#SVGID_59_);}	.st51{clip-path:url(#SVGID_61_);fill-rule:evenodd;clip-rule:evenodd;fill:#FFFFFF;}	.st52{clip-path:url(#SVGID_63_);}	.st53{fill-rule:evenodd;clip-rule:evenodd;fill:url(#SVGID_64_);}	.st54{clip-path:url(#SVGID_66_);}	.st55{fill-rule:evenodd;clip-rule:evenodd;fill:url(#SVGID_67_);}	.st56{clip-path:url(#SVGID_69_);}	.st57{fill-rule:evenodd;clip-rule:evenodd;fill:url(#SVGID_70_);}	.st58{clip-path:url(#SVGID_72_);}	.st59{fill-rule:evenodd;clip-rule:evenodd;fill:url(#SVGID_73_);}	.st60{clip-path:url(#SVGID_75_);}	.st61{fill-rule:evenodd;clip-rule:evenodd;fill:url(#SVGID_76_);}	.st62{clip-path:url(#SVGID_78_);}	.st63{fill-rule:evenodd;clip-rule:evenodd;fill:url(#SVGID_79_);}	.st64{clip-path:url(#SVGID_81_);fill-rule:evenodd;clip-rule:evenodd;}	.st65{clip-path:url(#SVGID_83_);}	.st66{clip-path:url(#SVGID_85_);fill:url(#SVGID_86_);}	.st67{clip-path:url(#SVGID_88_);}	.st68{clip-path:url(#SVGID_90_);fill:url(#SVGID_91_);}	.st69{clip-path:url(#SVGID_93_);fill-rule:evenodd;clip-rule:evenodd;}	.st70{clip-path:url(#SVGID_95_);fill:none;stroke:#000000;stroke-width:0.4799;stroke-miterlimit:2.6131;}	.st71{clip-path:url(#SVGID_97_);}	.st72{clip-path:url(#SVGID_99_);fill:url(#SVGID_100_);}	.st73{clip-path:url(#SVGID_102_);fill:none;stroke:#000000;stroke-width:0.4799;stroke-miterlimit:2.6131;}	.st74{clip-path:url(#SVGID_104_);}	.st75{fill-rule:evenodd;clip-rule:evenodd;fill:url(#SVGID_105_);}	.st76{clip-path:url(#SVGID_107_);}	.st77{fill-rule:evenodd;clip-rule:evenodd;fill:url(#SVGID_108_);}	.st78{clip-path:url(#SVGID_110_);}	.st79{fill-rule:evenodd;clip-rule:evenodd;fill:url(#SVGID_111_);}	.st80{clip-path:url(#SVGID_113_);fill:#FEFEFE;}	.st81{clip-path:url(#SVGID_115_);}	.st82{fill:url(#SVGID_116_);}	.st83{clip-path:url(#SVGID_118_);}	.st84{fill:url(#SVGID_119_);}	.st85{clip-path:url(#SVGID_121_);fill:#FEFEFE;}	.st86{fill-rule:evenodd;clip-rule:evenodd;fill:url(#SVGID_122_);}	.st87{fill-rule:evenodd;clip-rule:evenodd;fill:url(#SVGID_123_);}	.st88{fill-rule:evenodd;clip-rule:evenodd;fill:#333333;}	.st89{fill-rule:evenodd;clip-rule:evenodd;fill:url(#SVGID_124_);}	.st90{fill-rule:evenodd;clip-rule:evenodd;fill:url(#SVGID_125_);}	.st91{fill-rule:evenodd;clip-rule:evenodd;fill:url(#SVGID_126_);}	.st92{fill-rule:evenodd;clip-rule:evenodd;fill:url(#SVGID_127_);}	.st93{filter:url(#Adobe_OpacityMaskFilter_3_);}	.st94{fill:url(#SVGID_128_);}	.st95{mask:url(#SVGID_9_);fill-rule:evenodd;clip-rule:evenodd;}	.st96{fill-rule:evenodd;clip-rule:evenodd;fill:url(#SVGID_129_);}	.st97{fill-rule:evenodd;clip-rule:evenodd;fill:url(#SVGID_130_);}	.st98{fill-rule:evenodd;clip-rule:evenodd;}	.st99{fill:url(#SVGID_131_);}	.st100{fill:#FEFEFE;}	.st101{filter:url(#Adobe_OpacityMaskFilter_4_);}	.st102{fill:url(#SVGID_132_);}	.st103{mask:url(#SVGID_4_);fill:#FF3255;}	.st104{fill:url(#SVGID_133_);}	.st105{fill-rule:evenodd;clip-rule:evenodd;fill:url(#SVGID_134_);}	.st106{fill-rule:evenodd;clip-rule:evenodd;fill:url(#SVGID_135_);}	.st107{fill-rule:evenodd;clip-rule:evenodd;fill:url(#SVGID_136_);}	.st108{fill-rule:evenodd;clip-rule:evenodd;fill:url(#SVGID_137_);}	.st109{fill-rule:evenodd;clip-rule:evenodd;fill:url(#SVGID_138_);}	.st110{fill-rule:evenodd;clip-rule:evenodd;fill:url(#SVGID_139_);}	.st111{fill:url(#SVGID_140_);}	.st112{fill-rule:evenodd;clip-rule:evenodd;fill:url(#SVGID_141_);}	.st113{fill-rule:evenodd;clip-rule:evenodd;fill:url(#SVGID_142_);}	.st114{fill-rule:evenodd;clip-rule:evenodd;fill:url(#SVGID_143_);filter:url(#Adobe_OpacityMaskFilter_5_);}	.st115{mask:url(#id0_2_);fill-rule:evenodd;clip-rule:evenodd;fill:#2E1A24;}	.st116{fill-rule:evenodd;clip-rule:evenodd;fill:url(#SVGID_144_);}	.st117{fill-rule:evenodd;clip-rule:evenodd;fill:url(#SVGID_145_);}	.st118{fill-rule:evenodd;clip-rule:evenodd;fill:url(#SVGID_146_);filter:url(#Adobe_OpacityMaskFilter_6_);}	.st119{mask:url(#id2_2_);fill-rule:evenodd;clip-rule:evenodd;fill:url(#SVGID_147_);}	.st120{fill-rule:evenodd;clip-rule:evenodd;fill:url(#SVGID_148_);filter:url(#Adobe_OpacityMaskFilter_7_);}	.st121{mask:url(#id4_2_);fill-rule:evenodd;clip-rule:evenodd;fill:url(#SVGID_149_);}	.st122{fill-rule:evenodd;clip-rule:evenodd;fill:url(#SVGID_150_);filter:url(#Adobe_OpacityMaskFilter_8_);}	.st123{mask:url(#id6_2_);fill-rule:evenodd;clip-rule:evenodd;fill:url(#SVGID_151_);}	.st124{fill-rule:evenodd;clip-rule:evenodd;fill:url(#SVGID_152_);filter:url(#Adobe_OpacityMaskFilter_9_);}	.st125{mask:url(#id8_2_);fill:#2E1A24;}	.st126{fill-rule:evenodd;clip-rule:evenodd;fill:url(#SVGID_153_);filter:url(#Adobe_OpacityMaskFilter_10_);}	.st127{mask:url(#id10_2_);fill-rule:evenodd;clip-rule:evenodd;fill:#2E1A24;}	.st128{fill:url(#SVGID_154_);}	.st129{fill-rule:evenodd;clip-rule:evenodd;fill:url(#SVGID_155_);filter:url(#Adobe_OpacityMaskFilter_11_);}	.st130{mask:url(#id12_2_);fill:#FF3255;}	.st131{fill:url(#SVGID_156_);}	.st132{fill-rule:evenodd;clip-rule:evenodd;fill:url(#SVGID_157_);}	.st133{fill-rule:evenodd;clip-rule:evenodd;fill:url(#SVGID_158_);}	.st134{fill-rule:evenodd;clip-rule:evenodd;fill:url(#SVGID_159_);}	.st135{fill-rule:evenodd;clip-rule:evenodd;fill:#666666;}	.st136{fill:none;}	.st137{fill-rule:evenodd;clip-rule:evenodd;fill:url(#SVGID_160_);}	.st138{fill-rule:evenodd;clip-rule:evenodd;fill:#4D4D4D;}	.st139{fill-rule:evenodd;clip-rule:evenodd;fill:url(#SVGID_161_);}	.st140{fill-rule:evenodd;clip-rule:evenodd;fill:url(#SVGID_162_);}	.st141{fill:url(#SVGID_163_);}	.st142{fill-rule:evenodd;clip-rule:evenodd;fill:url(#SVGID_164_);filter:url(#Adobe_OpacityMaskFilter_12_);}	.st143{mask:url(#id0_1_);fill:#FF3255;}	.st144{fill:url(#SVGID_165_);}</style><g>	<circle class="st0" cx="216" cy="216" r="216"></circle>	<g id="Layer_x0020_1_00000011715717666578703510000004215933645130453163_">					<linearGradient id="SVGID_2_" gradientUnits="userSpaceOnUse" x1="41129.4805" y1="31789.6992" x2="42330.6211" y2="30271.3594" gradientTransform="matrix(7.200000e-02 0 0 7.200000e-02 -2831.4915 -2007.663)">			<stop offset="0" style="stop-color:#FF6600"></stop>			<stop offset="0.4902" style="stop-color:#FF3157"></stop>			<stop offset="0.6" style="stop-color:#FF47AF"></stop>			<stop offset="0.702" style="stop-color:#FF1880"></stop>			<stop offset="1" style="stop-color:#FF00A6"></stop>		</linearGradient>		<path class="st1" d="M115.4,218.9l29.6-29.6c9.3-9.3,21.6-14,33.8-14v0c12.3,0,24.6,4.6,33.8,13.9c4.7,4.7,8.3,10.2,10.6,16.1   l-4.3,4.3c-3.7,3.7-8.5,5.5-13.4,5.5l0,0c-4.2,0-8.5-1.4-11.9-4.3c-0.1,0-0.2-0.1-0.3-0.2l-1.1-1.1c-3.7-3.7-8.5-5.5-13.3-5.5l0,0   c-4.9,0-9.7,1.8-13.4,5.5l-4.4,4.4l0,0l-25.3,25.3c-3.7,3.7-5.5,8.5-5.5,13.3v0.1c0,4.4,1.5,8.8,4.5,12.3l1.1,1   c3.7,3.7,8.5,5.5,13.3,5.5l0,0c4.9,0,9.7-1.8,13.4-5.5l25.3-25.3c5.7,2.2,11.7,3.4,17.7,3.4v0c6,0,12-1.1,17.6-3.3   c-2.3,5.9-5.9,11.3-10.6,16.1l0,0l-29.6,29.6c-9.3,9.3-21.6,14-33.8,14v0c-13.3,0-24.7-4.8-33.8-13.9l0,0   c-9.3-9.3-13.9-21.5-14-33.8v-0.1C101.5,240.5,106.2,228.2,115.4,218.9L115.4,218.9z"></path>					<linearGradient id="SVGID_3_" gradientUnits="userSpaceOnUse" x1="42429.4492" y1="32194.3672" x2="40442.918" y2="29654.0664" gradientTransform="matrix(7.200000e-02 0 0 7.200000e-02 -2831.4915 -2007.663)">			<stop offset="0" style="stop-color:#FF374C"></stop>			<stop offset="0.6314" style="stop-color:#3D0822"></stop>			<stop offset="0.7216" style="stop-color:#8A1C4F"></stop>			<stop offset="1" style="stop-color:#3D0B3B"></stop>		</linearGradient>		<path class="st2" d="M207.8,185c1.7,1.3,3.4,2.7,4.9,4.3c4.7,4.7,8.3,10.2,10.6,16.1l-4.3,4.3c-3.7,3.7-8.5,5.5-13.4,5.5l0,0   c-1.4,0-2.8-0.1-4.1-0.5c-2.1-0.2-5.8-1.9-8.5-4.4l-0.7-0.7c-3.7-3.7-8.5-5.5-13.3-5.5l0,0c-4.9,0-9.7,1.8-13.4,5.5l-4.4,4.4l0,0   l-25.3,25.3c-3.6,3.6-5.5,8.3-5.5,13.4c-1,21.3,26.9,32.7,42.1,19.1l27.3-28.1c5.3,1,17.6-0.1,23.4-2.9c-2.7,7-8.4,13.9-10.6,16.1   l0,0l-29.6,29.6c-9.3,9.3-21.6,14-33.8,14v0c-6.8,0-13.1-1.3-18.8-3.7c-1.8-1.4-3.5-2.9-5.1-4.5l0,0c-9.3-9.3-13.9-21.5-14-33.8   v-0.1c0-12.3,4.7-24.5,13.9-33.8l29.6-29.6c9.3-9.3,21.6-14,33.8-14v0C195.3,181.1,201.8,182.4,207.8,185L207.8,185z"></path>		<defs>			<filter id="Adobe_OpacityMaskFilter" filterUnits="userSpaceOnUse" x="187.9" y="240.8" width="35.3" height="39.6">							</filter>		</defs>		<mask maskUnits="userSpaceOnUse" x="187.9" y="240.8" width="35.3" height="39.6" id="id0_2_">							<linearGradient id="SVGID_5_" gradientUnits="userSpaceOnUse" x1="42247.6914" y1="30070.752" x2="42160.2344" y2="31981.6816" gradientTransform="matrix(7.200000e-02 0 0 7.200000e-02 -2831.4915 -2007.663)">				<stop offset="0" style="stop-color:#FFFFFF"></stop>				<stop offset="1" style="stop-color:#FFFFFF;stop-opacity:0"></stop>			</linearGradient>							<rect x="187.9" y="240.8" style="fill-rule:evenodd;clip-rule:evenodd;fill:url(#SVGID_5_);filter:url(#Adobe_OpacityMaskFilter);" width="35.3" height="39.6"></rect>		</mask>		<path class="st115" d="M187.9,240.8c5.7,2.2,11.7,3.4,17.7,3.4v0c6,0,12-1.1,17.6-3.3c-2.3,5.9-5.9,11.3-10.6,16.1l0,0l-23.5,23.5   l3.5-29.3L187.9,240.8L187.9,240.8z"></path>					<linearGradient id="SVGID_6_" gradientUnits="userSpaceOnUse" x1="42934.5977" y1="30862.1621" x2="41376.5977" y2="29560.1816" gradientTransform="matrix(7.200000e-02 0 0 7.200000e-02 -2831.4915 -2007.663)">			<stop offset="0" style="stop-color:#FF374C"></stop>			<stop offset="0.6314" style="stop-color:#3D0822"></stop>			<stop offset="0.7216" style="stop-color:#8A1C4F"></stop>			<stop offset="1" style="stop-color:#3D0B3B"></stop>		</linearGradient>		<path class="st4" d="M269.1,200.6l-29.6,29.6c-9.3,9.3-21.6,14-33.8,14v0c-12.3,0-24.6-4.6-33.8-13.9c-4.7-4.7-8.3-10.2-10.6-16.1   l4.3-4.3c3.7-3.7,8.5-5.5,13.4-5.5l0,0c4.2,0,8.5,1.4,11.9,4.3c0.1,0,0.2,0.1,0.3,0.2l1.1,1.1c3.7,3.7,8.5,5.5,13.3,5.5l0,0   c4.9,0,9.7-1.8,13.4-5.5l4.4-4.4l0,0l25.3-25.3c3.7-3.7,5.5-8.5,5.5-13.3v-0.1c0-4.4-1.5-8.8-4.5-12.3l-1.1-1.1   c-3.7-3.7-8.5-5.5-13.3-5.5l0,0c-4.9,0-9.7,1.8-13.4,5.5l-25.3,25.3c-5.7-2.2-11.7-3.4-17.7-3.4v0c-6,0-12,1.1-17.6,3.3   c2.3-5.9,5.9-11.3,10.6-16.1l0,0l29.6-29.6c9.3-9.3,21.6-14,33.8-14v0c13.3,0,24.7,4.8,33.8,13.9l0,0c9.3,9.3,14,21.5,14,33.8v0.1   C283,179.1,278.4,191.3,269.1,200.6L269.1,200.6z"></path>					<linearGradient id="SVGID_7_" gradientUnits="userSpaceOnUse" x1="43590.2383" y1="31441.2324" x2="41048.1797" y2="29286.1934" gradientTransform="matrix(7.200000e-02 0 0 7.200000e-02 -2831.4915 -2007.663)">			<stop offset="0" style="stop-color:#FF6600"></stop>			<stop offset="0.4902" style="stop-color:#FF3157"></stop>			<stop offset="0.6" style="stop-color:#FF47AF"></stop>			<stop offset="0.702" style="stop-color:#FF1880"></stop>			<stop offset="1" style="stop-color:#FF00A6"></stop>		</linearGradient>		<path class="st5" d="M175.3,233.4c-1.2-1-2.4-2.1-3.5-3.2c-4.7-4.7-8.3-10.2-10.6-16.1l4.3-4.3c3.7-3.7,8.5-5.5,13.4-5.5l0,0   c3.5,0,8.9,1.3,12.3,4.5l1.1,1.1c3.7,3.7,8.5,5.5,13.3,5.5l0,0c4.9,0,9.7-1.8,13.4-5.5l4.4-4.4l0,0l25.3-25.3   c3.7-3.7,5.5-8.5,5.5-13.3c1.7-22.7-24.4-34.9-42.2-19.7l-28.7,28.5c-1.4-0.1-2.9-0.2-4.3-0.2v0c-6,0-12,1.1-17.6,3.3   c2.3-5.9,5.9-11.3,10.6-16.1l0,0l29.6-29.6c9.3-9.3,21.6-14,33.8-14v0c24.8,0,37.7,17.7,37.8,41.4v0.1c0,12.3-4.7,24.5-13.9,33.8   l-29.6,29.6c-9.3,9.3-21.6,14-33.8,14v0C188.7,237.9,181.7,236.4,175.3,233.4L175.3,233.4z"></path>		<defs>			<filter id="Adobe_OpacityMaskFilter_1_" filterUnits="userSpaceOnUse" x="161.2" y="186.1" width="101.9" height="58.1">							</filter>		</defs>		<mask maskUnits="userSpaceOnUse" x="161.2" y="186.1" width="101.9" height="58.1" id="id2_2_">							<linearGradient id="SVGID_8_" gradientUnits="userSpaceOnUse" x1="41784.6602" y1="30623.5488" x2="42230.5781" y2="30850.8789" gradientTransform="matrix(7.200000e-02 0 0 7.200000e-02 -2831.4915 -2007.663)">				<stop offset="0" style="stop-color:#FFFFFF"></stop>				<stop offset="1" style="stop-color:#FFFFFF;stop-opacity:0"></stop>			</linearGradient>							<rect x="161.2" y="186.1" style="fill-rule:evenodd;clip-rule:evenodd;fill:url(#SVGID_8_);filter:url(#Adobe_OpacityMaskFilter_1_);" width="101.9" height="58.1"></rect>		</mask>					<linearGradient id="SVGID_10_" gradientUnits="userSpaceOnUse" x1="42448.457" y1="30948.4102" x2="41381.1758" y2="30222.5" gradientTransform="matrix(7.200000e-02 0 0 7.200000e-02 -2831.4915 -2007.663)">			<stop offset="0" style="stop-color:#FF374C"></stop>			<stop offset="0.6314" style="stop-color:#3D0822"></stop>			<stop offset="0.7216" style="stop-color:#8A1C4F"></stop>			<stop offset="1" style="stop-color:#3D0B3B"></stop>		</linearGradient>		<path style="mask:url(#id2_2_);fill-rule:evenodd;clip-rule:evenodd;fill:url(#SVGID_10_);" d="M263.1,206.6l-23.6,23.6   c-9.3,9.3-21.6,14-33.8,14v0c-12.3,0-24.6-4.6-33.8-13.9c-4.7-4.7-8.3-10.2-10.6-16.1l4.4-4.4c3.7-3.7,8.5-5.5,13.4-5.5l0,0   c4.8,0,9.6,1.8,13.3,5.5l1.1,1.1c0.1,0.1,0.2,0.2,0.3,0.2c3.5,2.9,7.7,4.3,11.9,4.3l0,0c4.9,0,9.7-1.8,13.4-5.5l23.6-23.6   L263.1,206.6L263.1,206.6z"></path>		<defs>			<filter id="Adobe_OpacityMaskFilter_2_" filterUnits="userSpaceOnUse" x="161.2" y="204.2" width="44.4" height="46">							</filter>		</defs>		<mask maskUnits="userSpaceOnUse" x="161.2" y="204.2" width="44.4" height="46" id="id4_2_">							<linearGradient id="SVGID_11_" gradientUnits="userSpaceOnUse" x1="41742.1094" y1="30480.8047" x2="41955.9492" y2="31390.1953" gradientTransform="matrix(7.200000e-02 0 0 7.200000e-02 -2831.4915 -2007.663)">				<stop offset="0" style="stop-color:#FFFFFF"></stop>				<stop offset="1" style="stop-color:#FFFFFF;stop-opacity:0"></stop>			</linearGradient>							<rect x="161.2" y="204.2" style="fill-rule:evenodd;clip-rule:evenodd;fill:url(#SVGID_11_);filter:url(#Adobe_OpacityMaskFilter_2_);" width="44.4" height="46"></rect>		</mask>					<linearGradient id="SVGID_12_" gradientUnits="userSpaceOnUse" x1="42523.8555" y1="31346.1797" x2="41065.1445" y2="30477.7285" gradientTransform="matrix(7.200000e-02 0 0 7.200000e-02 -2831.4915 -2007.663)">			<stop offset="0" style="stop-color:#FF374C"></stop>			<stop offset="0.6314" style="stop-color:#3D0822"></stop>			<stop offset="0.7216" style="stop-color:#8A1C4F"></stop>			<stop offset="1" style="stop-color:#3D0B3B"></stop>		</linearGradient>		<path style="mask:url(#id4_2_);fill-rule:evenodd;clip-rule:evenodd;fill:url(#SVGID_12_);" d="M205.6,250.2   c-8-2.1-27.5-13.7-33.8-20c-4.7-4.7-8.3-10.2-10.6-16.1l4.4-4.4c3.7-3.7,8.5-5.5,13.4-5.5l0,0c4.8,0,9.6,1.8,13.3,5.5l1.1,1.1   c0.1,0.1,0.2,0.2,0.3,0.2v26.8L205.6,250.2L205.6,250.2z"></path>		<defs>			<filter id="Adobe_OpacityMaskFilter_3_" filterUnits="userSpaceOnUse" x="121.4" y="175.3" width="101.9" height="58.1">							</filter>		</defs>		<mask maskUnits="userSpaceOnUse" x="121.4" y="175.3" width="101.9" height="58.1" id="id6_2_">							<linearGradient id="SVGID_13_" gradientUnits="userSpaceOnUse" x1="42411.918" y1="31300.6055" x2="41666.0273" y2="30677.0059" gradientTransform="matrix(7.200000e-02 0 0 7.200000e-02 -2831.4915 -2007.663)">				<stop offset="0" style="stop-color:#FFFFFF"></stop>				<stop offset="1" style="stop-color:#FFFFFF;stop-opacity:0"></stop>			</linearGradient>							<rect x="121.4" y="175.3" style="fill-rule:evenodd;clip-rule:evenodd;fill:url(#SVGID_13_);filter:url(#Adobe_OpacityMaskFilter_3_);" width="101.9" height="58.1"></rect>		</mask>					<linearGradient id="SVGID_15_" gradientUnits="userSpaceOnUse" x1="41722.3633" y1="31154.1172" x2="41716.793" y2="30015.748" gradientTransform="matrix(7.200000e-02 0 0 7.200000e-02 -2831.4915 -2007.663)">			<stop offset="0" style="stop-color:#FF6600"></stop>			<stop offset="0.4902" style="stop-color:#FF3157"></stop>			<stop offset="0.6" style="stop-color:#FF47AF"></stop>			<stop offset="0.702" style="stop-color:#FF1880"></stop>			<stop offset="1" style="stop-color:#FF00A6"></stop>		</linearGradient>		<path style="mask:url(#id6_2_);fill-rule:evenodd;clip-rule:evenodd;fill:url(#SVGID_15_);" d="M121.4,212.9l23.6-23.6   c9.3-9.3,21.6-14,33.8-14v0c12.3,0,24.6,4.6,33.8,13.9c4.7,4.7,8.3,10.2,10.6,16.1l-4.4,4.4c-3.7,3.7-8.5,5.5-13.4,5.5l0,0   c-4.8,0-9.6-1.8-13.3-5.5l-1.1-1.1c-0.1-0.1-0.2-0.2-0.3-0.2c-3.5-2.9-7.7-4.3-11.9-4.3l0,0c-4.9,0-9.7,1.8-13.4,5.5l-23.6,23.6   L121.4,212.9L121.4,212.9z"></path>		<defs>			<filter id="Adobe_OpacityMaskFilter_4_" filterUnits="userSpaceOnUse" x="121.4" y="175.3" width="101.9" height="58.1">							</filter>		</defs>		<mask maskUnits="userSpaceOnUse" x="121.4" y="175.3" width="101.9" height="58.1" id="id8_2_">							<linearGradient id="SVGID_16_" gradientUnits="userSpaceOnUse" x1="42453.9102" y1="30813.9082" x2="41739.1016" y2="30724.918" gradientTransform="matrix(7.200000e-02 0 0 7.200000e-02 -2831.4915 -2007.663)">				<stop offset="0" style="stop-color:#FFFFFF"></stop>				<stop offset="1" style="stop-color:#FFFFFF;stop-opacity:0"></stop>			</linearGradient>							<rect x="121.4" y="175.3" style="fill-rule:evenodd;clip-rule:evenodd;fill:url(#SVGID_16_);filter:url(#Adobe_OpacityMaskFilter_4_);" width="101.9" height="58.1"></rect>		</mask>		<path class="st125" d="M121.4,212.9l23.6-23.6c9.3-9.3,21.6-14,33.8-14v0c12.3,0,24.6,4.6,33.8,13.9c4.7,4.7,8.3,10.2,10.6,16.1   l-4.4,4.4c-3.7,3.7-8.5,5.5-13.4,5.5l0,0c-4.8,0-9.6-1.8-13.3-5.5l-1.1-1.1c-0.1-0.1-0.2-0.2-0.3-0.2c-3.5-2.9-7.7-4.3-11.9-4.3   l0,0c-4.9,0-9.7,1.8-13.4,5.5l-23.6,23.6L121.4,212.9L121.4,212.9z"></path>		<defs>			<filter id="Adobe_OpacityMaskFilter_5_" filterUnits="userSpaceOnUse" x="213.5" y="240.9" width="9.8" height="8.4">							</filter>		</defs>		<mask maskUnits="userSpaceOnUse" x="213.5" y="240.9" width="9.8" height="8.4" id="id10_2_">							<linearGradient id="SVGID_17_" gradientUnits="userSpaceOnUse" x1="42445.7266" y1="30667.4961" x2="42342.8242" y2="31410.6465" gradientTransform="matrix(7.200000e-02 0 0 7.200000e-02 -2831.4915 -2007.663)">				<stop offset="0" style="stop-color:#FFFFFF"></stop>				<stop offset="1" style="stop-color:#FFFFFF;stop-opacity:0"></stop>			</linearGradient>							<rect x="213.5" y="240.9" style="fill-rule:evenodd;clip-rule:evenodd;fill:url(#SVGID_17_);filter:url(#Adobe_OpacityMaskFilter_5_);" width="9.8" height="8.4"></rect>		</mask>		<path class="st127" d="M213.6,243.5c0.2,0,0.4-0.1,0.6-0.1L213.6,243.5L213.6,243.5z M219.1,242.4c1.6-0.4,3-0.9,4.2-1.5   c-1.1,2.9-2.8,5.9-4.5,8.4L219.1,242.4L219.1,242.4z"></path>		<g id="_1869733663232">							<linearGradient id="SVGID_18_" gradientUnits="userSpaceOnUse" x1="42406.1328" y1="31477.0566" x2="43916.5508" y2="31477.0566" gradientTransform="matrix(7.200000e-02 0 0 7.200000e-02 -2831.4915 -2007.663)">				<stop offset="0" style="stop-color:#FF6600"></stop>				<stop offset="1" style="stop-color:#FF00A6"></stop>			</linearGradient>			<path style="fill:url(#SVGID_18_);" d="M242.7,204.3h66.8c11.6,0,21,9.4,21,21v66.8c0,11.6-9.4,21-21,21h-66.8    c-11.6,0-21-9.4-21-21v-66.8C221.8,213.7,231.1,204.3,242.7,204.3z"></path>			<g>				<path class="st100" d="M298.6,292.1c0.9,0,3.4,0,3.9,0c3.8,0,7.1-3.1,7.1-6.8v-53.1c0-3.8-3.9-6.8-7.7-6.8h-2.7l-25.5,0     c-1.7,0-3,1.4-3,3.1v3.2v29.4c0,1.9,0.6,3.5,1.5,4.8c1.1,1.5,2.8,2.6,4.6,3.4l19,5.7c1.6,0.6,3,1.6,4,2.8     c0.9,1.1,1.5,2.5,1.5,4.1v6.2C301.2,289.2,301.2,291.4,298.6,292.1L298.6,292.1z M299.1,260.9c1.2,0,2.1,1,2.1,2.1     s-1,2.1-2.1,2.1s-2.1-1-2.1-2.1S297.9,260.9,299.1,260.9z"></path>				<defs>					<filter id="Adobe_OpacityMaskFilter_6_" filterUnits="userSpaceOnUse" x="270.6" y="225.3" width="38.9" height="66.8">											</filter>				</defs>				<mask maskUnits="userSpaceOnUse" x="270.6" y="225.3" width="38.9" height="66.8" id="id12_2_">											<linearGradient id="SVGID_19_" gradientUnits="userSpaceOnUse" x1="43715.6641" y1="31477.125" x2="43512.7734" y2="31477.125" gradientTransform="matrix(7.200000e-02 0 0 7.200000e-02 -2831.4915 -2007.663)">						<stop offset="0" style="stop-color:#FFFFFF"></stop>						<stop offset="1" style="stop-color:#FFFFFF;stop-opacity:0"></stop>					</linearGradient>											<rect x="270.6" y="225.3" style="fill-rule:evenodd;clip-rule:evenodd;fill:url(#SVGID_19_);filter:url(#Adobe_OpacityMaskFilter_6_);" width="38.9" height="66.8"></rect>				</mask>				<path class="st130" d="M298.6,292.1c0.9,0,3.4,0,3.9,0c3.8,0,7.1-3.1,7.1-6.8v-53.1c0-3.8-3.9-6.8-7.7-6.8h-2.7l-25.5,0     c-1.7,0-3,1.4-3,3.1v3.2v29.4c0,1.9,0.6,3.5,1.5,4.8c1.1,1.5,2.8,2.6,4.6,3.4l19,5.7c1.6,0.6,3,1.6,4,2.8     c0.9,1.1,1.5,2.5,1.5,4.1v6.2C301.2,289.2,301.2,291.4,298.6,292.1L298.6,292.1z M299.1,260.9c1.2,0,2.1,1,2.1,2.1     s-1,2.1-2.1,2.1s-2.1-1-2.1-2.1S297.9,260.9,299.1,260.9z"></path>									<linearGradient id="SVGID_20_" gradientUnits="userSpaceOnUse" x1="42860.5938" y1="31535.1816" x2="43936.2656" y2="31535.1816" gradientTransform="matrix(7.200000e-02 0 0 7.200000e-02 -2831.4915 -2007.663)">					<stop offset="0" style="stop-color:#FFFFFF"></stop>					<stop offset="1" style="stop-color:#FF1C79"></stop>				</linearGradient>				<path style="fill:url(#SVGID_20_);" d="M249.6,292.1c11.1,0,36.8,0,49,0c2.6-0.7,2.6-2.9,2.6-4.2v-6.2c0-1.6-0.5-3-1.5-4.1     c-1-1.2-2.4-2.1-4-2.8l-19-5.7c-1.8-0.8-3.5-1.9-4.6-3.4c-1-1.3-1.5-2.9-1.5-4.8v-27.2l-21,0c-3.8,0-6.8,3.1-6.8,6.8v44.8     C242.7,289,245.8,292.1,249.6,292.1L249.6,292.1z"></path>			</g>		</g>	</g></g></svg>