<svg xmlns="http://www.w3.org/2000/svg" xmlns:xlink="http://www.w3.org/1999/xlink" id="Layer_1" x="0px" y="0px" viewBox="0 0 432 432" style="enable-background:new 0 0 432 432;" xml:space="preserve"><style type="text/css">	.st0{fill:#F8ECE5;}	.st1{fill-rule:evenodd;clip-rule:evenodd;fill:url(#SVGID_2_);}	.st2{fill-rule:evenodd;clip-rule:evenodd;fill:url(#SVGID_3_);}	.st3{fill-rule:evenodd;clip-rule:evenodd;fill:url(#SVGID_5_);}	.st4{fill-rule:evenodd;clip-rule:evenodd;fill:url(#SVGID_6_);}	.st5{fill-rule:evenodd;clip-rule:evenodd;fill:url(#SVGID_7_);}	.st6{fill-rule:evenodd;clip-rule:evenodd;fill:#E6E6E6;}	.st7{fill-rule:evenodd;clip-rule:evenodd;fill:url(#SVGID_8_);}	.st8{fill-rule:evenodd;clip-rule:evenodd;fill:url(#SVGID_10_);}	.st9{fill-rule:evenodd;clip-rule:evenodd;fill:url(#SVGID_11_);}	.st10{fill-rule:evenodd;clip-rule:evenodd;fill:url(#SVGID_12_);}	.st11{fill-rule:evenodd;clip-rule:evenodd;fill:url(#SVGID_13_);}	.st12{fill-rule:evenodd;clip-rule:evenodd;fill:url(#SVGID_15_);}	.st13{fill-rule:evenodd;clip-rule:evenodd;fill:url(#SVGID_16_);}	.st14{fill-rule:evenodd;clip-rule:evenodd;fill:url(#SVGID_17_);}	.st15{fill-rule:evenodd;clip-rule:evenodd;fill:url(#SVGID_18_);}	.st16{fill-rule:evenodd;clip-rule:evenodd;fill:url(#SVGID_19_);}	.st17{fill-rule:evenodd;clip-rule:evenodd;fill:url(#SVGID_20_);filter:url(#Adobe_OpacityMaskFilter);}	.st18{mask:url(#id5_2_);fill-rule:evenodd;clip-rule:evenodd;fill:#2E1A24;}	.st19{fill-rule:evenodd;clip-rule:evenodd;fill:url(#SVGID_21_);}	.st20{fill-rule:evenodd;clip-rule:evenodd;fill:url(#SVGID_22_);}	.st21{fill-rule:evenodd;clip-rule:evenodd;fill:url(#SVGID_23_);}	.st22{fill-rule:evenodd;clip-rule:evenodd;fill:url(#SVGID_24_);}	.st23{fill-rule:evenodd;clip-rule:evenodd;fill:url(#SVGID_25_);}	.st24{fill:#FFFFFF;}	.st25{fill-rule:evenodd;clip-rule:evenodd;fill:url(#SVGID_26_);}	.st26{fill-rule:evenodd;clip-rule:evenodd;fill:url(#SVGID_27_);filter:url(#Adobe_OpacityMaskFilter_1_);}	.st27{mask:url(#id7_2_);fill-rule:evenodd;clip-rule:evenodd;fill:#2E1A24;}	.st28{fill-rule:evenodd;clip-rule:evenodd;fill:url(#SVGID_28_);}	.st29{fill-rule:evenodd;clip-rule:evenodd;fill:url(#SVGID_29_);}	.st30{fill-rule:evenodd;clip-rule:evenodd;fill:url(#SVGID_30_);}	.st31{fill-rule:evenodd;clip-rule:evenodd;fill:url(#SVGID_31_);}	.st32{fill-rule:evenodd;clip-rule:evenodd;fill:#2E1A24;}	.st33{fill-rule:evenodd;clip-rule:evenodd;fill:url(#SVGID_32_);}	.st34{fill-rule:evenodd;clip-rule:evenodd;fill:url(#SVGID_33_);}	.st35{fill:url(#SVGID_34_);}	.st36{fill:url(#SVGID_35_);}	.st37{clip-path:url(#SVGID_37_);}	.st38{clip-path:url(#SVGID_39_);}	.st39{fill-rule:evenodd;clip-rule:evenodd;fill:url(#SVGID_40_);}	.st40{clip-path:url(#SVGID_42_);fill-rule:evenodd;clip-rule:evenodd;fill:url(#SVGID_43_);}	.st41{clip-path:url(#SVGID_45_);}	.st42{fill-rule:evenodd;clip-rule:evenodd;fill:url(#SVGID_46_);}	.st43{clip-path:url(#SVGID_50_);}	.st44{fill-rule:evenodd;clip-rule:evenodd;fill:url(#SVGID_51_);}	.st45{filter:url(#Adobe_OpacityMaskFilter_2_);}	.st46{clip-path:url(#SVGID_53_);}	.st47{clip-path:url(#SVGID_55_);fill:url(#SVGID_56_);}	.st48{clip-path:url(#SVGID_53_);mask:url(#SVGID_14_);fill-rule:evenodd;clip-rule:evenodd;fill:#1A1A1A;}	.st49{clip-path:url(#SVGID_58_);}	.st50{fill-rule:evenodd;clip-rule:evenodd;fill:url(#SVGID_59_);}	.st51{clip-path:url(#SVGID_61_);fill-rule:evenodd;clip-rule:evenodd;fill:#FFFFFF;}	.st52{clip-path:url(#SVGID_63_);}	.st53{fill-rule:evenodd;clip-rule:evenodd;fill:url(#SVGID_64_);}	.st54{clip-path:url(#SVGID_66_);}	.st55{fill-rule:evenodd;clip-rule:evenodd;fill:url(#SVGID_67_);}	.st56{clip-path:url(#SVGID_69_);}	.st57{fill-rule:evenodd;clip-rule:evenodd;fill:url(#SVGID_70_);}	.st58{clip-path:url(#SVGID_72_);}	.st59{fill-rule:evenodd;clip-rule:evenodd;fill:url(#SVGID_73_);}	.st60{clip-path:url(#SVGID_75_);}	.st61{fill-rule:evenodd;clip-rule:evenodd;fill:url(#SVGID_76_);}	.st62{clip-path:url(#SVGID_78_);}	.st63{fill-rule:evenodd;clip-rule:evenodd;fill:url(#SVGID_79_);}	.st64{clip-path:url(#SVGID_81_);fill-rule:evenodd;clip-rule:evenodd;}	.st65{clip-path:url(#SVGID_83_);}	.st66{clip-path:url(#SVGID_85_);fill:url(#SVGID_86_);}	.st67{clip-path:url(#SVGID_88_);}	.st68{clip-path:url(#SVGID_90_);fill:url(#SVGID_91_);}	.st69{clip-path:url(#SVGID_93_);fill-rule:evenodd;clip-rule:evenodd;}	.st70{clip-path:url(#SVGID_95_);fill:none;stroke:#000000;stroke-width:0.4799;stroke-miterlimit:2.6131;}	.st71{clip-path:url(#SVGID_97_);}	.st72{clip-path:url(#SVGID_99_);fill:url(#SVGID_100_);}	.st73{clip-path:url(#SVGID_102_);fill:none;stroke:#000000;stroke-width:0.4799;stroke-miterlimit:2.6131;}	.st74{clip-path:url(#SVGID_104_);}	.st75{fill-rule:evenodd;clip-rule:evenodd;fill:url(#SVGID_105_);}	.st76{clip-path:url(#SVGID_107_);}	.st77{fill-rule:evenodd;clip-rule:evenodd;fill:url(#SVGID_108_);}	.st78{clip-path:url(#SVGID_110_);}	.st79{fill-rule:evenodd;clip-rule:evenodd;fill:url(#SVGID_111_);}	.st80{clip-path:url(#SVGID_113_);fill:#FEFEFE;}	.st81{clip-path:url(#SVGID_115_);}	.st82{fill:url(#SVGID_116_);}	.st83{clip-path:url(#SVGID_118_);}	.st84{fill:url(#SVGID_119_);}	.st85{clip-path:url(#SVGID_121_);fill:#FEFEFE;}	.st86{fill-rule:evenodd;clip-rule:evenodd;fill:url(#SVGID_122_);}	.st87{fill-rule:evenodd;clip-rule:evenodd;fill:url(#SVGID_123_);}	.st88{fill-rule:evenodd;clip-rule:evenodd;fill:#333333;}	.st89{fill-rule:evenodd;clip-rule:evenodd;fill:url(#SVGID_124_);}	.st90{fill-rule:evenodd;clip-rule:evenodd;fill:url(#SVGID_125_);}	.st91{fill-rule:evenodd;clip-rule:evenodd;fill:url(#SVGID_126_);}	.st92{fill-rule:evenodd;clip-rule:evenodd;fill:url(#SVGID_127_);}	.st93{filter:url(#Adobe_OpacityMaskFilter_3_);}	.st94{fill:url(#SVGID_128_);}	.st95{mask:url(#SVGID_9_);fill-rule:evenodd;clip-rule:evenodd;}	.st96{fill-rule:evenodd;clip-rule:evenodd;fill:url(#SVGID_129_);}	.st97{fill-rule:evenodd;clip-rule:evenodd;fill:url(#SVGID_130_);}	.st98{fill-rule:evenodd;clip-rule:evenodd;}	.st99{fill:url(#SVGID_131_);}	.st100{fill:#FEFEFE;}	.st101{filter:url(#Adobe_OpacityMaskFilter_4_);}	.st102{fill:url(#SVGID_132_);}	.st103{mask:url(#SVGID_4_);fill:#FF3255;}	.st104{fill:url(#SVGID_133_);}	.st105{fill-rule:evenodd;clip-rule:evenodd;fill:url(#SVGID_134_);}	.st106{fill-rule:evenodd;clip-rule:evenodd;fill:url(#SVGID_135_);}	.st107{fill-rule:evenodd;clip-rule:evenodd;fill:url(#SVGID_136_);}	.st108{fill-rule:evenodd;clip-rule:evenodd;fill:url(#SVGID_137_);}	.st109{fill-rule:evenodd;clip-rule:evenodd;fill:url(#SVGID_138_);}	.st110{fill-rule:evenodd;clip-rule:evenodd;fill:url(#SVGID_139_);}	.st111{fill:url(#SVGID_140_);}	.st112{fill-rule:evenodd;clip-rule:evenodd;fill:url(#SVGID_141_);}	.st113{fill-rule:evenodd;clip-rule:evenodd;fill:url(#SVGID_142_);}	.st114{fill-rule:evenodd;clip-rule:evenodd;fill:url(#SVGID_143_);filter:url(#Adobe_OpacityMaskFilter_5_);}	.st115{mask:url(#id0_2_);fill-rule:evenodd;clip-rule:evenodd;fill:#2E1A24;}	.st116{fill-rule:evenodd;clip-rule:evenodd;fill:url(#SVGID_144_);}	.st117{fill-rule:evenodd;clip-rule:evenodd;fill:url(#SVGID_145_);}	.st118{fill-rule:evenodd;clip-rule:evenodd;fill:url(#SVGID_146_);filter:url(#Adobe_OpacityMaskFilter_6_);}	.st119{mask:url(#id2_2_);fill-rule:evenodd;clip-rule:evenodd;fill:url(#SVGID_147_);}	.st120{fill-rule:evenodd;clip-rule:evenodd;fill:url(#SVGID_148_);filter:url(#Adobe_OpacityMaskFilter_7_);}	.st121{mask:url(#id4_2_);fill-rule:evenodd;clip-rule:evenodd;fill:url(#SVGID_149_);}	.st122{fill-rule:evenodd;clip-rule:evenodd;fill:url(#SVGID_150_);filter:url(#Adobe_OpacityMaskFilter_8_);}	.st123{mask:url(#id6_2_);fill-rule:evenodd;clip-rule:evenodd;fill:url(#SVGID_151_);}	.st124{fill-rule:evenodd;clip-rule:evenodd;fill:url(#SVGID_152_);filter:url(#Adobe_OpacityMaskFilter_9_);}	.st125{mask:url(#id8_2_);fill:#2E1A24;}	.st126{fill-rule:evenodd;clip-rule:evenodd;fill:url(#SVGID_153_);filter:url(#Adobe_OpacityMaskFilter_10_);}	.st127{mask:url(#id10_2_);fill-rule:evenodd;clip-rule:evenodd;fill:#2E1A24;}	.st128{fill:url(#SVGID_154_);}	.st129{fill-rule:evenodd;clip-rule:evenodd;fill:url(#SVGID_155_);filter:url(#Adobe_OpacityMaskFilter_11_);}	.st130{mask:url(#id12_2_);fill:#FF3255;}	.st131{fill:url(#SVGID_156_);}	.st132{fill-rule:evenodd;clip-rule:evenodd;fill:url(#SVGID_157_);}	.st133{fill-rule:evenodd;clip-rule:evenodd;fill:url(#SVGID_158_);}	.st134{fill-rule:evenodd;clip-rule:evenodd;fill:url(#SVGID_159_);}	.st135{fill-rule:evenodd;clip-rule:evenodd;fill:#666666;}	.st136{fill:none;}	.st137{fill-rule:evenodd;clip-rule:evenodd;fill:url(#SVGID_160_);}	.st138{fill-rule:evenodd;clip-rule:evenodd;fill:#4D4D4D;}	.st139{fill-rule:evenodd;clip-rule:evenodd;fill:url(#SVGID_161_);}	.st140{fill-rule:evenodd;clip-rule:evenodd;fill:url(#SVGID_162_);}	.st141{fill:url(#SVGID_163_);}	.st142{fill-rule:evenodd;clip-rule:evenodd;fill:url(#SVGID_164_);filter:url(#Adobe_OpacityMaskFilter_12_);}	.st143{mask:url(#id0_1_);fill:#FF3255;}	.st144{fill:url(#SVGID_165_);}</style><circle class="st0" cx="216" cy="216" r="216"></circle><g>			<linearGradient id="SVGID_2_" gradientUnits="userSpaceOnUse" x1="8755.9004" y1="29936.9746" x2="7412.6655" y2="31455.502" gradientTransform="matrix(7.200000e-02 0 0 7.200000e-02 -397.184 -2007.663)">		<stop offset="0" style="stop-color:#FF374C"></stop>		<stop offset="0.6314" style="stop-color:#3D0822"></stop>		<stop offset="0.7216" style="stop-color:#8A1C4F"></stop>		<stop offset="1" style="stop-color:#3D0B3B"></stop>	</linearGradient>	<polygon class="st1" points="129.1,202.4 246.7,134.5 246.7,195.7 129.1,263.6  "></polygon>			<linearGradient id="SVGID_3_" gradientUnits="userSpaceOnUse" x1="8943.25" y1="30717.543" x2="10815.75" y2="30717.543" gradientTransform="matrix(7.200000e-02 0 0 7.200000e-02 -397.184 -2007.663)">		<stop offset="0" style="stop-color:#E6E6E6"></stop>		<stop offset="1" style="stop-color:#ABABAB"></stop>	</linearGradient>	<polygon class="st2" points="381.5,212.3 246.7,134.5 246.7,195.7 381.5,273.5  "></polygon>			<linearGradient id="SVGID_5_" gradientUnits="userSpaceOnUse" x1="10654.2988" y1="29892.9082" x2="9230.582" y2="30782.6836" gradientTransform="matrix(7.200000e-02 0 0 7.200000e-02 -397.184 -2007.663)">		<stop offset="0" style="stop-color:#FF374C"></stop>		<stop offset="0.6314" style="stop-color:#3D0822"></stop>		<stop offset="0.7216" style="stop-color:#8A1C4F"></stop>		<stop offset="1" style="stop-color:#3D0B3B"></stop>	</linearGradient>	<polygon class="st3" points="381.5,212.3 256.9,140.3 256.9,147.7 375.2,216  "></polygon>			<linearGradient id="SVGID_6_" gradientUnits="userSpaceOnUse" x1="9479.123" y1="29140.7734" x2="8499.1104" y2="30205.5645" gradientTransform="matrix(7.200000e-02 0 0 7.200000e-02 -397.184 -2007.663)">		<stop offset="0" style="stop-color:#FF374C"></stop>		<stop offset="0.6314" style="stop-color:#3D0822"></stop>		<stop offset="0.7216" style="stop-color:#8A1C4F"></stop>		<stop offset="1" style="stop-color:#3D0B3B"></stop>	</linearGradient>	<path class="st4" d="M285,123.3l-38.8-20l-3.6-1.3l6.2-2.7c2.4-1.1,5-0.3,7.3,1l34.3,19.8L285,123.3L285,123.3z"></path>			<linearGradient id="SVGID_7_" gradientUnits="userSpaceOnUse" x1="9071.2666" y1="31917.6641" x2="10418.4004" y2="28578.1211" gradientTransform="matrix(7.200000e-02 0 0 7.200000e-02 -397.184 -2007.663)">		<stop offset="0" style="stop-color:#FF374C"></stop>		<stop offset="0.5294" style="stop-color:#8A1C4F"></stop>		<stop offset="1" style="stop-color:#3D0B3B"></stop>	</linearGradient>	<path class="st5" d="M363.4,160.4l-0.5,86.9c0,7.8-6.6,15.6-14.2,10.9l-100.4-62.8c-5-3.1-9.2-9.5-9.1-14.6l0.4-74  c0-2,1-3.8,2.8-4.8c1.8-1,3.8-1,5.5,0l32.8,18.9c2.6,1.5,5.6,1.5,8.2-0.1l6.7-4.1c2.6-1.6,5.6-1.6,8.2-0.1l50.4,29.1  C359.4,148.7,363.5,155.2,363.4,160.4L363.4,160.4z"></path>	<g>					<image style="overflow:visible;opacity:0.3;enable-background:new    ;" width="120" height="159" xlink:href="7BA07A930D43C1F5.png" transform="matrix(1 0 0 1 240.9945 104.0009)">		</image>		<g>			<path class="st6" d="M358.8,179.2l0.3,77c0,7.1-4.8,7-11.6,2.5l-91.3-59.6c-4.5-2.9-8.2-8.6-8.3-13.3l-1.6-75.1    c0-1.8,0.2-2.2,1.6-1.4l109.7,63C358.9,173.2,358.8,174.6,358.8,179.2L358.8,179.2z"></path>		</g>	</g>	<path class="st6" d="M353.9,182l1.6,75.9c0,1.3,0,4.2-1.6,3.2L251.3,202c-4.6-2.7-8.2-8.6-8.3-13.3l-1.6-75.1  c0-1.8,0.2-2.2,1.6-1.4l109.7,63C354,176,353.8,177.4,353.9,182L353.9,182z"></path>			<linearGradient id="SVGID_8_" gradientUnits="userSpaceOnUse" x1="10289.126" y1="29606.8184" x2="8625.166" y2="31411.3398" gradientTransform="matrix(7.200000e-02 -4.270963e-04 4.270963e-04 7.200000e-02 -403.0854 -2001.4077)">		<stop offset="0" style="stop-color:#FF374C"></stop>		<stop offset="0.6314" style="stop-color:#3D0822"></stop>		<stop offset="0.7216" style="stop-color:#8A1C4F"></stop>		<stop offset="1" style="stop-color:#3D0B3B"></stop>	</linearGradient>	<path class="st7" d="M350.6,190.5l-0.1,64.7c0,5.6,12.8,2,12.8-8.3l0-7.2l-0.1-79.8c0-5.1-4.1-11.6-9.2-14.6l-48.4-27.6l0,0  l-2.2-1.3c-2.1-1.2-4.4-1.4-6.6-0.6l0,0l6.1-2.8c2.4-1.1,5-0.3,7.3,1l34.4,19.6l0,0l15.3,8.7c5.1,2.9,9.2,9.4,9.2,14.6l0.1,86.9  c0,20.2-21.2,24.1-28.6,20.9l0,0c2.4-1.2,3.9-3.8,3.9-7.5l0.1-64c0-5.1-4.1-11.6-9.2-14.6l-59.7-34l-45.8-26.1  c-2.6-1.5-4.9-1.7-6.6-1l0,0c1.5-0.7,5.7-3,7-3.2l0,0l0,0c1.6-0.3,3.5,0.1,5.6,1.3L341.4,176C346.5,178.9,350.6,185.4,350.6,190.5  L350.6,190.5z"></path>			<linearGradient id="SVGID_10_" gradientUnits="userSpaceOnUse" x1="9747.4863" y1="30124.0137" x2="9239.0254" y2="31004.6953" gradientTransform="matrix(7.200000e-02 0 0 7.200000e-02 -397.184 -2007.663)">		<stop offset="0" style="stop-color:#FF6600"></stop>		<stop offset="1" style="stop-color:#FF00A6"></stop>	</linearGradient>	<path class="st8" d="M344.6,193.7l-0.4,62.7c-0.1,4.7,2.3,8.6,7.6,8.8c-6.4,2.9-14.1-0.3-21.9-4.7l-100.4-57.9  c-5.1-2.9-9.2-9.5-9.1-14.6l0.5-65.6c0-5.1,4.2-6.9,9.3-3.9l105.2,60.7C340.6,182,344.7,188.6,344.6,193.7L344.6,193.7z"></path>			<linearGradient id="SVGID_11_" gradientUnits="userSpaceOnUse" x1="9032.8555" y1="29339.1309" x2="8052.833" y2="30403.9102" gradientTransform="matrix(7.200000e-02 0 0 7.200000e-02 -397.184 -2007.663)">		<stop offset="0" style="stop-color:#FF374C"></stop>		<stop offset="0.6314" style="stop-color:#3D0822"></stop>		<stop offset="0.7216" style="stop-color:#8A1C4F"></stop>		<stop offset="1" style="stop-color:#3D0B3B"></stop>	</linearGradient>	<path class="st9" d="M252.8,137.6l-38.8-20l-3.6-1.3l6.2-2.7c2.4-1.1,5-0.3,7.3,1l34.3,19.8L252.8,137.6L252.8,137.6z"></path>			<linearGradient id="SVGID_12_" gradientUnits="userSpaceOnUse" x1="8624.8906" y1="32115.9648" x2="9972.0244" y2="28776.4219" gradientTransform="matrix(7.200000e-02 0 0 7.200000e-02 -397.184 -2007.663)">		<stop offset="0" style="stop-color:#FF374C"></stop>		<stop offset="0.5294" style="stop-color:#8A1C4F"></stop>		<stop offset="1" style="stop-color:#3D0B3B"></stop>	</linearGradient>	<path class="st10" d="M331.3,174.6l-0.5,86.9c0,7.8-6.6,15.6-14.2,10.9l-100.4-62.8c-5-3.1-9.2-9.5-9.1-14.6l0.4-74  c0-2,1-3.8,2.8-4.8c1.8-1,3.8-1,5.5,0l32.8,18.9c2.6,1.5,5.6,1.5,8.2-0.1l6.7-4.1c2.6-1.6,5.6-1.6,8.2-0.1l50.4,29.1  C327.2,163,331.3,169.5,331.3,174.6L331.3,174.6z"></path>	<g>					<image style="overflow:visible;opacity:0.3;enable-background:new    ;" width="119" height="160" xlink:href="7BA07A930D43C1F7.png" transform="matrix(1 0 0 1 208.9945 118.0009)">		</image>		<g>			<path class="st6" d="M326.6,193.5l0.3,77c0,7.1-4.8,7-11.6,2.5l-91.3-59.6c-4.5-2.9-8.2-8.6-8.3-13.3l-1.6-75.1    c0-1.8,0.2-2.2,1.6-1.4l109.7,63C326.8,187.5,326.6,188.9,326.6,193.5L326.6,193.5z"></path>		</g>	</g>	<path class="st6" d="M321.8,196.3l1.6,75.9c0,1.3,0,4.2-1.6,3.2l-102.6-59.2c-4.6-2.7-8.2-8.6-8.3-13.3l-1.6-75.1  c0-1.8,0.2-2.2,1.6-1.4l109.7,63C321.9,190.3,321.7,191.7,321.8,196.3L321.8,196.3z"></path>			<linearGradient id="SVGID_13_" gradientUnits="userSpaceOnUse" x1="9941.8652" y1="29835.6016" x2="8277.915" y2="31640.1211" gradientTransform="matrix(7.200000e-02 0 0 7.200000e-02 -397.184 -2007.663)">		<stop offset="0" style="stop-color:#FF374C"></stop>		<stop offset="0.6314" style="stop-color:#3D0822"></stop>		<stop offset="0.7216" style="stop-color:#8A1C4F"></stop>		<stop offset="1" style="stop-color:#3D0B3B"></stop>	</linearGradient>	<path class="st11" d="M318.5,205.1l-0.4,64.7c0,5.6,12.8,2.1,12.8-8.2l0-7.2l0.4-79.8c0-5.1-4.1-11.7-9.1-14.6l-48.2-27.8l0,0  l-2.2-1.3c-2.1-1.2-4.4-1.4-6.6-0.6l0,0l6.2-2.7c2.4-1.1,5-0.3,7.3,1l34.3,19.8l0,0l15.3,8.8c5.1,2.9,9.2,9.5,9.1,14.6l-0.5,86.9  c-0.1,20.2-21.4,24-28.7,20.7l0,0c2.4-1.2,3.9-3.7,4-7.5l0.5-64c0-5.1-4.1-11.7-9.1-14.6L243.8,159l-45.7-26.4  c-2.6-1.5-4.9-1.8-6.6-1l0,0c1.5-0.7,5.7-2.9,7-3.2l0,0l0,0c1.6-0.3,3.5,0.1,5.6,1.3l105.2,60.7C314.4,193.5,318.5,200,318.5,205.1  L318.5,205.1z"></path>			<linearGradient id="SVGID_15_" gradientUnits="userSpaceOnUse" x1="9301.123" y1="30322.498" x2="8792.6738" y2="31203.1504" gradientTransform="matrix(7.200000e-02 0 0 7.200000e-02 -397.184 -2007.663)">		<stop offset="0" style="stop-color:#FF6600"></stop>		<stop offset="1" style="stop-color:#FF00A6"></stop>	</linearGradient>	<path class="st12" d="M312.5,208l-0.4,62.7c-0.1,4.7,2.3,8.6,7.6,8.8c-6.4,2.9-14.1-0.3-21.9-4.7l-100.4-57.9  c-5.1-2.9-9.2-9.5-9.1-14.6l0.5-65.6c0-5.1,4.2-6.9,9.3-3.9l105.2,60.7C308.4,196.3,312.5,202.9,312.5,208L312.5,208z"></path>			<linearGradient id="SVGID_16_" gradientUnits="userSpaceOnUse" x1="7915.9229" y1="29571.9941" x2="8989.6104" y2="30738.5586" gradientTransform="matrix(7.200000e-02 0 0 7.200000e-02 -397.184 -2007.663)">		<stop offset="0" style="stop-color:#FF374C"></stop>		<stop offset="0.6314" style="stop-color:#3D0822"></stop>		<stop offset="0.7216" style="stop-color:#8A1C4F"></stop>		<stop offset="1" style="stop-color:#3D0B3B"></stop>	</linearGradient>	<path class="st13" d="M213.9,157.6l-42.5-21.9l-4-1.5l6.8-3c2.6-1.2,5.5-0.3,8,1.1l37.5,21.7L213.9,157.6L213.9,157.6z"></path>			<linearGradient id="SVGID_17_" gradientUnits="userSpaceOnUse" x1="9466.6338" y1="32598.748" x2="7990.7358" y2="28940.0078" gradientTransform="matrix(7.200000e-02 0 0 7.200000e-02 -397.184 -2007.663)">		<stop offset="0" style="stop-color:#FF374C"></stop>		<stop offset="0.5294" style="stop-color:#8A1C4F"></stop>		<stop offset="1" style="stop-color:#3D0B3B"></stop>	</linearGradient>	<path class="st14" d="M299.9,198.1l-0.5,95.3c0,8.5-7.3,17.1-15.5,11.9l-110-68.8c-5.4-3.4-10.1-10.4-10-16l0.4-81  c0-2.2,1.1-4.1,3.1-5.2c1.9-1.1,4.1-1.1,6.1,0l35.9,20.8c2.9,1.6,6.1,1.6,8.9-0.1l7.3-4.5c2.8-1.7,6.1-1.8,8.9-0.1l55.2,31.9  C295.4,185.3,299.9,192.5,299.9,198.1L299.9,198.1z"></path>			<linearGradient id="SVGID_18_" gradientUnits="userSpaceOnUse" x1="8674.6387" y1="29030.7207" x2="8283.8203" y2="30528.8535" gradientTransform="matrix(7.200000e-02 0 0 7.200000e-02 -397.184 -2007.663)">		<stop offset="0" style="stop-color:#FFFFFF"></stop>		<stop offset="1" style="stop-color:#C9C9C9"></stop>	</linearGradient>	<path class="st15" d="M259.9,140.9c5.4,25.8,0.9,49.4,2.2,74.1c0.1,1.3,0.1,4.1-1.3,3.5l-97.4-43c-4.2-1.9-4.2-5.3-4-9.8  c1.6-30.7,1.9-50.6-3.9-73.4c-0.4-1.7,0.1-2.2,1.4-1.6l100,43.6C258,134.9,258.9,136.5,259.9,140.9L259.9,140.9z"></path>	<g>					<image style="overflow:visible;opacity:0.3;enable-background:new    ;" width="126" height="159" xlink:href="7BA07A930D43C1F2.png" transform="matrix(1 0 0 1 164.9945 117.0009)">		</image>		<g>							<linearGradient id="SVGID_19_" gradientUnits="userSpaceOnUse" x1="8968.5869" y1="29964.2637" x2="8407.0859" y2="31306.1875" gradientTransform="matrix(7.200000e-02 0 0 7.200000e-02 -397.184 -2007.663)">				<stop offset="0" style="stop-color:#FFFFFF"></stop>				<stop offset="1" style="stop-color:#C9C9C9"></stop>			</linearGradient>			<path class="st16" d="M284.4,171.1c5.6,23,7.8,60.5,1,98.6c-0.3,1.7-0.1,5.4-1.8,4.8l-108.8-40.8c-4.7-1.8-5.6-4.4-3.7-9.9    c11.4-33.8,9.8-63.4,1.4-94.6c-0.6-2.2-2.6-8.3,0.9-7L281,161.9C282.3,162.3,283,165.3,284.4,171.1L284.4,171.1z"></path>		</g>	</g>	<defs>		<filter id="Adobe_OpacityMaskFilter" filterUnits="userSpaceOnUse" x="170.2" y="145.9" width="119.4" height="128.7">					</filter>	</defs>	<mask maskUnits="userSpaceOnUse" x="170.2" y="145.9" width="119.4" height="128.7" id="id5_2_">					<linearGradient id="SVGID_20_" gradientUnits="userSpaceOnUse" x1="6491.2954" y1="26712.1504" x2="8910.0557" y2="31173.4238" gradientTransform="matrix(7.200000e-02 0 0 7.200000e-02 -397.184 -2007.663)">			<stop offset="0" style="stop-color:#FFFFFF"></stop>			<stop offset="1" style="stop-color:#FFFFFF;stop-opacity:0"></stop>		</linearGradient>		<rect x="170.2" y="145.9" class="st17" width="119.4" height="128.7"></rect>	</mask>	<path class="st18" d="M289.4,211.4c0.6,17.9-0.4,38-4,58.4c-0.3,1.7-0.1,5.4-1.8,4.8l-108.8-40.8c-4.7-1.8-5.6-4.4-3.7-9.9  c9.4-27.7,10-52.7,5.2-77.9l106.9,60C285.6,207.1,287.7,209.1,289.4,211.4L289.4,211.4z"></path>			<linearGradient id="SVGID_21_" gradientUnits="userSpaceOnUse" x1="9488.7637" y1="30115.9316" x2="7665.7642" y2="32092.9355" gradientTransform="matrix(7.200000e-02 0 0 7.200000e-02 -397.184 -2007.663)">		<stop offset="0" style="stop-color:#FF374C"></stop>		<stop offset="0.6314" style="stop-color:#3D0822"></stop>		<stop offset="0.7216" style="stop-color:#8A1C4F"></stop>		<stop offset="1" style="stop-color:#3D0B3B"></stop>	</linearGradient>	<path class="st19" d="M285.8,231.5l-0.5,70.9c0,6.2,14.1,2.3,14.1-9l0-7.9l0.5-87.4c0-5.6-4.5-12.8-10-16l-3.6-2.1  c-0.6-2.8-0.9-5.3-1.6-7.8l11.8,6.8c5.6,3.2,10,10.4,10,16l-0.5,95.3c-0.1,22.1-23.4,26.2-31.5,22.6l0,0c2.6-1.3,4.3-4.1,4.3-8.2  l0.5-70.1c0-5.6-4.5-12.8-10-16L204.1,181L154,152.1c-2.8-1.6-5.4-1.9-7.3-1.1l0,0c1.6-0.7,6.3-3.2,7.7-3.5l0,0l0,0  c1.7-0.3,3.8,0.1,6.1,1.5l115.2,66.5C281.4,218.7,285.9,225.9,285.8,231.5L285.8,231.5z"></path>			<linearGradient id="SVGID_22_" gradientUnits="userSpaceOnUse" x1="8786.8145" y1="30649.3145" x2="8229.6865" y2="31614.2852" gradientTransform="matrix(7.200000e-02 0 0 7.200000e-02 -397.184 -2007.663)">		<stop offset="0" style="stop-color:#FF6600"></stop>		<stop offset="1" style="stop-color:#FF00A6"></stop>	</linearGradient>	<path class="st20" d="M279.3,234.6l-0.4,68.7c-0.2,5.1,2.5,9.4,8.4,9.6c-7,3.1-15.5-0.3-24-5.2l-109.9-63.5  c-5.6-3.2-10.1-10.4-10-16l0.5-71.9c0-5.6,4.6-7.5,10.2-4.3l115.2,66.5C274.8,221.8,279.3,229,279.3,234.6L279.3,234.6z"></path>			<linearGradient id="SVGID_23_" gradientUnits="userSpaceOnUse" x1="10598.8379" y1="30979.1738" x2="9210.7891" y2="32449.1113" gradientTransform="matrix(7.200000e-02 0 0 7.200000e-02 -397.184 -2007.663)">		<stop offset="0" style="stop-color:#FF374C"></stop>		<stop offset="0.6314" style="stop-color:#3D0822"></stop>		<stop offset="0.7216" style="stop-color:#8A1C4F"></stop>		<stop offset="1" style="stop-color:#3D0B3B"></stop>	</linearGradient>	<polygon class="st21" points="260,276.1 369.6,212.8 381.5,212.3 377.6,269.4 260,337.3  "></polygon>			<linearGradient id="SVGID_24_" gradientUnits="userSpaceOnUse" x1="8988.3711" y1="30873.4727" x2="7439.6743" y2="32427.8418" gradientTransform="matrix(7.200000e-02 0 0 7.200000e-02 -397.184 -2007.663)">		<stop offset="0" style="stop-color:#A37F83"></stop>		<stop offset="0.6314" style="stop-color:#3D0822"></stop>		<stop offset="0.7216" style="stop-color:#8A1C4F"></stop>		<stop offset="1" style="stop-color:#3D0B3B"></stop>	</linearGradient>	<polygon class="st22" points="264.7,273.4 143.5,203.4 129.1,202.4 129.9,256.7 264.7,334.6  "></polygon>			<linearGradient id="SVGID_25_" gradientUnits="userSpaceOnUse" x1="9277.7344" y1="31266.5664" x2="12586.1836" y2="33391.832" gradientTransform="matrix(7.200000e-02 0 0 7.200000e-02 -397.184 -2007.663)">		<stop offset="0" style="stop-color:#FF374C"></stop>		<stop offset="0.6314" style="stop-color:#3D0822"></stop>		<stop offset="0.7216" style="stop-color:#8A1C4F"></stop>		<stop offset="1" style="stop-color:#3D0B3B"></stop>	</linearGradient>	<polygon class="st23" points="263.9,280.2 381.5,212.3 381.5,273.5 263.9,341.4  "></polygon>	<g>		<path class="st24" d="M182.2,202.9c1.7,1,5,2.9,6.5,3.8c0.3,0,0.4-0.2,0.4-0.6v-1.2c0-0.2,0-0.4-0.1-0.5c-0.1-0.2-0.2-0.4-0.4-0.6   l-2.7-2.6l0,0c-0.3-0.4-0.6-0.8-0.8-1.3c-0.2-0.5-0.3-1-0.3-1.4v-5.2l-2.6-1.5c-0.5-0.3-1,0-1,0.8v8.6   C181.2,201.7,181.6,202.5,182.2,202.9L182.2,202.9z M189.1,206.9c0.1,0.1,0.5,0.3,0.6,0.3c0.5,0.3,1,0,1-0.7v-10.2   c0-0.7-0.6-1.6-1.1-1.9l-0.4-0.2l-3.6-2.1c-0.2-0.1-0.4,0-0.4,0.3v0.6v5.6c0,0.4,0.1,0.7,0.2,1c0.2,0.4,0.4,0.7,0.6,1l2.7,2.6   c0.2,0.2,0.4,0.5,0.6,0.9c0.1,0.3,0.2,0.6,0.2,0.9v1.2C189.5,206.5,189.5,206.9,189.1,206.9L189.1,206.9z M189.2,200.9   c0.2,0.1,0.3,0.4,0.3,0.6c0,0.2-0.1,0.3-0.3,0.2s-0.3-0.4-0.3-0.6C188.9,200.9,189,200.8,189.2,200.9z"></path>		<path class="st24" d="M198.7,209.4l-2.8-1.6c-0.4-0.2-0.5-0.4-0.5-1v-2.1l3.1,1.8v-1.4l-1.7-1l-1.5-0.9c0-0.9,0-1.7,0-2.5   c1,0.6,2.2,1.3,3.2,1.9v-1.4c-1.5-0.9-3-1.7-4.4-2.6v8.2c0,1.1,0.3,1.6,0.9,1.9l3.6,2.1L198.7,209.4L198.7,209.4z M250.8,240.9   v-1.2l-1.8-1.1c-0.9-0.5-1.2-1.4-1.2-2.5l1.6,0.9l0.7,0.4l0.8,0.5v-1.1c0-0.1,0-0.1,0-0.2c0-2.3-0.8-3.3-2.2-4.1   c-1.7-1-2.2-0.4-2.2,2.4c0,2.3,0.4,3.9,2,4.8L250.8,240.9L250.8,240.9z M247.8,234.9c0-1.2,0.1-1.7,1-1.2c0.4,0.2,0.7,0.6,0.9,1.2   c0.1,0.4,0.1,0.8,0.1,1.1l-0.3-0.1l-0.1,0l-0.6-0.4L247.8,234.9L247.8,234.9z M242.7,229l-1.2-0.7l1.5,7.5   c0.1,0.8,0.5,1.1,0.9,1.3c0.4,0.2,0.8,0.3,0.9-0.2l1.5-5.7l-1.2-0.7l-1.1,4.8c0,0.2-0.1,0.2-0.1,0.2c-0.1,0-0.1-0.2-0.1-0.4   L242.7,229L242.7,229z M239.9,234.6l1.2,0.7V228l-1.2-0.7V234.6z M241,227.1v-1.5l-1.2-0.7v1.5L241,227.1z M236.8,232.8l1.2,0.7   v-4.1c0-1.3,0.2-1.8,1.2-1.2l0.2,0.1V227l-0.5-0.3c-1.4-0.8-2.1-0.4-2.1,1.6V232.8L236.8,232.8z M233.5,230.9   c2.2,1.3,2.4-1.1,2.4-3.4s-0.2-4.9-2.6-6.3c-1-0.6-1.7-1-2.7-1.6c0,3.2,0,6.4,0,9.6C231.7,229.9,232.5,230.3,233.5,230.9   L233.5,230.9z M233.2,222.6c1.4,0.9,1.5,2.4,1.5,4.2s-0.1,3.2-1.5,2.5c0,0-1.2-0.7-1.4-0.8v-6.1v-0.7   C232,221.9,233.2,222.6,233.2,222.6z M229.4,228.6v-1.2l-0.1-0.1c-0.8-0.5-1-1-1-2.1v-3.3l1.1,0.6v-1.2l-1.1-0.6v-2.3l-1.2-0.7   v2.3l-0.6-0.4v1.2l0.6,0.4v3.7c0,1.8,0.6,2.7,1.8,3.4L229.4,228.6L229.4,228.6z M221.8,224.2l1.2,0.7v-3v-1.4v-1.6   c0.1,0.1,0.8,0.5,0.8,0.5c0.7,0.5,1,1.2,1,2.2v4.4l1.2,0.7v-4.8c0-1.9-0.9-3-2.1-3.7c-0.7-0.4-1.4-0.8-2.1-1.2   C221.8,219.3,221.8,221.7,221.8,224.2L221.8,224.2z M217.1,214.2v1.2l1.8,1.1c0.5,0.3,0.8,0.8,0.8,1.5v0.5l-1.6-0.9   c-0.9-0.5-1.3,0.1-1.3,1.5c0,1.5,0.4,2.5,1.3,3l1.9,1.1c0,0,0.1,0,0.1,0l0.8,0.5c0-1.7,0-3.4,0-5.1c0-1.2-0.5-2.4-1.5-3   L217.1,214.2L217.1,214.2z M219.7,219.6v0.3v0.3v1v0.4l-0.3-0.2l-0.4-0.2l-0.4-0.2c-0.4-0.2-0.6-0.7-0.6-1.4s0.2-0.9,0.6-0.7   L219.7,219.6z M211.7,218.3l1.2,0.7V213l0.7,0.4c0.8,0.5,1.1,1.2,1.1,2.3v4.4l1.2,0.7V216c0-1.9-0.9-3-2.1-3.7l-0.9-0.5v-2.3   l-1.2-0.7L211.7,218.3L211.7,218.3z M206.6,217.7l1.2,0.7V216l1.1,0.6c1.7,1,2.1-0.2,2.1-2.4s-0.4-3.9-2.1-4.8   c-0.8-0.4-1.5-0.9-2.3-1.3C206.6,211.3,206.6,214.5,206.6,217.7L206.6,217.7z M208.1,210.2l0.5,0.3c1.1,0.7,1.2,1.7,1.2,3.1   c0,1.4,0,2.4-1.2,1.7l-0.8-0.5c0-1.6,0-3.2,0-4.8L208.1,210.2L208.1,210.2z M205.6,214.8v-1.2l-1.8-1.1c-0.9-0.5-1.2-1.4-1.2-2.5   l1.6,0.9l0.7,0.4l0.8,0.5v-1.1c0-0.1,0-0.1,0-0.2c0-2.3-0.8-3.3-2.2-4.1c-1.7-1-2.2-0.4-2.2,2.4c0,2.3,0.4,3.9,2,4.8L205.6,214.8   L205.6,214.8z M202.7,208.7c0-1.2,0.1-1.7,1-1.2c0.4,0.2,0.7,0.6,0.9,1.2c0.1,0.4,0.1,0.8,0.1,1.1l-0.3-0.1l-0.1,0l-0.6-0.4   L202.7,208.7L202.7,208.7z M199.5,211.2l1.2,0.7v-9.6l-1.2-0.7V211.2z"></path>	</g>			<linearGradient id="SVGID_26_" gradientUnits="userSpaceOnUse" x1="7309.5005" y1="31660.875" x2="9181.8613" y2="31660.875" gradientTransform="matrix(7.200000e-02 0 0 7.200000e-02 -397.184 -2007.663)">		<stop offset="0" style="stop-color:#FF6600"></stop>		<stop offset="1" style="stop-color:#FF00A6"></stop>	</linearGradient>	<polygon class="st25" points="263.9,280.2 129.1,202.4 129.1,263.6 263.9,341.4  "></polygon>	<defs>		<filter id="Adobe_OpacityMaskFilter_1_" filterUnits="userSpaceOnUse" x="93.3" y="168" width="104.8" height="139.3">					</filter>	</defs>	<mask maskUnits="userSpaceOnUse" x="93.3" y="168" width="104.8" height="139.3" id="id7_2_">					<linearGradient id="SVGID_27_" gradientUnits="userSpaceOnUse" x1="7536.9409" y1="29907.6094" x2="7541.5532" y2="32036.1484" gradientTransform="matrix(7.200000e-02 0 0 7.200000e-02 -397.184 -2007.663)">			<stop offset="0" style="stop-color:#FFFFFF"></stop>			<stop offset="1" style="stop-color:#FFFFFF;stop-opacity:0"></stop>		</linearGradient>		<rect x="93.3" y="168" class="st26" width="104.8" height="139.3"></rect>	</mask>	<path class="st27" d="M196.7,212.9c0.8,3.3,1.2,6.8,1.3,10.5c0.1,3.7-0.2,7.6-0.8,11.4c-2.7,16.7-11.7,33.1-23.9,46.1l0,0  c-12.3,12.9-27.9,22.4-43.8,25.4c-14.9,2.7-27.5-0.7-36.2-8.5c8.6-6.7,16-15,21.6-24.4c4.6,4.1,11.3,5.9,19.2,4.4  c8.5-1.6,16.8-6.6,23.3-13.4l0.1,0c6.5-6.8,11.2-15.5,12.6-24.4c0.3-2.1-5.4-16.9-5.5-18.8c-0.1-1.9,20.1-12,19.7-13.8L196.7,212.9  L196.7,212.9z M120.4,197.3c8.6-5.9,18-10.2,27.6-12.2l2.6-10.2c0.6-2.3,2.2-4.4,4.3-5.7s4.3-1.5,5.9-0.4l33.9,22.2  c1.6,1,2.1,2.9,1.5,5.3s-2.2,4.4-4.3,5.7L145,230.4c-2.2,1.3-4.3,1.5-5.9,0.4c-1.6-1-2.1-2.9-1.5-5.3l2.9-11.1  c-5,1.6-9.8,4.2-14.1,7.7C125.7,213.4,123.6,205.1,120.4,197.3L120.4,197.3z"></path>	<g>		<g>							<linearGradient id="SVGID_28_" gradientUnits="userSpaceOnUse" x1="7782.3521" y1="31417.3086" x2="6037.4951" y2="30827.0156" gradientTransform="matrix(7.200000e-02 0 0 7.200000e-02 -397.184 -2007.663)">				<stop offset="0" style="stop-color:#FF374C"></stop>				<stop offset="0.6314" style="stop-color:#3D0822"></stop>				<stop offset="0.7216" style="stop-color:#8A1C4F"></stop>				<stop offset="1" style="stop-color:#3D0B3B"></stop>			</linearGradient>			<path class="st28" d="M162.1,206.4c0.4,1.2,0.7,2.4,1,3.6c0.6,2.5,1,5.1,1.3,7.8c0.4,4,0.5,8.2,0.2,12.4    c-1.2,18.1-8.7,35.9-19.8,49.9l0,0c-11.1,14-20.3,29.9-36,33.1c-15.4,3.1-34.7-6.5-44.5-16.7c-9.5-9.8-14.8-25-13.6-43.2    c1.2-18.1,8.7-35.9,19.8-49.9l0,0c10.9-13.7,25.2-23.8,40.5-27.3l1.7-11.1c0.4-2.5,1.8-4.8,3.8-6.2c2-1.4,6.4-2.2,15.9,4.4    l29.1,20.2c1.6,1.1-0.9,2.2-1.3,4.8s-2.1,4.4-3.8,6.2L120.5,231c-2.7,2.7-14.8,2.3-14.3-12.8L106,208    c-6.9,2.4-13.2,7.2-18.2,13.5l-0.1,0c-5.9,7.4-9.8,16.8-10.5,26.5c-0.7,9.7,2.1,17.7,7.2,22.9l0,0.1c5,5.2,12.3,7.5,20.7,5.8    c8.4-1.7,16.2-7.1,22.1-14.6l0.1,0c5.9-7.4,9.8-16.8,10.5-26.5c0.1-2.3,0.1-4.5-0.1-6.5c-0.2-2.1-0.6-4.1-1.2-6.1L162.1,206.4    L162.1,206.4z"></path>							<linearGradient id="SVGID_29_" gradientUnits="userSpaceOnUse" x1="7399.6865" y1="30490.168" x2="7488.3828" y2="29677.4844" gradientTransform="matrix(7.200000e-02 0 0 7.200000e-02 -397.184 -2007.663)">				<stop offset="0" style="stop-color:#FF374C"></stop>				<stop offset="0.6314" style="stop-color:#3D0822"></stop>				<stop offset="0.7216" style="stop-color:#8A1C4F"></stop>				<stop offset="1" style="stop-color:#3D0B3B"></stop>			</linearGradient>			<path class="st29" d="M110.9,176.2l1.7-11.1c0.4-2.5,1.8-4.8,3.8-6.2c2-1.4,6.4-2.2,15.9,4.4l29.1,20.2c1.6,1.1-0.9,2.2-1.3,4.8    c-0.1,0.7-0.3,1.3-0.5,1.9l-38.5-9L110.9,176.2L110.9,176.2z"></path>							<linearGradient id="SVGID_30_" gradientUnits="userSpaceOnUse" x1="8471.6963" y1="32333.0566" x2="5550.0879" y2="29915.9238" gradientTransform="matrix(7.200000e-02 0 0 7.200000e-02 -397.184 -2007.663)">				<stop offset="0" style="stop-color:#FF6600"></stop>				<stop offset="0.4902" style="stop-color:#FF3157"></stop>				<stop offset="0.6" style="stop-color:#FF47AF"></stop>				<stop offset="0.702" style="stop-color:#FF1880"></stop>				<stop offset="1" style="stop-color:#FF00A6"></stop>			</linearGradient>			<path class="st30" d="M172.1,211.3c1.1,3.6,1.8,7.4,2.3,11.4c0.4,4,0.5,8.2,0.2,12.4c-1.2,18.1-8.7,35.9-19.8,49.9l0,0    c-11.1,14-25.9,24.3-41.6,27.5c-15.7,3.2-29.4-1.3-38.9-11.1l0,0c-9.5-9.8-14.8-25-13.6-43.2c1.2-18.1,8.7-35.9,19.8-49.9l0,0    c10.9-13.7,25.2-23.8,40.5-27.3l1.7-11.1c0.4-2.5,1.8-4.8,3.8-6.2c2-1.4,4.2-1.6,5.8-0.5l35.9,24.1c1.6,1.1,2.4,3.2,2,5.7    c-0.4,2.5-1.8,4.8-3.8,6.2l-44.3,30.9c-2,1.4-4.2,1.6-5.8,0.5c-1.7-1.1-2.4-3.2-2-5.7l1.9-12.1c-6.9,2.4-13.2,7.2-18.2,13.5    l-0.1,0c-5.9,7.4-9.8,16.8-10.5,26.5s2.1,17.7,7.2,22.9l0,0.1c5,5.2,12.3,7.5,20.7,5.8c8.4-1.7,16.2-7.1,22.1-14.6l0.1,0    c5.9-7.4,9.8-16.8,10.5-26.5c0.1-2.3,0.1-4.5-0.1-6.5c-0.2-2.1-0.6-4.1-1.2-6.1L172.1,211.3L172.1,211.3z"></path>							<linearGradient id="SVGID_31_" gradientUnits="userSpaceOnUse" x1="7778.4678" y1="31047.0723" x2="7496.1431" y2="30699.3535" gradientTransform="matrix(7.200000e-02 0 0 7.200000e-02 -397.184 -2007.663)">				<stop offset="0" style="stop-color:#FF374C"></stop>				<stop offset="0.6314" style="stop-color:#3D0822"></stop>				<stop offset="0.7216" style="stop-color:#8A1C4F"></stop>				<stop offset="1" style="stop-color:#3D0B3B"></stop>			</linearGradient>			<polygon class="st31" points="172.1,211.3 146.6,227.9 136.5,223.1 162.1,206.4    "></polygon>		</g>		<path class="st32" d="M96.2,254c-1.2-1.1-1.4-5.1,0.3-7.4c1.8-2.5,4.9-2.7,6.1-1.6l8.4,8l16.1-22.9c1.7-2.4,4.6-2.8,5.8-1.6   c1.2,1.1,0.8,4-0.9,6.4l-19.5,27.6c-1.7,2.4-4,3.4-5.2,2.2L96.2,254L96.2,254z"></path>					<linearGradient id="SVGID_32_" gradientUnits="userSpaceOnUse" x1="6594.9736" y1="31782.7871" x2="7660.8232" y2="30776.6016" gradientTransform="matrix(7.200000e-02 0 0 7.200000e-02 -397.184 -2007.663)">			<stop offset="0" style="stop-color:#FF6600"></stop>			<stop offset="0.4902" style="stop-color:#FF3157"></stop>			<stop offset="0.6" style="stop-color:#FF47AF"></stop>			<stop offset="0.702" style="stop-color:#FF1880"></stop>			<stop offset="1" style="stop-color:#FF00A6"></stop>		</linearGradient>		<path class="st33" d="M97.7,253.8c-1.1-1.1-1.6-4.4-0.1-6.6c1.7-2.3,4.6-2.6,5.8-1.5l8.5,8.1l16.4-23.2c1.6-2.2,3.8-3.2,4.9-2.1   c1.1,1.1,0.8,3.8-0.8,6l-19.2,27.3c-1.6,2.2-3.8,3.2-4.9,2.1L97.7,253.8L97.7,253.8z"></path>	</g>			<linearGradient id="SVGID_33_" gradientUnits="userSpaceOnUse" x1="8223.8994" y1="31644.3848" x2="8391.1719" y2="31288.2422" gradientTransform="matrix(7.200000e-02 0 0 7.200000e-02 -397.184 -2007.663)">		<stop offset="0" style="stop-color:#FF374C"></stop>		<stop offset="0.6314" style="stop-color:#3D0822"></stop>		<stop offset="0.7216" style="stop-color:#8A1C4F"></stop>		<stop offset="1" style="stop-color:#3D0B3B"></stop>	</linearGradient>	<path class="st34" d="M214.8,261.8l-25.7-14.8c-5.7-3.3-6.9,6.2-2.2,8.9l25.9,14.9C217.3,273.4,219.3,264.4,214.8,261.8  L214.8,261.8z"></path>	<g>					<linearGradient id="SVGID_34_" gradientUnits="userSpaceOnUse" x1="9727.2363" y1="29684.2754" x2="9815.9629" y2="29684.2754" gradientTransform="matrix(7.200000e-02 0 0 7.200000e-02 -397.184 -2007.663)">			<stop offset="0" style="stop-color:#FF6600"></stop>			<stop offset="1" style="stop-color:#FF00A6"></stop>		</linearGradient>		<path class="st35" d="M303.8,131.4c1.1,0.7,3.4,1.9,4.4,2.5c0.2,0,0.3-0.1,0.3-0.3v-0.7c0-0.1,0-0.2-0.1-0.3   c-0.1-0.1-0.2-0.3-0.3-0.4l-1.8-1.7l0,0c-0.2-0.2-0.4-0.5-0.5-0.8c-0.1-0.3-0.2-0.6-0.2-0.8v-3l-1.7-1c-0.4-0.2-0.6,0-0.6,0.4v5   C303.2,130.7,303.5,131.2,303.8,131.4L303.8,131.4z M308.5,134.1c0.1,0.1,0.3,0.2,0.4,0.2c0.4,0.2,0.7,0.1,0.7-0.4V128   c0-0.4-0.4-1-0.7-1.2l-0.3-0.2l-2.4-1.4c-0.2-0.1-0.3,0-0.3,0.2v0.4v3.3c0,0.2,0.1,0.4,0.1,0.6c0.1,0.2,0.3,0.4,0.4,0.6l1.8,1.7   c0.1,0.2,0.3,0.3,0.4,0.5c0.1,0.2,0.1,0.4,0.1,0.5v0.7C308.8,133.9,308.8,134.2,308.5,134.1L308.5,134.1z M308.6,130.7   c0.1,0.1,0.2,0.2,0.2,0.4s-0.1,0.2-0.2,0.1c-0.1-0.1-0.2-0.2-0.2-0.4C308.4,130.6,308.5,130.6,308.6,130.7z"></path>		<path class="st24" d="M315,136.1l-1.9-1.1c-0.3-0.2-0.3-0.3-0.3-0.6v-1.2l2.1,1.2v-0.8l-1.1-0.6l-1-0.6c0-0.5,0-1,0-1.5   c0.7,0.4,1.5,0.9,2.2,1.3v-0.8c-1-0.6-2-1.1-3-1.7v4.7c0,0.6,0.2,0.9,0.6,1.2l2.4,1.4L315,136.1L315,136.1z M350.2,157.2v-0.7   l-1.2-0.7c-0.6-0.4-0.8-0.9-0.8-1.5l1.1,0.6l0.5,0.3l0.6,0.3v-0.7c0,0,0-0.1,0-0.1c0-1.4-0.5-2-1.5-2.5c-1.2-0.7-1.5-0.4-1.5,1.3   c0,1.4,0.3,2.3,1.4,2.9L350.2,157.2L350.2,157.2z M348.2,153.5c0-0.7,0.1-1,0.6-0.7c0.3,0.2,0.5,0.4,0.6,0.7c0.1,0.2,0,0.5,0,0.7   l-0.2-0.1l0,0l-0.4-0.2L348.2,153.5L348.2,153.5z M344.7,149.8l-0.8-0.5l1,4.4c0.1,0.4,0.4,0.7,0.6,0.8c0.3,0.2,0.5,0.2,0.6-0.1   l1-3.2l-0.8-0.5l-0.7,2.7c0,0.1,0,0.1-0.1,0.1c0,0-0.1-0.1-0.1-0.2L344.7,149.8L344.7,149.8z M342.8,152.9l0.8,0.5v-4.2l-0.8-0.5   V152.9z M343.6,148.6v-0.9l-0.8-0.5v0.9L343.6,148.6L343.6,148.6z M340.7,151.7l0.8,0.5v-2.4c0-0.8,0.2-1,0.8-0.7l0.1,0.1v-0.7   l-0.3-0.2c-1-0.6-1.4-0.4-1.4,0.8L340.7,151.7L340.7,151.7z M338.5,150.5c1.5,0.9,1.6-0.5,1.6-1.9c0-1.4-0.1-2.9-1.8-3.8   c-0.7-0.4-1.1-0.7-1.8-1.1c0,1.9,0,3.7,0,5.6C337.3,149.8,337.8,150.1,338.5,150.5L338.5,150.5z M338.3,145.6c1,0.6,1,1.5,1,2.5   c0,1.1,0,1.9-1,1.4c0,0-0.8-0.5-0.9-0.5v-3.5v-0.4C337.5,145.1,338.3,145.6,338.3,145.6L338.3,145.6z M335.7,148.9v-0.7l0,0   c-0.5-0.3-0.7-0.6-0.7-1.3v-1.9l0.8,0.4v-0.7l-0.8-0.4v-1.4l-0.8-0.5v1.4l-0.4-0.2v0.7l0.4,0.2v2.1c0,1,0.4,1.6,1.2,2.1   L335.7,148.9L335.7,148.9z M330.6,145.9l0.8,0.5v-1.8v-0.8v-0.9c0.1,0,0.5,0.3,0.5,0.3c0.5,0.3,0.7,0.8,0.7,1.4v2.5l0.8,0.5v-2.8   c0-1.1-0.6-1.8-1.4-2.3c-0.5-0.3-0.9-0.5-1.4-0.8C330.6,143.1,330.6,144.5,330.6,145.9L330.6,145.9z M327.4,139.9v0.7l1.2,0.7   c0.3,0.2,0.5,0.5,0.5,0.9v0.3l-1.1-0.6c-0.6-0.4-0.9,0-0.9,0.8c0,0.9,0.3,1.5,0.9,1.8l1.3,0.7c0,0,0,0,0,0l0.6,0.3c0-1,0-2,0-3   c0-0.7-0.3-1.4-1-1.8L327.4,139.9L327.4,139.9z M329.1,143.2v0.2v0.2v0.6v0.2l-0.2-0.1l-0.3-0.2l-0.3-0.2   c-0.3-0.2-0.4-0.4-0.4-0.8c0-0.4,0.1-0.5,0.4-0.4L329.1,143.2L329.1,143.2z M323.8,142l0.8,0.5v-3.5l0.5,0.3   c0.5,0.3,0.8,0.8,0.8,1.4v2.5l0.8,0.5v-2.8c0-1.1-0.6-1.8-1.4-2.3l-0.6-0.4v-1.4l-0.8-0.5V142L323.8,142z M320.3,141.3l0.8,0.5   v-1.4l0.7,0.4c1.2,0.7,1.4,0,1.4-1.3s-0.2-2.2-1.4-2.9c-0.5-0.3-1-0.6-1.5-0.9C320.3,137.6,320.3,139.5,320.3,141.3z M321.3,137.1   l0.3,0.2c0.8,0.4,0.8,1.1,0.8,1.8c0,0.8,0,1.4-0.8,0.9l-0.5-0.3c0-0.9,0-1.9,0-2.8L321.3,137.1L321.3,137.1z M319.7,139.6v-0.7   l-1.2-0.7c-0.6-0.4-0.8-0.9-0.8-1.5l1.1,0.6l0.5,0.3l0.6,0.3v-0.7c0,0,0-0.1,0-0.1c0-1.4-0.5-2-1.5-2.5c-1.2-0.7-1.5-0.4-1.5,1.3   c0,1.4,0.3,2.3,1.4,2.9L319.7,139.6L319.7,139.6z M317.7,135.9c0-0.7,0.1-1,0.6-0.7c0.3,0.2,0.5,0.4,0.6,0.7c0.1,0.2,0,0.5,0,0.7   l-0.2-0.1l0,0l-0.4-0.2L317.7,135.9L317.7,135.9z M315.5,137.2l0.8,0.5v-5.6l-0.8-0.5V137.2z"></path>	</g>	<g>					<linearGradient id="SVGID_35_" gradientUnits="userSpaceOnUse" x1="9286.6143" y1="29890.1074" x2="9375.3408" y2="29890.1074" gradientTransform="matrix(7.200000e-02 0 0 7.200000e-02 -397.184 -2007.663)">			<stop offset="0" style="stop-color:#FF6600"></stop>			<stop offset="1" style="stop-color:#FF00A6"></stop>		</linearGradient>		<path class="st36" d="M272.1,146.2c1.1,0.7,3.4,1.9,4.4,2.5c0.2,0,0.3-0.1,0.3-0.3v-0.7c0-0.1,0-0.2-0.1-0.3   c-0.1-0.1-0.2-0.3-0.3-0.4l-1.8-1.7l0,0c-0.2-0.2-0.4-0.5-0.5-0.8c-0.1-0.3-0.2-0.6-0.2-0.8v-3l-1.7-1c-0.4-0.2-0.6,0-0.6,0.4v5   C271.5,145.5,271.8,146,272.1,146.2L272.1,146.2z M276.8,148.9c0.1,0.1,0.3,0.2,0.4,0.2c0.4,0.2,0.7,0.1,0.7-0.4v-5.9   c0-0.4-0.4-1-0.7-1.2l-0.3-0.1l-2.4-1.4c-0.2-0.1-0.3,0-0.3,0.2v0.4v3.3c0,0.2,0.1,0.4,0.1,0.6c0.1,0.2,0.3,0.4,0.4,0.6l1.8,1.7   c0.1,0.2,0.3,0.3,0.4,0.5c0.1,0.2,0.1,0.4,0.1,0.5v0.7C277,148.8,277,149,276.8,148.9L276.8,148.9z M276.8,145.5   c0.1,0.1,0.2,0.2,0.2,0.4s-0.1,0.2-0.2,0.1c-0.1-0.1-0.2-0.2-0.2-0.4C276.6,145.5,276.7,145.4,276.8,145.5z"></path>		<path class="st24" d="M283.3,150.9l-1.9-1.1c-0.3-0.2-0.3-0.3-0.3-0.6V148l2.1,1.2v-0.8l-1.1-0.6l-1-0.6c0-0.5,0-1,0-1.5   c0.7,0.4,1.5,0.9,2.2,1.3v-0.8c-1-0.6-2-1.1-3-1.7v4.7c0,0.6,0.2,0.9,0.6,1.2l2.4,1.4L283.3,150.9L283.3,150.9z M318.5,172v-0.7   l-1.2-0.7c-0.6-0.4-0.8-0.9-0.8-1.5l1.1,0.6l0.5,0.3l0.6,0.3v-0.7c0,0,0-0.1,0-0.1c0-1.4-0.5-2-1.5-2.5c-1.2-0.7-1.5-0.4-1.5,1.3   c0,1.4,0.3,2.3,1.4,2.9L318.5,172L318.5,172z M316.4,168.4c0-0.7,0.1-1,0.6-0.7c0.3,0.2,0.5,0.4,0.6,0.7c0.1,0.2,0,0.5,0,0.7   l-0.2-0.1l0,0l-0.4-0.2L316.4,168.4L316.4,168.4z M313,164.6l-0.8-0.5l1,4.4c0.1,0.4,0.4,0.7,0.6,0.8c0.3,0.2,0.5,0.2,0.6-0.1   l1-3.2l-0.8-0.5l-0.7,2.7c0,0.1,0,0.1-0.1,0.1c0,0-0.1-0.1-0.1-0.2L313,164.6L313,164.6z M311,167.8l0.8,0.5V164l-0.8-0.5V167.8z    M311.9,163.4v-0.9l-0.8-0.5v0.9L311.9,163.4z M309,166.6l0.8,0.5v-2.4c0-0.8,0.2-1,0.8-0.7l0.1,0.1v-0.7l-0.3-0.2   c-1-0.6-1.4-0.4-1.4,0.8L309,166.6L309,166.6z M306.8,165.3c1.5,0.9,1.6-0.5,1.6-1.9c0-1.4-0.1-2.9-1.8-3.8   c-0.7-0.4-1.1-0.7-1.8-1.1c0,1.9,0,3.7,0,5.6C305.6,164.6,306.1,164.9,306.8,165.3L306.8,165.3z M306.6,160.4c1,0.6,1,1.5,1,2.5   c0,1.1,0,1.9-1,1.4c0,0-0.8-0.5-0.9-0.5v-3.5v-0.4C305.7,160,306.6,160.4,306.6,160.4L306.6,160.4z M304,163.7V163l0,0   c-0.5-0.3-0.7-0.6-0.7-1.3v-1.9l0.8,0.4v-0.7l-0.8-0.4v-1.4l-0.8-0.5v1.4l-0.4-0.2v0.7l0.4,0.2v2.1c0,1,0.4,1.6,1.2,2.1L304,163.7   L304,163.7z M298.9,160.7l0.8,0.5v-1.8v-0.8v-0.9c0.1,0,0.5,0.3,0.5,0.3c0.5,0.3,0.7,0.8,0.7,1.4v2.5l0.8,0.5v-2.8   c0-1.1-0.6-1.8-1.4-2.3c-0.5-0.3-0.9-0.5-1.4-0.8C298.9,157.9,298.9,159.3,298.9,160.7L298.9,160.7z M295.7,154.7v0.7l1.2,0.7   c0.3,0.2,0.5,0.5,0.5,0.9v0.3l-1.1-0.6c-0.6-0.4-0.9,0-0.9,0.8c0,0.9,0.3,1.5,0.9,1.8l1.3,0.7c0,0,0,0,0,0l0.6,0.3c0-1,0-2,0-3   c0-0.7-0.3-1.4-1-1.8L295.7,154.7L295.7,154.7z M297.4,158v0.2v0.2v0.6v0.2l-0.2-0.1l-0.3-0.2l-0.3-0.2c-0.3-0.2-0.4-0.4-0.4-0.8   c0-0.4,0.1-0.5,0.4-0.4L297.4,158L297.4,158z M292.1,156.8l0.8,0.5v-3.5l0.5,0.3c0.5,0.3,0.8,0.8,0.8,1.4v2.5l0.8,0.5v-2.8   c0-1.1-0.6-1.8-1.4-2.3l-0.6-0.4v-1.4l-0.8-0.5V156.8L292.1,156.8z M288.6,156.2l0.8,0.5v-1.4l0.7,0.4c1.2,0.7,1.4,0,1.4-1.3   s-0.2-2.2-1.4-2.9c-0.5-0.3-1-0.6-1.5-0.9C288.6,152.4,288.6,154.3,288.6,156.2L288.6,156.2z M289.6,151.9l0.3,0.2   c0.8,0.4,0.8,1.1,0.8,1.8c0,0.8,0,1.4-0.8,0.9l-0.5-0.3c0-0.9,0-1.9,0-2.8L289.6,151.9L289.6,151.9z M288,154.4v-0.7l-1.2-0.7   c-0.6-0.4-0.8-0.9-0.8-1.5l1.1,0.6l0.5,0.3l0.6,0.3V152c0,0,0-0.1,0-0.1c0-1.4-0.5-2-1.5-2.5c-1.2-0.7-1.5-0.4-1.5,1.3   c0,1.4,0.3,2.3,1.4,2.9L288,154.4L288,154.4z M285.9,150.8c0-0.7,0.1-1,0.6-0.7c0.3,0.2,0.5,0.4,0.6,0.7c0.1,0.2,0,0.5,0,0.7   l-0.2-0.1l0,0l-0.4-0.2L285.9,150.8L285.9,150.8z M283.8,152l0.8,0.5v-5.6l-0.8-0.5V152z"></path>	</g></g></svg>