<svg xmlns="http://www.w3.org/2000/svg" xmlns:xlink="http://www.w3.org/1999/xlink" id="Layer_1" x="0px" y="0px" viewBox="0 0 432 432" style="enable-background:new 0 0 432 432;" xml:space="preserve"><style type="text/css">	.st0{fill:#F8ECE5;}	.st1{fill-rule:evenodd;clip-rule:evenodd;fill:url(#SVGID_2_);}	.st2{fill-rule:evenodd;clip-rule:evenodd;fill:url(#SVGID_3_);}	.st3{fill-rule:evenodd;clip-rule:evenodd;fill:url(#SVGID_5_);}	.st4{fill-rule:evenodd;clip-rule:evenodd;fill:url(#SVGID_6_);}	.st5{fill-rule:evenodd;clip-rule:evenodd;fill:url(#SVGID_7_);}	.st6{fill-rule:evenodd;clip-rule:evenodd;fill:#E6E6E6;}	.st7{fill-rule:evenodd;clip-rule:evenodd;fill:url(#SVGID_8_);}	.st8{fill-rule:evenodd;clip-rule:evenodd;fill:url(#SVGID_10_);}	.st9{fill-rule:evenodd;clip-rule:evenodd;fill:url(#SVGID_11_);}	.st10{fill-rule:evenodd;clip-rule:evenodd;fill:url(#SVGID_12_);}	.st11{fill-rule:evenodd;clip-rule:evenodd;fill:url(#SVGID_13_);}	.st12{fill-rule:evenodd;clip-rule:evenodd;fill:url(#SVGID_15_);}	.st13{fill-rule:evenodd;clip-rule:evenodd;fill:url(#SVGID_16_);}	.st14{fill-rule:evenodd;clip-rule:evenodd;fill:url(#SVGID_17_);}	.st15{fill-rule:evenodd;clip-rule:evenodd;fill:url(#SVGID_18_);}	.st16{fill-rule:evenodd;clip-rule:evenodd;fill:url(#SVGID_19_);}	.st17{fill-rule:evenodd;clip-rule:evenodd;fill:url(#SVGID_20_);filter:url(#Adobe_OpacityMaskFilter);}	.st18{mask:url(#id5_2_);fill-rule:evenodd;clip-rule:evenodd;fill:#2E1A24;}	.st19{fill-rule:evenodd;clip-rule:evenodd;fill:url(#SVGID_21_);}	.st20{fill-rule:evenodd;clip-rule:evenodd;fill:url(#SVGID_22_);}	.st21{fill-rule:evenodd;clip-rule:evenodd;fill:url(#SVGID_23_);}	.st22{fill-rule:evenodd;clip-rule:evenodd;fill:url(#SVGID_24_);}	.st23{fill-rule:evenodd;clip-rule:evenodd;fill:url(#SVGID_25_);}	.st24{fill:#FFFFFF;}	.st25{fill-rule:evenodd;clip-rule:evenodd;fill:url(#SVGID_26_);}	.st26{fill-rule:evenodd;clip-rule:evenodd;fill:url(#SVGID_27_);filter:url(#Adobe_OpacityMaskFilter_1_);}	.st27{mask:url(#id7_2_);fill-rule:evenodd;clip-rule:evenodd;fill:#2E1A24;}	.st28{fill-rule:evenodd;clip-rule:evenodd;fill:url(#SVGID_28_);}	.st29{fill-rule:evenodd;clip-rule:evenodd;fill:url(#SVGID_29_);}	.st30{fill-rule:evenodd;clip-rule:evenodd;fill:url(#SVGID_30_);}	.st31{fill-rule:evenodd;clip-rule:evenodd;fill:url(#SVGID_31_);}	.st32{fill-rule:evenodd;clip-rule:evenodd;fill:#2E1A24;}	.st33{fill-rule:evenodd;clip-rule:evenodd;fill:url(#SVGID_32_);}	.st34{fill-rule:evenodd;clip-rule:evenodd;fill:url(#SVGID_33_);}	.st35{fill:url(#SVGID_34_);}	.st36{fill:url(#SVGID_35_);}	.st37{clip-path:url(#SVGID_37_);}	.st38{clip-path:url(#SVGID_39_);}	.st39{fill-rule:evenodd;clip-rule:evenodd;fill:url(#SVGID_40_);}	.st40{clip-path:url(#SVGID_42_);fill-rule:evenodd;clip-rule:evenodd;fill:url(#SVGID_43_);}	.st41{clip-path:url(#SVGID_45_);}	.st42{fill-rule:evenodd;clip-rule:evenodd;fill:url(#SVGID_46_);}	.st43{clip-path:url(#SVGID_50_);}	.st44{fill-rule:evenodd;clip-rule:evenodd;fill:url(#SVGID_51_);}	.st45{filter:url(#Adobe_OpacityMaskFilter_2_);}	.st46{clip-path:url(#SVGID_53_);}	.st47{clip-path:url(#SVGID_55_);fill:url(#SVGID_56_);}	.st48{clip-path:url(#SVGID_53_);mask:url(#SVGID_14_);fill-rule:evenodd;clip-rule:evenodd;fill:#1A1A1A;}	.st49{clip-path:url(#SVGID_58_);}	.st50{fill-rule:evenodd;clip-rule:evenodd;fill:url(#SVGID_59_);}	.st51{clip-path:url(#SVGID_61_);fill-rule:evenodd;clip-rule:evenodd;fill:#FFFFFF;}	.st52{clip-path:url(#SVGID_63_);}	.st53{fill-rule:evenodd;clip-rule:evenodd;fill:url(#SVGID_64_);}	.st54{clip-path:url(#SVGID_66_);}	.st55{fill-rule:evenodd;clip-rule:evenodd;fill:url(#SVGID_67_);}	.st56{clip-path:url(#SVGID_69_);}	.st57{fill-rule:evenodd;clip-rule:evenodd;fill:url(#SVGID_70_);}	.st58{clip-path:url(#SVGID_72_);}	.st59{fill-rule:evenodd;clip-rule:evenodd;fill:url(#SVGID_73_);}	.st60{clip-path:url(#SVGID_75_);}	.st61{fill-rule:evenodd;clip-rule:evenodd;fill:url(#SVGID_76_);}	.st62{clip-path:url(#SVGID_78_);}	.st63{fill-rule:evenodd;clip-rule:evenodd;fill:url(#SVGID_79_);}	.st64{clip-path:url(#SVGID_81_);fill-rule:evenodd;clip-rule:evenodd;}	.st65{clip-path:url(#SVGID_83_);}	.st66{clip-path:url(#SVGID_85_);fill:url(#SVGID_86_);}	.st67{clip-path:url(#SVGID_88_);}	.st68{clip-path:url(#SVGID_90_);fill:url(#SVGID_91_);}	.st69{clip-path:url(#SVGID_93_);fill-rule:evenodd;clip-rule:evenodd;}	.st70{clip-path:url(#SVGID_95_);fill:none;stroke:#000000;stroke-width:0.4799;stroke-miterlimit:2.6131;}	.st71{clip-path:url(#SVGID_97_);}	.st72{clip-path:url(#SVGID_99_);fill:url(#SVGID_100_);}	.st73{clip-path:url(#SVGID_102_);fill:none;stroke:#000000;stroke-width:0.4799;stroke-miterlimit:2.6131;}	.st74{clip-path:url(#SVGID_104_);}	.st75{fill-rule:evenodd;clip-rule:evenodd;fill:url(#SVGID_105_);}	.st76{clip-path:url(#SVGID_107_);}	.st77{fill-rule:evenodd;clip-rule:evenodd;fill:url(#SVGID_108_);}	.st78{clip-path:url(#SVGID_110_);}	.st79{fill-rule:evenodd;clip-rule:evenodd;fill:url(#SVGID_111_);}	.st80{clip-path:url(#SVGID_113_);fill:#FEFEFE;}	.st81{clip-path:url(#SVGID_115_);}	.st82{fill:url(#SVGID_116_);}	.st83{clip-path:url(#SVGID_118_);}	.st84{fill:url(#SVGID_119_);}	.st85{clip-path:url(#SVGID_121_);fill:#FEFEFE;}	.st86{fill-rule:evenodd;clip-rule:evenodd;fill:url(#SVGID_122_);}	.st87{fill-rule:evenodd;clip-rule:evenodd;fill:url(#SVGID_123_);}	.st88{fill-rule:evenodd;clip-rule:evenodd;fill:#333333;}	.st89{fill-rule:evenodd;clip-rule:evenodd;fill:url(#SVGID_124_);}	.st90{fill-rule:evenodd;clip-rule:evenodd;fill:url(#SVGID_125_);}	.st91{fill-rule:evenodd;clip-rule:evenodd;fill:url(#SVGID_126_);}	.st92{fill-rule:evenodd;clip-rule:evenodd;fill:url(#SVGID_127_);}	.st93{filter:url(#Adobe_OpacityMaskFilter_3_);}	.st94{fill:url(#SVGID_128_);}	.st95{mask:url(#SVGID_9_);fill-rule:evenodd;clip-rule:evenodd;}	.st96{fill-rule:evenodd;clip-rule:evenodd;fill:url(#SVGID_129_);}	.st97{fill-rule:evenodd;clip-rule:evenodd;fill:url(#SVGID_130_);}	.st98{fill-rule:evenodd;clip-rule:evenodd;}	.st99{fill:url(#SVGID_131_);}	.st100{fill:#FEFEFE;}	.st101{filter:url(#Adobe_OpacityMaskFilter_4_);}	.st102{fill:url(#SVGID_132_);}	.st103{mask:url(#SVGID_4_);fill:#FF3255;}	.st104{fill:url(#SVGID_133_);}	.st105{fill-rule:evenodd;clip-rule:evenodd;fill:url(#SVGID_134_);}	.st106{fill-rule:evenodd;clip-rule:evenodd;fill:url(#SVGID_135_);}	.st107{fill-rule:evenodd;clip-rule:evenodd;fill:url(#SVGID_136_);}	.st108{fill-rule:evenodd;clip-rule:evenodd;fill:url(#SVGID_137_);}	.st109{fill-rule:evenodd;clip-rule:evenodd;fill:url(#SVGID_138_);}	.st110{fill-rule:evenodd;clip-rule:evenodd;fill:url(#SVGID_139_);}	.st111{fill:url(#SVGID_140_);}	.st112{fill-rule:evenodd;clip-rule:evenodd;fill:url(#SVGID_141_);}	.st113{fill-rule:evenodd;clip-rule:evenodd;fill:url(#SVGID_142_);}	.st114{fill-rule:evenodd;clip-rule:evenodd;fill:url(#SVGID_143_);filter:url(#Adobe_OpacityMaskFilter_5_);}	.st115{mask:url(#id0_2_);fill-rule:evenodd;clip-rule:evenodd;fill:#2E1A24;}	.st116{fill-rule:evenodd;clip-rule:evenodd;fill:url(#SVGID_144_);}	.st117{fill-rule:evenodd;clip-rule:evenodd;fill:url(#SVGID_145_);}	.st118{fill-rule:evenodd;clip-rule:evenodd;fill:url(#SVGID_146_);filter:url(#Adobe_OpacityMaskFilter_6_);}	.st119{mask:url(#id2_2_);fill-rule:evenodd;clip-rule:evenodd;fill:url(#SVGID_147_);}	.st120{fill-rule:evenodd;clip-rule:evenodd;fill:url(#SVGID_148_);filter:url(#Adobe_OpacityMaskFilter_7_);}	.st121{mask:url(#id4_2_);fill-rule:evenodd;clip-rule:evenodd;fill:url(#SVGID_149_);}	.st122{fill-rule:evenodd;clip-rule:evenodd;fill:url(#SVGID_150_);filter:url(#Adobe_OpacityMaskFilter_8_);}	.st123{mask:url(#id6_2_);fill-rule:evenodd;clip-rule:evenodd;fill:url(#SVGID_151_);}	.st124{fill-rule:evenodd;clip-rule:evenodd;fill:url(#SVGID_152_);filter:url(#Adobe_OpacityMaskFilter_9_);}	.st125{mask:url(#id8_2_);fill:#2E1A24;}	.st126{fill-rule:evenodd;clip-rule:evenodd;fill:url(#SVGID_153_);filter:url(#Adobe_OpacityMaskFilter_10_);}	.st127{mask:url(#id10_2_);fill-rule:evenodd;clip-rule:evenodd;fill:#2E1A24;}	.st128{fill:url(#SVGID_154_);}	.st129{fill-rule:evenodd;clip-rule:evenodd;fill:url(#SVGID_155_);filter:url(#Adobe_OpacityMaskFilter_11_);}	.st130{mask:url(#id12_2_);fill:#FF3255;}	.st131{fill:url(#SVGID_156_);}	.st132{fill-rule:evenodd;clip-rule:evenodd;fill:url(#SVGID_157_);}	.st133{fill-rule:evenodd;clip-rule:evenodd;fill:url(#SVGID_158_);}	.st134{fill-rule:evenodd;clip-rule:evenodd;fill:url(#SVGID_159_);}	.st135{fill-rule:evenodd;clip-rule:evenodd;fill:#666666;}	.st136{fill:none;}	.st137{fill-rule:evenodd;clip-rule:evenodd;fill:url(#SVGID_160_);}	.st138{fill-rule:evenodd;clip-rule:evenodd;fill:#4D4D4D;}	.st139{fill-rule:evenodd;clip-rule:evenodd;fill:url(#SVGID_161_);}	.st140{fill-rule:evenodd;clip-rule:evenodd;fill:url(#SVGID_162_);}	.st141{fill:url(#SVGID_163_);}	.st142{fill-rule:evenodd;clip-rule:evenodd;fill:url(#SVGID_164_);filter:url(#Adobe_OpacityMaskFilter_12_);}	.st143{mask:url(#id0_1_);fill:#FF3255;}	.st144{fill:url(#SVGID_165_);}</style><g>	<circle class="st0" cx="216" cy="216" r="216"></circle>	<g id="_1870282071808">		<path class="st88" d="M99.7,146.2l55.4-31.3c8.6-4.9,15.6,0.4,15.6,11.8v103.8c0,7.4-4.6,16.1-10.3,19.3l-60.8,34.4   c-5.6,3.2-10.3-0.3-10.3-7.7V165.6C89.5,158.1,94.1,149.4,99.7,146.2L99.7,146.2z"></path>					<linearGradient id="SVGID_2_" gradientUnits="userSpaceOnUse" x1="53705.4688" y1="10705.9307" x2="55501.8594" y2="10705.9307" gradientTransform="matrix(7.200000e-02 0 0 7.200000e-02 -3757.5237 -554.032)">			<stop offset="0" style="stop-color:#BDBDBD"></stop>			<stop offset="1" style="stop-color:#524247"></stop>		</linearGradient>		<polygon class="st1" points="109.3,171.8 184.5,120.1 238.6,150.6 163.4,202.3 163.4,313.5 109.3,283   "></polygon>					<linearGradient id="SVGID_3_" gradientUnits="userSpaceOnUse" x1="54939.1484" y1="11950.249" x2="55104.5781" y2="9961.3291" gradientTransform="matrix(7.200000e-02 0 0 7.200000e-02 -3757.5237 -554.032)">			<stop offset="0" style="stop-color:#949494"></stop>			<stop offset="1" style="stop-color:#C4C4C4"></stop>		</linearGradient>		<path class="st2" d="M173.7,183l55.4-31.3c8.6-4.9,15.6,0.4,15.6,11.8v103.8c0,7.4-4.6,16.1-10.3,19.3L173.7,321   c-5.6,3.2-10.2-0.3-10.2-7.7V202.3C163.4,194.9,168,186.2,173.7,183L173.7,183z"></path>					<linearGradient id="SVGID_5_" gradientUnits="userSpaceOnUse" x1="55010.6602" y1="12254.0098" x2="55046.7891" y2="8039.7402" gradientTransform="matrix(7.200000e-02 0 0 7.200000e-02 -3757.5237 -554.032)">			<stop offset="0" style="stop-color:#696161"></stop>			<stop offset="0.302" style="stop-color:#A6A6A6"></stop>			<stop offset="0.6706" style="stop-color:#B5B5B5"></stop>			<stop offset="1" style="stop-color:#6B676B"></stop>		</linearGradient>		<path class="st3" d="M174.5,184.5c-5.8,3.2-9.7,11.9-9.7,18.4v109c0,2.5,0.6,5.6,2.7,7.1c1.9,1.5,4.4,1,6.3-0.2l59.8-33.8   c5.8-3.2,9.7-11.9,9.7-18.4V164.6c0-3.9-0.9-8.7-4.2-11.2c-3.1-2.3-6.9-1.6-10.1,0.2L174.5,184.5L174.5,184.5z"></path>		<path class="st135" d="M211.4,297.6l22.1-12.5c5.8-3.2,9.7-11.9,9.7-18.4v-46.2l-36.6,16.7c-8.5,3.9-14.3,11.8-10.6,21.1   L211.4,297.6z"></path>		<path class="st136" d="M99.7,147.7l55.4-31.3c8.6-4.9,15.6,0.4,15.6,11.8V232c0,7.4-4.6,16.1-10.3,19.3l-60.8,34.4   c-5.6,3.2-10.3-0.3-10.3-7.7V167C89.5,159.6,94.1,150.9,99.7,147.7L99.7,147.7z"></path>					<linearGradient id="SVGID_6_" gradientUnits="userSpaceOnUse" x1="53453.8555" y1="11365.3486" x2="54549.1953" y2="9581.8379" gradientTransform="matrix(7.200000e-02 0 0 7.200000e-02 -3757.5237 -554.032)">			<stop offset="0" style="stop-color:#BF9FA2"></stop>			<stop offset="0.6314" style="stop-color:#9E9E9E"></stop>			<stop offset="0.7216" style="stop-color:#F2F2F2"></stop>			<stop offset="1" style="stop-color:#CCCCCC"></stop>		</linearGradient>		<path class="st4" d="M164.7,108.8c-2.6-1.2-6.1-1-9.6,1l-55.4,31.3c-5.6,3.2-10.2,11.9-10.2,19.3l0,0v111.1l47.4,26.9v-29   c0-6,3.3-7.5,7-9.9l6.5-4.5c3.6-2.5,7-4,7-9.9v-46.3l0,0c0-7.4,4.6-16.1,10.3-19.3l55.4-31.3c3.6-2,6.9-2.3,9.6-1.1L164.7,108.8   L164.7,108.8z"></path>		<path class="st138" d="M202.6,130.6c-2.6-1.2-6.2-1.2-9.6,1l-57.5,37.5c-5.4,3.5-10.2,11.9-10.2,19.3l0,0l-0.4,103.3l13,7.3v-29   c0-6,3.3-7.5,7-9.9l6.5-4.5c3.6-2.5,7-4,7-9.9v-46.3l0,0c0-7.4,4.6-16.1,10.3-19.3l55.4-31.3c3.6-2,6.9-2.3,9.6-1.1L202.6,130.6   L202.6,130.6z"></path>					<linearGradient id="SVGID_7_" gradientUnits="userSpaceOnUse" x1="53852.4297" y1="11470.4033" x2="54939.668" y2="9383.2129" gradientTransform="matrix(7.200000e-02 0 0 7.200000e-02 -3757.5237 -554.032)">			<stop offset="0" style="stop-color:#FF6600"></stop>			<stop offset="0.4902" style="stop-color:#FF3157"></stop>			<stop offset="0.6" style="stop-color:#FF47AF"></stop>			<stop offset="0.702" style="stop-color:#FF1880"></stop>			<stop offset="1" style="stop-color:#FF00A6"></stop>		</linearGradient>		<path class="st5" d="M122.2,290.2l14.7,8.3v-29c0-6,3.3-7.5,7-9.9l6.5-4.5c3.6-2.5,7-4,7-9.9v-46.3l0,0c0-7.4,4.6-16.1,10.2-19.3   l55.4-31.3c3.6-2,6.9-2.3,9.6-1.1l-37-20.8l-63.6,36.3c-5.8,3.2-9.7,11.9-9.7,18.4L122.2,290.2L122.2,290.2z"></path>		<path class="st98" d="M201.6,182.5l4.1-2.4v4.1l-4.1,2.4V182.5L201.6,182.5z M228.8,208l4.1-2.4v4.1l-4.1,2.4V208z M222,212.1   l4.1-2.4v4.1l-4.1,2.4V212.1z M215.2,216.1l4.1-2.4v4.1l-4.1,2.4V216.1z M208.4,220.2l4.1-2.4v4.1l-4.1,2.4V220.2z M201.6,224.3   l4.1-2.4v4.1l-4.1,2.4V224.3L201.6,224.3z M228.8,202l4.1-2.4v4.1l-4.1,2.4V202z M222,206.1l4.1-2.4v4.1l-4.1,2.4V206.1z    M215.2,210.2l4.1-2.4v4.1l-4.1,2.4V210.2z M208.4,214.2l4.1-2.4v4.1l-4.1,2.4V214.2z M201.6,218.3l4.1-2.4v4.1l-4.1,2.4V218.3   L201.6,218.3z M228.8,196.1l4.1-2.4v4.1l-4.1,2.4V196.1z M222,200.1l4.1-2.4v4.1l-4.1,2.4V200.1z M215.2,204.2l4.1-2.4v4.1   l-4.1,2.4V204.2z M208.4,208.3l4.1-2.4v4.1l-4.1,2.4V208.3z M201.6,212.3l4.1-2.4v4.1l-4.1,2.4V212.3L201.6,212.3z M228.8,190.1   l4.1-2.4v4.1l-4.1,2.4V190.1z M222,194.2l4.1-2.4v4.1l-4.1,2.4V194.2z M215.2,198.2l4.1-2.4v4.1l-4.1,2.4V198.2z M208.4,202.3   l4.1-2.4v4.1l-4.1,2.4V202.3z M201.6,206.4l4.1-2.4v4.1l-4.1,2.4V206.4L201.6,206.4z M228.8,184.1l4.1-2.4v4.1l-4.1,2.4V184.1z    M222,188.2l4.1-2.4v4.1l-4.1,2.4V188.2z M215.2,192.2l4.1-2.4v4.1l-4.1,2.4V192.2z M208.4,196.3l4.1-2.4v4.1l-4.1,2.4V196.3z    M201.6,200.4l4.1-2.4v4.1l-4.1,2.4V200.4L201.6,200.4z M228.8,178.1l4.1-2.4v4.1l-4.1,2.4V178.1z M222,182.2l4.1-2.4v4.1   l-4.1,2.4V182.2z M215.2,186.3l4.1-2.4v4.1l-4.1,2.4V186.3z M208.4,190.4l4.1-2.4v4.1l-4.1,2.4V190.4z M201.6,194.4l4.1-2.4v4.1   l-4.1,2.4V194.4L201.6,194.4z M228.8,172.2l4.1-2.4v4.1l-4.1,2.4V172.2z M222,176.2l4.1-2.4v4.1l-4.1,2.4V176.2z M215.2,180.3   l4.1-2.4v4.1l-4.1,2.4V180.3z M208.4,184.4l4.1-2.4v4.1l-4.1,2.4V184.4z M201.6,188.4l4.1-2.4v4.1l-4.1,2.4V188.4L201.6,188.4z    M228.8,166.2l4.1-2.4v4.1l-4.1,2.4V166.2z M222,170.3l4.1-2.4v4.1l-4.1,2.4V170.3z M215.2,174.3l4.1-2.4v4.1l-4.1,2.4V174.3z    M208.4,178.4l4.1-2.4v4.1l-4.1,2.4V178.4z"></path>					<linearGradient id="SVGID_8_" gradientUnits="userSpaceOnUse" x1="54303.5273" y1="11520.4883" x2="54316.1797" y2="11435.0986" gradientTransform="matrix(7.200000e-02 0 0 7.200000e-02 -3757.5237 -554.032)">			<stop offset="0" style="stop-color:#FF6600"></stop>			<stop offset="1" style="stop-color:#FF00A6"></stop>		</linearGradient>		<path class="st7" d="M151.3,269c1.7,0,3.1,1.4,3.1,3.1c0,1.7-1.4,3.1-3.1,3.1s-3.1-1.4-3.1-3.1C148.2,270.4,149.6,269,151.3,269z    M151.3,289.7c1.7,0,3.1,1.4,3.1,3.1c0,1.7-1.4,3.1-3.1,3.1s-3.1-1.4-3.1-3.1C148.2,291.1,149.6,289.7,151.3,289.7z M151.3,279.8   c1.7,0,3.1,1.4,3.1,3.1c0,1.7-1.4,3.1-3.1,3.1s-3.1-1.4-3.1-3.1S149.6,279.8,151.3,279.8z"></path>		<g>							<linearGradient id="SVGID_10_" gradientUnits="userSpaceOnUse" x1="55261.7188" y1="11352.1113" x2="56945.6094" y2="11352.1113" gradientTransform="matrix(7.200000e-02 0 0 7.200000e-02 -3757.5237 -554.032)">				<stop offset="0" style="stop-color:#FF6600"></stop>				<stop offset="1" style="stop-color:#FF00A6"></stop>			</linearGradient>			<path style="fill:url(#SVGID_10_);" d="M244.7,202.7h74.5c12.9,0,23.4,10.5,23.4,23.4v74.5c0,12.9-10.5,23.4-23.4,23.4h-74.5    c-12.9,0-23.4-10.5-23.4-23.4v-74.5C221.3,213.2,231.8,202.7,244.7,202.7z"></path>			<g>				<path class="st100" d="M306.9,300.6c1,0,3.8,0,4.3,0c4.2,0,7.9-3.4,7.9-7.6v-59.2c0-4.2-4.4-7.6-8.5-7.6h-3l-28.5,0     c-1.9,0-3.4,1.5-3.4,3.4v3.6v32.7c0,2.1,0.6,3.9,1.7,5.3c1.2,1.7,3.1,3,5.1,3.8l21.2,6.3c1.8,0.7,3.3,1.8,4.4,3.1     c1,1.3,1.6,2.8,1.6,4.6v6.9C309.9,297.3,309.9,299.8,306.9,300.6L306.9,300.6z M307.5,265.8c1.3,0,2.4,1,2.4,2.4     c0,1.3-1,2.4-2.4,2.4c-1.3,0-2.4-1-2.4-2.4C305.1,266.8,306.2,265.8,307.5,265.8z"></path>				<defs>					<filter id="Adobe_OpacityMaskFilter" filterUnits="userSpaceOnUse" x="275.8" y="226.1" width="43.4" height="74.5">											</filter>				</defs>				<mask maskUnits="userSpaceOnUse" x="275.8" y="226.1" width="43.4" height="74.5" id="id0_1_">											<linearGradient id="SVGID_11_" gradientUnits="userSpaceOnUse" x1="56721.4727" y1="11351.9727" x2="56495.3125" y2="11351.9727" gradientTransform="matrix(7.200000e-02 0 0 7.200000e-02 -3757.5237 -554.032)">						<stop offset="0" style="stop-color:#FFFFFF"></stop>						<stop offset="1" style="stop-color:#FFFFFF;stop-opacity:0"></stop>					</linearGradient>											<rect x="275.8" y="226.1" style="fill-rule:evenodd;clip-rule:evenodd;fill:url(#SVGID_11_);filter:url(#Adobe_OpacityMaskFilter);" width="43.4" height="74.5"></rect>				</mask>				<path class="st143" d="M306.9,300.6c1,0,3.8,0,4.3,0c4.2,0,7.9-3.4,7.9-7.6v-59.2c0-4.2-4.4-7.6-8.5-7.6h-3l-28.5,0     c-1.9,0-3.4,1.5-3.4,3.4v3.6v32.7c0,2.1,0.6,3.9,1.7,5.3c1.2,1.7,3.1,3,5.1,3.8l21.2,6.3c1.8,0.7,3.3,1.8,4.4,3.1     c1,1.3,1.6,2.8,1.6,4.6v6.9C309.9,297.3,309.9,299.8,306.9,300.6L306.9,300.6z M307.5,265.8c1.3,0,2.4,1,2.4,2.4     c0,1.3-1,2.4-2.4,2.4c-1.3,0-2.4-1-2.4-2.4C305.1,266.8,306.2,265.8,307.5,265.8z"></path>									<linearGradient id="SVGID_12_" gradientUnits="userSpaceOnUse" x1="55768.3711" y1="11416.7646" x2="56967.3633" y2="11416.7646" gradientTransform="matrix(7.200000e-02 0 0 7.200000e-02 -3757.5237 -554.032)">					<stop offset="0" style="stop-color:#FFFFFF"></stop>					<stop offset="1" style="stop-color:#FF1C79"></stop>				</linearGradient>				<path style="fill:url(#SVGID_12_);" d="M252.3,300.5c12.4,0,41,0,54.6,0c3-0.8,2.9-3.2,2.9-4.7v-6.9c0-1.8-0.6-3.3-1.6-4.6     c-1.1-1.4-2.6-2.4-4.4-3.1l-21.2-6.3c-2-0.8-3.9-2.1-5.1-3.8c-1.1-1.5-1.7-3.2-1.7-5.3v-30.4l-23.4,0c-4.2,0-7.6,3.4-7.6,7.6     v49.9C244.7,297.1,248.1,300.5,252.3,300.5L252.3,300.5z"></path>			</g>		</g>	</g></g></svg>