<svg xmlns="http://www.w3.org/2000/svg" xmlns:xlink="http://www.w3.org/1999/xlink" id="Layer_1" x="0px" y="0px" viewBox="0 0 432 432" style="enable-background:new 0 0 432 432;" xml:space="preserve"><style type="text/css">	.st0{fill:#F8ECE5;}	.st1{fill-rule:evenodd;clip-rule:evenodd;fill:url(#SVGID_2_);}	.st2{fill-rule:evenodd;clip-rule:evenodd;fill:url(#SVGID_3_);}	.st3{fill-rule:evenodd;clip-rule:evenodd;fill:url(#SVGID_5_);}	.st4{fill-rule:evenodd;clip-rule:evenodd;fill:url(#SVGID_6_);}	.st5{fill-rule:evenodd;clip-rule:evenodd;fill:url(#SVGID_7_);}	.st6{fill-rule:evenodd;clip-rule:evenodd;fill:#E6E6E6;}	.st7{fill-rule:evenodd;clip-rule:evenodd;fill:url(#SVGID_8_);}	.st8{fill-rule:evenodd;clip-rule:evenodd;fill:url(#SVGID_10_);}	.st9{fill-rule:evenodd;clip-rule:evenodd;fill:url(#SVGID_11_);}	.st10{fill-rule:evenodd;clip-rule:evenodd;fill:url(#SVGID_12_);}	.st11{fill-rule:evenodd;clip-rule:evenodd;fill:url(#SVGID_13_);}	.st12{fill-rule:evenodd;clip-rule:evenodd;fill:url(#SVGID_15_);}	.st13{fill-rule:evenodd;clip-rule:evenodd;fill:url(#SVGID_16_);}	.st14{fill-rule:evenodd;clip-rule:evenodd;fill:url(#SVGID_17_);}	.st15{fill-rule:evenodd;clip-rule:evenodd;fill:url(#SVGID_18_);}	.st16{fill-rule:evenodd;clip-rule:evenodd;fill:url(#SVGID_19_);}	.st17{fill-rule:evenodd;clip-rule:evenodd;fill:url(#SVGID_20_);filter:url(#Adobe_OpacityMaskFilter);}	.st18{mask:url(#id5_2_);fill-rule:evenodd;clip-rule:evenodd;fill:#2E1A24;}	.st19{fill-rule:evenodd;clip-rule:evenodd;fill:url(#SVGID_21_);}	.st20{fill-rule:evenodd;clip-rule:evenodd;fill:url(#SVGID_22_);}	.st21{fill-rule:evenodd;clip-rule:evenodd;fill:url(#SVGID_23_);}	.st22{fill-rule:evenodd;clip-rule:evenodd;fill:url(#SVGID_24_);}	.st23{fill-rule:evenodd;clip-rule:evenodd;fill:url(#SVGID_25_);}	.st24{fill:#FFFFFF;}	.st25{fill-rule:evenodd;clip-rule:evenodd;fill:url(#SVGID_26_);}	.st26{fill-rule:evenodd;clip-rule:evenodd;fill:url(#SVGID_27_);filter:url(#Adobe_OpacityMaskFilter_1_);}	.st27{mask:url(#id7_2_);fill-rule:evenodd;clip-rule:evenodd;fill:#2E1A24;}	.st28{fill-rule:evenodd;clip-rule:evenodd;fill:url(#SVGID_28_);}	.st29{fill-rule:evenodd;clip-rule:evenodd;fill:url(#SVGID_29_);}	.st30{fill-rule:evenodd;clip-rule:evenodd;fill:url(#SVGID_30_);}	.st31{fill-rule:evenodd;clip-rule:evenodd;fill:url(#SVGID_31_);}	.st32{fill-rule:evenodd;clip-rule:evenodd;fill:#2E1A24;}	.st33{fill-rule:evenodd;clip-rule:evenodd;fill:url(#SVGID_32_);}	.st34{fill-rule:evenodd;clip-rule:evenodd;fill:url(#SVGID_33_);}	.st35{fill:url(#SVGID_34_);}	.st36{fill:url(#SVGID_35_);}	.st37{clip-path:url(#SVGID_37_);}	.st38{clip-path:url(#SVGID_39_);}	.st39{fill-rule:evenodd;clip-rule:evenodd;fill:url(#SVGID_40_);}	.st40{clip-path:url(#SVGID_42_);fill-rule:evenodd;clip-rule:evenodd;fill:url(#SVGID_43_);}	.st41{clip-path:url(#SVGID_45_);}	.st42{fill-rule:evenodd;clip-rule:evenodd;fill:url(#SVGID_46_);}	.st43{clip-path:url(#SVGID_50_);}	.st44{fill-rule:evenodd;clip-rule:evenodd;fill:url(#SVGID_51_);}	.st45{filter:url(#Adobe_OpacityMaskFilter_2_);}	.st46{clip-path:url(#SVGID_53_);}	.st47{clip-path:url(#SVGID_55_);fill:url(#SVGID_56_);}	.st48{clip-path:url(#SVGID_53_);mask:url(#SVGID_14_);fill-rule:evenodd;clip-rule:evenodd;fill:#1A1A1A;}	.st49{clip-path:url(#SVGID_58_);}	.st50{fill-rule:evenodd;clip-rule:evenodd;fill:url(#SVGID_59_);}	.st51{clip-path:url(#SVGID_61_);fill-rule:evenodd;clip-rule:evenodd;fill:#FFFFFF;}	.st52{clip-path:url(#SVGID_63_);}	.st53{fill-rule:evenodd;clip-rule:evenodd;fill:url(#SVGID_64_);}	.st54{clip-path:url(#SVGID_66_);}	.st55{fill-rule:evenodd;clip-rule:evenodd;fill:url(#SVGID_67_);}	.st56{clip-path:url(#SVGID_69_);}	.st57{fill-rule:evenodd;clip-rule:evenodd;fill:url(#SVGID_70_);}	.st58{clip-path:url(#SVGID_72_);}	.st59{fill-rule:evenodd;clip-rule:evenodd;fill:url(#SVGID_73_);}	.st60{clip-path:url(#SVGID_75_);}	.st61{fill-rule:evenodd;clip-rule:evenodd;fill:url(#SVGID_76_);}	.st62{clip-path:url(#SVGID_78_);}	.st63{fill-rule:evenodd;clip-rule:evenodd;fill:url(#SVGID_79_);}	.st64{clip-path:url(#SVGID_81_);fill-rule:evenodd;clip-rule:evenodd;}	.st65{clip-path:url(#SVGID_83_);}	.st66{clip-path:url(#SVGID_85_);fill:url(#SVGID_86_);}	.st67{clip-path:url(#SVGID_88_);}	.st68{clip-path:url(#SVGID_90_);fill:url(#SVGID_91_);}	.st69{clip-path:url(#SVGID_93_);fill-rule:evenodd;clip-rule:evenodd;}	.st70{clip-path:url(#SVGID_95_);fill:none;stroke:#000000;stroke-width:0.4799;stroke-miterlimit:2.6131;}	.st71{clip-path:url(#SVGID_97_);}	.st72{clip-path:url(#SVGID_99_);fill:url(#SVGID_100_);}	.st73{clip-path:url(#SVGID_102_);fill:none;stroke:#000000;stroke-width:0.4799;stroke-miterlimit:2.6131;}	.st74{clip-path:url(#SVGID_104_);}	.st75{fill-rule:evenodd;clip-rule:evenodd;fill:url(#SVGID_105_);}	.st76{clip-path:url(#SVGID_107_);}	.st77{fill-rule:evenodd;clip-rule:evenodd;fill:url(#SVGID_108_);}	.st78{clip-path:url(#SVGID_110_);}	.st79{fill-rule:evenodd;clip-rule:evenodd;fill:url(#SVGID_111_);}	.st80{clip-path:url(#SVGID_113_);fill:#FEFEFE;}	.st81{clip-path:url(#SVGID_115_);}	.st82{fill:url(#SVGID_116_);}	.st83{clip-path:url(#SVGID_118_);}	.st84{fill:url(#SVGID_119_);}	.st85{clip-path:url(#SVGID_121_);fill:#FEFEFE;}	.st86{fill-rule:evenodd;clip-rule:evenodd;fill:url(#SVGID_122_);}	.st87{fill-rule:evenodd;clip-rule:evenodd;fill:url(#SVGID_123_);}	.st88{fill-rule:evenodd;clip-rule:evenodd;fill:#333333;}	.st89{fill-rule:evenodd;clip-rule:evenodd;fill:url(#SVGID_124_);}	.st90{fill-rule:evenodd;clip-rule:evenodd;fill:url(#SVGID_125_);}	.st91{fill-rule:evenodd;clip-rule:evenodd;fill:url(#SVGID_126_);}	.st92{fill-rule:evenodd;clip-rule:evenodd;fill:url(#SVGID_127_);}	.st93{filter:url(#Adobe_OpacityMaskFilter_3_);}	.st94{fill:url(#SVGID_128_);}	.st95{mask:url(#SVGID_9_);fill-rule:evenodd;clip-rule:evenodd;}	.st96{fill-rule:evenodd;clip-rule:evenodd;fill:url(#SVGID_129_);}	.st97{fill-rule:evenodd;clip-rule:evenodd;fill:url(#SVGID_130_);}	.st98{fill-rule:evenodd;clip-rule:evenodd;}	.st99{fill:url(#SVGID_131_);}	.st100{fill:#FEFEFE;}	.st101{filter:url(#Adobe_OpacityMaskFilter_4_);}	.st102{fill:url(#SVGID_132_);}	.st103{mask:url(#SVGID_4_);fill:#FF3255;}	.st104{fill:url(#SVGID_133_);}	.st105{fill-rule:evenodd;clip-rule:evenodd;fill:url(#SVGID_134_);}	.st106{fill-rule:evenodd;clip-rule:evenodd;fill:url(#SVGID_135_);}	.st107{fill-rule:evenodd;clip-rule:evenodd;fill:url(#SVGID_136_);}	.st108{fill-rule:evenodd;clip-rule:evenodd;fill:url(#SVGID_137_);}	.st109{fill-rule:evenodd;clip-rule:evenodd;fill:url(#SVGID_138_);}	.st110{fill-rule:evenodd;clip-rule:evenodd;fill:url(#SVGID_139_);}	.st111{fill:url(#SVGID_140_);}	.st112{fill-rule:evenodd;clip-rule:evenodd;fill:url(#SVGID_141_);}	.st113{fill-rule:evenodd;clip-rule:evenodd;fill:url(#SVGID_142_);}	.st114{fill-rule:evenodd;clip-rule:evenodd;fill:url(#SVGID_143_);filter:url(#Adobe_OpacityMaskFilter_5_);}	.st115{mask:url(#id0_2_);fill-rule:evenodd;clip-rule:evenodd;fill:#2E1A24;}	.st116{fill-rule:evenodd;clip-rule:evenodd;fill:url(#SVGID_144_);}	.st117{fill-rule:evenodd;clip-rule:evenodd;fill:url(#SVGID_145_);}	.st118{fill-rule:evenodd;clip-rule:evenodd;fill:url(#SVGID_146_);filter:url(#Adobe_OpacityMaskFilter_6_);}	.st119{mask:url(#id2_2_);fill-rule:evenodd;clip-rule:evenodd;fill:url(#SVGID_147_);}	.st120{fill-rule:evenodd;clip-rule:evenodd;fill:url(#SVGID_148_);filter:url(#Adobe_OpacityMaskFilter_7_);}	.st121{mask:url(#id4_2_);fill-rule:evenodd;clip-rule:evenodd;fill:url(#SVGID_149_);}	.st122{fill-rule:evenodd;clip-rule:evenodd;fill:url(#SVGID_150_);filter:url(#Adobe_OpacityMaskFilter_8_);}	.st123{mask:url(#id6_2_);fill-rule:evenodd;clip-rule:evenodd;fill:url(#SVGID_151_);}	.st124{fill-rule:evenodd;clip-rule:evenodd;fill:url(#SVGID_152_);filter:url(#Adobe_OpacityMaskFilter_9_);}	.st125{mask:url(#id8_2_);fill:#2E1A24;}	.st126{fill-rule:evenodd;clip-rule:evenodd;fill:url(#SVGID_153_);filter:url(#Adobe_OpacityMaskFilter_10_);}	.st127{mask:url(#id10_2_);fill-rule:evenodd;clip-rule:evenodd;fill:#2E1A24;}	.st128{fill:url(#SVGID_154_);}	.st129{fill-rule:evenodd;clip-rule:evenodd;fill:url(#SVGID_155_);filter:url(#Adobe_OpacityMaskFilter_11_);}	.st130{mask:url(#id12_2_);fill:#FF3255;}	.st131{fill:url(#SVGID_156_);}	.st132{fill-rule:evenodd;clip-rule:evenodd;fill:url(#SVGID_157_);}	.st133{fill-rule:evenodd;clip-rule:evenodd;fill:url(#SVGID_158_);}	.st134{fill-rule:evenodd;clip-rule:evenodd;fill:url(#SVGID_159_);}	.st135{fill-rule:evenodd;clip-rule:evenodd;fill:#666666;}	.st136{fill:none;}	.st137{fill-rule:evenodd;clip-rule:evenodd;fill:url(#SVGID_160_);}	.st138{fill-rule:evenodd;clip-rule:evenodd;fill:#4D4D4D;}	.st139{fill-rule:evenodd;clip-rule:evenodd;fill:url(#SVGID_161_);}	.st140{fill-rule:evenodd;clip-rule:evenodd;fill:url(#SVGID_162_);}	.st141{fill:url(#SVGID_163_);}	.st142{fill-rule:evenodd;clip-rule:evenodd;fill:url(#SVGID_164_);filter:url(#Adobe_OpacityMaskFilter_12_);}	.st143{mask:url(#id0_1_);fill:#FF3255;}	.st144{fill:url(#SVGID_165_);}</style><g>	<circle class="st0" cx="216" cy="216" r="216"></circle>	<g>		<g>			<g>				<defs>					<rect id="SVGID_36_" width="432" height="432"></rect>				</defs>				<clipPath id="SVGID_2_">					<use xlink:href="#SVGID_36_" style="overflow:visible;"></use>				</clipPath>				<g style="clip-path:url(#SVGID_2_);">					<g>						<defs>							<rect id="SVGID_38_" width="432" height="432"></rect>						</defs>						<clipPath id="SVGID_3_">							<use xlink:href="#SVGID_38_" style="overflow:visible;"></use>						</clipPath>						<g style="clip-path:url(#SVGID_3_);">							<g>																	<linearGradient id="SVGID_5_" gradientUnits="userSpaceOnUse" x1="246.9298" y1="170.4996" x2="159.2328" y2="150.3315" gradientTransform="matrix(1 0 0 -1 0 434)">									<stop offset="0" style="stop-color:#FFFFFF"></stop>									<stop offset="0.6" style="stop-color:#9E9E9E"></stop>									<stop offset="1" style="stop-color:#FF00A6"></stop>								</linearGradient>								<path id="SVGID_00000157279806278449234530000009963600438122806689_" class="st3" d="M175.5,306.2l-27.7-16.3         c-4.3-2.5-3.8-7,1.2-9.8l64.4-37.2c3.3-1.9,8.2-2.1,11.1-0.4l30.4,17.9c2.8,1.7,2.5,4.6-0.8,6.5l-67.5,39         C183.3,307.7,178.3,307.8,175.5,306.2"></path>							</g>						</g>					</g>					<g>						<defs>							<rect id="SVGID_41_" width="432" height="432"></rect>						</defs>						<clipPath id="SVGID_6_">							<use xlink:href="#SVGID_41_" style="overflow:visible;"></use>						</clipPath>													<linearGradient id="SVGID_7_" gradientUnits="userSpaceOnUse" x1="144.5228" y1="146.5268" x2="256.75" y2="146.5268" gradientTransform="matrix(1 0 0 -1 0 434)">							<stop offset="0" style="stop-color:#9C8385"></stop>							<stop offset="0.63" style="stop-color:#3D0822"></stop>							<stop offset="0.72" style="stop-color:#8A1C4F"></stop>							<stop offset="1" style="stop-color:#3D0B3B"></stop>						</linearGradient>						<path style="clip-path:url(#SVGID_6_);fill-rule:evenodd;clip-rule:evenodd;fill:url(#SVGID_7_);" d="M175.1,310.4l-27.7-16.3       c-2.1-1.2-3-2.8-2.9-4.5l0,0v0l0-0.1l0.3-4.2l0,0c-0.1,1.7,0.8,3.4,2.9,4.6l27.7,16.3c2.8,1.7,7.8,1.5,11.1-0.4l67.5-39       c1.7-1,2.6-2.2,2.7-3.4l0,0l-0.4,3.5c0.1,0.5,0,0.9-0.1,1.4l0,0c-0.3,1-1.2,1.9-2.5,2.7l-67.5,39       C182.9,311.9,178,312.1,175.1,310.4"></path>					</g>					<g>						<defs>							<rect id="SVGID_44_" width="432" height="432"></rect>						</defs>						<clipPath id="SVGID_8_">							<use xlink:href="#SVGID_44_" style="overflow:visible;"></use>						</clipPath>						<g style="clip-path:url(#SVGID_8_);">							<g>																	<linearGradient id="SVGID_10_" gradientUnits="userSpaceOnUse" x1="254.7056" y1="345.8413" x2="99.5491" y2="143.5773" gradientTransform="matrix(1 0 0 -1 0 434)">									<stop offset="0" style="stop-color:#FFFFFF"></stop>									<stop offset="0.5" style="stop-color:#B38A9E"></stop>									<stop offset="1" style="stop-color:#C2C2C2"></stop>								</linearGradient>								<path id="SVGID_00000068663036294374970750000006650192079180371120_" class="st8" d="M83.3,175.8l0.7,129.6         c0.1,11.6,9.6,15.6,21.2,9L254.7,228c7.6-4.4,13.7-14.2,13.6-21.8l-0.7-136.9c0-7.6-6.3-10.3-13.9-5.9L96.9,154         C89.3,158.4,83.2,168.2,83.3,175.8"></path>							</g>						</g>					</g>					<g>						<defs>							<rect id="SVGID_47_" width="432" height="432"></rect>						</defs>						<clipPath id="SVGID_11_">							<use xlink:href="#SVGID_47_" style="overflow:visible;"></use>						</clipPath>					</g>					<g>						<defs>							<rect id="SVGID_49_" width="432" height="432"></rect>						</defs>						<clipPath id="SVGID_12_">							<use xlink:href="#SVGID_49_" style="overflow:visible;"></use>						</clipPath>						<g style="clip-path:url(#SVGID_12_);">							<g>																	<linearGradient id="SVGID_13_" gradientUnits="userSpaceOnUse" x1="114.9756" y1="75.1836" x2="246.4602" y2="437.8964" gradientTransform="matrix(1 0 0 -1 0 434)">									<stop offset="0" style="stop-color:#FF374C"></stop>									<stop offset="0.53" style="stop-color:#8A1C4F"></stop>									<stop offset="1" style="stop-color:#3D0B3B"></stop>								</linearGradient>								<path id="SVGID_00000041986421644763080910000012171418196419788697_" class="st11" d="M259.8,69.3         c-0.8,0.2-1.7,0.7-2.1,0.9l-156.8,90.5c-4.5,2.6-9.8,9.6-9.7,14.9l0.7,129.6c0,1.2,0.2,3.6,1.5,4.1c2.1,0.9,6.1-0.9,7.9-1.9         l149.6-86.4c4.5-2.6,9.8-9.6,9.7-14.9L259.8,69.3C259.8,69.3,259.8,69.3,259.8,69.3"></path>							</g>						</g>					</g>					<g>						<defs>							<rect id="SVGID_52_" width="432" height="432"></rect>						</defs>						<clipPath id="SVGID_15_">							<use xlink:href="#SVGID_52_" style="overflow:visible;"></use>						</clipPath>						<defs>							<filter id="Adobe_OpacityMaskFilter" filterUnits="userSpaceOnUse" x="102.8" y="215.3" width="50.6" height="91.3">															</filter>						</defs>						<mask maskUnits="userSpaceOnUse" x="102.8" y="215.3" width="50.6" height="91.3" id="SVGID_14_">							<g style="filter:url(#Adobe_OpacityMaskFilter);">								<g>									<defs>										<rect id="SVGID_54_" width="432" height="432"></rect>									</defs>									<clipPath id="SVGID_16_" style="clip-path:url(#SVGID_15_);">										<use xlink:href="#SVGID_54_" style="overflow:visible;"></use>									</clipPath>																			<linearGradient id="SVGID_17_" gradientUnits="userSpaceOnUse" x1="11.383" y1="-188.147" x2="33.903" y2="193.653" gradientTransform="matrix(1 0 0 -1 102.8242 308.6182)">										<stop offset="0" style="stop-color:#FFFFFF"></stop>										<stop offset="1" style="stop-color:#000000"></stop>									</linearGradient>									<rect x="102.8" y="215.3" style="clip-path:url(#SVGID_16_);fill:url(#SVGID_17_);" width="50.6" height="91.3"></rect>								</g>							</g>						</mask>						<path style="clip-path:url(#SVGID_15_);mask:url(#SVGID_14_);fill-rule:evenodd;clip-rule:evenodd;fill:#1A1A1A;" d="       M102.8,306.6l3.2-1.8l47.4-27.4v-54.1c0-2.4-0.6-5.5-2.6-7.1c-1.9-1.4-4.3-0.9-6.3,0.2L109,236.5c-3.7,2.1-6.2,7.6-6.2,11.7       L102.8,306.6L102.8,306.6z"></path>					</g>					<g>						<defs>							<rect id="SVGID_57_" width="432" height="432"></rect>						</defs>						<clipPath id="SVGID_18_">							<use xlink:href="#SVGID_57_" style="overflow:visible;"></use>						</clipPath>						<g style="clip-path:url(#SVGID_18_);">							<g>																	<linearGradient id="SVGID_19_" gradientUnits="userSpaceOnUse" x1="222.0643" y1="364.3488" x2="46.1116" y2="149.9044" gradientTransform="matrix(1 0 0 -1 0 434)">									<stop offset="0" style="stop-color:#CCCCCC"></stop>									<stop offset="0.63" style="stop-color:#EBEBEB"></stop>									<stop offset="0.72" style="stop-color:#B3B3B3"></stop>									<stop offset="1" style="stop-color:#9E7D9D"></stop>								</linearGradient>								<path id="SVGID_00000002342059789970902350000016236005520456684935_" class="st16" d="M74.4,171.5l0.7,129.6         c0,5.5,2.2,9.3,5.8,11.1l0,0l0.1,0l0.1,0.1l8.8,4.2l0,0c-3.6-1.7-5.9-5.6-5.9-11.2l-0.7-129.6c0-7.6,6.1-17.4,13.6-21.8         l156.8-90.6c3.9-2.2,7.4-2.6,9.9-1.5l0,0l-7.5-3.4c-0.8-0.7-1.9-1.1-3-1.3l0,0l0,0c-2.3-0.4-5.2,0.2-8.3,2L88,149.8         C80.5,154.1,74.3,163.9,74.4,171.5"></path>							</g>						</g>					</g>					<g>						<defs>							<rect id="SVGID_60_" width="432" height="432"></rect>						</defs>						<clipPath id="SVGID_20_">							<use xlink:href="#SVGID_60_" style="overflow:visible;"></use>						</clipPath>						<path style="clip-path:url(#SVGID_20_);fill-rule:evenodd;clip-rule:evenodd;fill:#FFFFFF;" d="M135.1,240.3l35.5-20.1       c5.5-3.1,10,0.3,10,7.6V322c0,4.8-3,10.3-6.6,12.4l-38.9,22c-3.6,2-6.6-0.2-6.6-5v-98.8C128.5,247.9,131.4,242.4,135.1,240.3"></path>					</g>					<g>						<defs>							<rect id="SVGID_62_" width="432" height="432"></rect>						</defs>						<clipPath id="SVGID_21_">							<use xlink:href="#SVGID_62_" style="overflow:visible;"></use>						</clipPath>						<g style="clip-path:url(#SVGID_21_);">							<g>																	<linearGradient id="SVGID_22_" gradientUnits="userSpaceOnUse" x1="129.22" y1="145.854" x2="179.81" y2="145.854" gradientTransform="matrix(1 0 0 -1 0 434)">									<stop offset="0" style="stop-color:#FF6600"></stop>									<stop offset="1" style="stop-color:#FF00A6"></stop>								</linearGradient>								<path id="SVGID_00000005236292231926141340000013733405684020797113_" class="st20" d="M135.4,240.9         c-3.7,2.1-6.2,7.6-6.2,11.7v98.8c0,1.5,0.4,3.5,1.6,4.4c1.2,0.9,2.6,0.5,3.8-0.1l38.9-22c3.7-2.1,6.2-7.6,6.2-11.7v-94.3         c0-2.4-0.6-5.5-2.6-7.1c-1.9-1.4-4.3-0.9-6.3,0.2L135.4,240.9z"></path>							</g>						</g>					</g>					<g>						<defs>							<rect id="SVGID_65_" width="432" height="432"></rect>						</defs>						<clipPath id="SVGID_23_">							<use xlink:href="#SVGID_65_" style="overflow:visible;"></use>						</clipPath>						<g style="clip-path:url(#SVGID_23_);">							<g>																	<linearGradient id="SVGID_24_" gradientUnits="userSpaceOnUse" x1="121.1979" y1="94.7257" x2="157.4258" y2="223.9399" gradientTransform="matrix(1 0 0 -1 0 434)">									<stop offset="0" style="stop-color:#BDBDBD"></stop>									<stop offset="0.63" style="stop-color:#EBEBEB"></stop>									<stop offset="0.72" style="stop-color:#B3B3B3"></stop>									<stop offset="1" style="stop-color:#9E7D9D"></stop>								</linearGradient>								<path id="SVGID_00000131351238315803512280000014598075506799357849_" class="st22" d="M130.6,237.3l35.5-20.1         c2.6-1.5,5-1.5,6.8-0.3l0,0l0.1,0l0.1,0.1l4.4,3l0,0c-1.8-1.2-4.2-1.2-6.9,0.2l-35.5,20.1c-3.6,2-6.6,7.6-6.6,12.4v98.8         c0,2.4,0.8,4.2,2,5.1l0,0l-3.6-2.6c-0.6-0.2-1-0.6-1.4-1l0,0l0,0c-0.8-1-1.3-2.5-1.3-4.5v-98.8         C124.1,244.9,127,239.3,130.6,237.3"></path>							</g>						</g>					</g>					<g>						<defs>							<rect id="SVGID_68_" width="432" height="432"></rect>						</defs>						<clipPath id="SVGID_25_">							<use xlink:href="#SVGID_68_" style="overflow:visible;"></use>						</clipPath>						<g style="clip-path:url(#SVGID_25_);">							<g>																	<linearGradient id="SVGID_26_" gradientUnits="userSpaceOnUse" x1="359.9403" y1="142.7377" x2="226.4617" y2="125.1835" gradientTransform="matrix(1 0 0 -1 0 434)">									<stop offset="0" style="stop-color:#FF6600"></stop>									<stop offset="0.49" style="stop-color:#FF3157"></stop>									<stop offset="0.6" style="stop-color:#FF47AF"></stop>									<stop offset="0.7" style="stop-color:#FF1880"></stop>									<stop offset="1" style="stop-color:#FF00A6"></stop>								</linearGradient>								<path id="SVGID_00000105387105096606529240000016372584680294353844_" class="st25" d="M274.1,348.5l-61.6-36         c-5.5-3.2-4.8-8.9,1.6-12.6l82.4-47.6c4.2-2.4,10.5-2.6,14.1-0.5l65,38c3.6,2.1,3.1,5.8-1,8.2l-86.3,49.8         C284.1,350.4,277.8,350.6,274.1,348.5"></path>							</g>						</g>					</g>					<g>						<defs>							<rect id="SVGID_71_" width="432" height="432"></rect>						</defs>						<clipPath id="SVGID_27_">							<use xlink:href="#SVGID_71_" style="overflow:visible;"></use>						</clipPath>						<g style="clip-path:url(#SVGID_27_);">							<g>																	<linearGradient id="SVGID_28_" gradientUnits="userSpaceOnUse" x1="255.3587" y1="112.853" x2="385.0282" y2="186.391" gradientTransform="matrix(1 0 0 -1 0 434)">									<stop offset="0" style="stop-color:#1A1A1A"></stop>									<stop offset="0.5" style="stop-color:#3D0822"></stop>									<stop offset="0.84" style="stop-color:#8A1C4F"></stop>									<stop offset="1" style="stop-color:#3D0B3B"></stop>								</linearGradient>								<path id="SVGID_00000023260639251460396890000003719083095565378719_" class="st28" d="M274.5,347.8         c3.6,2.1,9.8,1.6,13.4-0.5l86.3-49.8c1.3-0.8,2.9-2,3-3.7c0.2-1.5-0.9-2.6-2-3.3l-65-38c-3.7-2.1-9.8-1.6-13.4,0.5         l-82.4,47.6c-2.1,1.2-4.5,3.3-4.9,5.9c-0.3,2.4,1.4,4.2,3.3,5.4L274.5,347.8z"></path>							</g>						</g>					</g>					<g>						<defs>							<rect id="SVGID_74_" width="432" height="432"></rect>						</defs>						<clipPath id="SVGID_29_">							<use xlink:href="#SVGID_74_" style="overflow:visible;"></use>						</clipPath>						<g style="clip-path:url(#SVGID_29_);">							<g>																	<linearGradient id="SVGID_30_" gradientUnits="userSpaceOnUse" x1="365.0979" y1="122.8514" x2="215.2963" y2="98.1372" gradientTransform="matrix(1 0 0 -1 0 434)">									<stop offset="0" style="stop-color:#FF374C"></stop>									<stop offset="0.63" style="stop-color:#3D0822"></stop>									<stop offset="0.72" style="stop-color:#8A1C4F"></stop>									<stop offset="1" style="stop-color:#3D0B3B"></stop>								</linearGradient>								<path id="SVGID_00000032633656337448620520000018285754746854344615_" class="st30" d="M273.7,353.9l-61.6-36         c-2.6-1.5-3.8-3.6-3.7-5.8l0,0l0-0.1l0-0.1l0.4-5.3l0,0c-0.2,2.2,1,4.3,3.7,5.9l61.6,36c3.6,2.1,10,1.9,14.1-0.5l86.3-49.8         c2.1-1.2,3.3-2.8,3.4-4.3l0,0l-0.5,4.5c0.1,0.6,0,1.2-0.2,1.8l0,0l0,0c-0.4,1.2-1.5,2.4-3.2,3.4l-86.3,49.8         C283.7,355.8,277.3,356,273.7,353.9"></path>							</g>						</g>					</g>					<g>						<defs>							<rect id="SVGID_77_" width="432" height="432"></rect>						</defs>						<clipPath id="SVGID_31_">							<use xlink:href="#SVGID_77_" style="overflow:visible;"></use>						</clipPath>						<g style="clip-path:url(#SVGID_31_);">							<g>																	<linearGradient id="SVGID_32_" gradientUnits="userSpaceOnUse" x1="248.1717" y1="118.6673" x2="255.1387" y2="113.6926" gradientTransform="matrix(1 0 0 -1 0 434)">									<stop offset="0" style="stop-color:#FF6600"></stop>									<stop offset="1" style="stop-color:#FF00A6"></stop>								</linearGradient>								<path id="SVGID_00000111189802917641303110000013512819846995928985_" class="st33" d="M255.5,319.7c-1.5,1.9-4.6,2.6-7,1.4         c-2.3-1.1-3-3.6-1.4-5.6s4.6-2.6,7-1.4C256.4,315.2,257,317.7,255.5,319.7"></path>							</g>						</g>					</g>					<g>						<defs>							<rect id="SVGID_80_" width="432" height="432"></rect>						</defs>						<clipPath id="SVGID_33_">							<use xlink:href="#SVGID_80_" style="overflow:visible;"></use>						</clipPath>						<path style="clip-path:url(#SVGID_33_);fill-rule:evenodd;clip-rule:evenodd;" d="M125.8,294.5v-20c0-0.4,0.3-0.5,0.8-0.2       c0.4,0.2,0.8,0.7,0.8,1.1v20c0,0.4-0.3,0.5-0.8,0.2C126.1,295.4,125.8,294.9,125.8,294.5"></path>					</g>					<g>						<defs>							<rect id="SVGID_82_" width="432" height="432"></rect>						</defs>						<clipPath id="SVGID_34_">							<use xlink:href="#SVGID_82_" style="overflow:visible;"></use>						</clipPath>						<g style="clip-path:url(#SVGID_34_);">							<g>								<defs>									<path id="SVGID_84_" d="M125.6,294.5v-20c0-0.4,0.3-0.5,0.8-0.2c0.4,0.2,0.8,0.7,0.8,1.1v20c0,0.4-0.3,0.5-0.8,0.2          C125.9,295.4,125.6,294.9,125.6,294.5"></path>								</defs>								<clipPath id="SVGID_35_">									<use xlink:href="#SVGID_84_" style="overflow:visible;"></use>								</clipPath>																	<linearGradient id="SVGID_37_" gradientUnits="userSpaceOnUse" x1="126.4984" y1="147.0331" x2="125.1884" y2="162.9131" gradientTransform="matrix(1 0 0 -1 0 434)">									<stop offset="0" style="stop-color:#FF6600"></stop>									<stop offset="0.49" style="stop-color:#FF3157"></stop>									<stop offset="0.6" style="stop-color:#FF47AF"></stop>									<stop offset="0.7" style="stop-color:#FF1880"></stop>									<stop offset="1" style="stop-color:#FF00A6"></stop>								</linearGradient>								<rect x="125.6" y="274" style="clip-path:url(#SVGID_35_);fill:url(#SVGID_37_);" width="1.5" height="21.8"></rect>							</g>						</g>					</g>					<g>						<defs>							<rect id="SVGID_87_" width="432" height="432"></rect>						</defs>						<clipPath id="SVGID_39_">							<use xlink:href="#SVGID_87_" style="overflow:visible;"></use>						</clipPath>						<g class="st38">							<g>								<defs>									<path id="SVGID_89_" d="M153.9,234.9c0.3-0.4,0.6-0.7,1.1-0.8c0.1,0,0.3-0.1,0.4-0.1c0.3,0,0.5,0.1,0.7,0.2          c0.2,0.2,0.3,0.4,0.4,0.7c0.1,0.2,0.1,0.3,0.1,0.5c0,0.5-0.2,1-0.4,1.4c-0.3,0.4-0.6,0.7-1.1,0.8c-0.1,0-0.3,0.1-0.4,0.1          c-0.3,0-0.5-0.1-0.7-0.2c-0.2-0.2-0.3-0.4-0.4-0.7c-0.1-0.2-0.1-0.3-0.1-0.5C153.4,235.8,153.6,235.3,153.9,234.9           M154.9,233.9c-0.5,0.1-0.9,0.5-1.1,0.9c-0.3,0.4-0.5,1-0.5,1.5c0,0.2,0,0.4,0.1,0.6c0.1,0.3,0.2,0.5,0.5,0.7          c0.2,0.2,0.5,0.3,0.8,0.3c0.1,0,0.3,0,0.4-0.1c0.5-0.1,0.9-0.5,1.1-0.9c0.3-0.4,0.5-1,0.5-1.5c0-0.2,0-0.4-0.1-0.6          c-0.1-0.3-0.2-0.5-0.5-0.7c-0.2-0.2-0.5-0.3-0.8-0.3C155.2,233.9,155.1,233.9,154.9,233.9z"></path>								</defs>								<clipPath id="SVGID_40_">									<use xlink:href="#SVGID_89_" style="overflow:visible;"></use>								</clipPath>																	<linearGradient id="SVGID_42_" gradientUnits="userSpaceOnUse" x1="156.0163" y1="196.5322" x2="153.6363" y2="200.3022" gradientTransform="matrix(1 0 0 -1 0 434)">									<stop offset="0" style="stop-color:#FF374C"></stop>									<stop offset="0.63" style="stop-color:#3D0822"></stop>									<stop offset="0.72" style="stop-color:#8A1C4F"></stop>									<stop offset="1" style="stop-color:#3D0B3B"></stop>								</linearGradient>								<rect x="153.3" y="233.9" style="clip-path:url(#SVGID_40_);fill:url(#SVGID_42_);" width="3.4" height="4"></rect>							</g>						</g>					</g>					<g>						<defs>							<rect id="SVGID_92_" width="432" height="432"></rect>						</defs>						<clipPath id="SVGID_43_">							<use xlink:href="#SVGID_92_" style="overflow:visible;"></use>						</clipPath>						<path style="clip-path:url(#SVGID_43_);fill-rule:evenodd;clip-rule:evenodd;" d="M155,234.2c-0.8,0.2-1.4,1.2-1.4,2.1       c0,0.9,0.6,1.5,1.4,1.2s1.4-1.2,1.4-2.1C156.4,234.5,155.8,233.9,155,234.2z"></path>					</g>					<g>						<defs>							<rect id="SVGID_94_" width="432" height="432"></rect>						</defs>						<clipPath id="SVGID_45_">							<use xlink:href="#SVGID_94_" style="overflow:visible;"></use>						</clipPath>						<path style="clip-path:url(#SVGID_45_);fill:none;stroke:#000000;stroke-width:0.4799;stroke-miterlimit:2.6131;" d="       M155,234.2c-0.8,0.2-1.4,1.2-1.4,2.1c0,0.9,0.6,1.5,1.4,1.2s1.4-1.2,1.4-2.1C156.4,234.5,155.8,233.9,155,234.2z"></path>					</g>					<g>						<defs>							<rect id="SVGID_96_" width="432" height="432"></rect>						</defs>						<clipPath id="SVGID_46_">							<use xlink:href="#SVGID_96_" style="overflow:visible;"></use>						</clipPath>						<g style="clip-path:url(#SVGID_46_);">							<g>								<defs>									<path id="SVGID_98_" d="M155,235.2c-0.3,0.1-0.5,0.4-0.5,0.8s0.2,0.6,0.5,0.5c0.3-0.1,0.5-0.4,0.5-0.8          C155.5,235.3,155.3,235.1,155,235.2"></path>								</defs>								<clipPath id="SVGID_48_">									<use xlink:href="#SVGID_98_" style="overflow:visible;"></use>								</clipPath>																	<linearGradient id="SVGID_50_" gradientUnits="userSpaceOnUse" x1="155.3241" y1="197.7393" x2="154.5641" y2="198.6993" gradientTransform="matrix(1 0 0 -1 0 434)">									<stop offset="0" style="stop-color:#FF374C"></stop>									<stop offset="0.63" style="stop-color:#3D0822"></stop>									<stop offset="0.72" style="stop-color:#8A1C4F"></stop>									<stop offset="1" style="stop-color:#3D0B3B"></stop>								</linearGradient>								<rect x="154.4" y="235.1" style="clip-path:url(#SVGID_48_);fill:url(#SVGID_50_);" width="1.1" height="1.4"></rect>							</g>						</g>					</g>					<g>						<defs>							<rect id="SVGID_101_" width="432" height="432"></rect>						</defs>						<clipPath id="SVGID_51_">							<use xlink:href="#SVGID_101_" style="overflow:visible;"></use>						</clipPath>						<path style="clip-path:url(#SVGID_51_);fill:none;stroke:#000000;stroke-width:0.4799;stroke-miterlimit:2.6131;" d="       M155,235.2c-0.3,0.1-0.5,0.4-0.5,0.8s0.2,0.6,0.5,0.5c0.3-0.1,0.5-0.4,0.5-0.8C155.5,235.3,155.3,235.1,155,235.2z"></path>					</g>					<g>						<defs>							<rect id="SVGID_103_" width="432" height="432"></rect>						</defs>						<clipPath id="SVGID_53_">							<use xlink:href="#SVGID_103_" style="overflow:visible;"></use>						</clipPath>						<g class="st46">							<g>																	<linearGradient id="SVGID_55_" gradientUnits="userSpaceOnUse" x1="234.2542" y1="262.5974" x2="130.3102" y2="253.2277" gradientTransform="matrix(1 0 0 -1 0 434)">									<stop offset="0" style="stop-color:#FF6600"></stop>									<stop offset="1" style="stop-color:#FF00A6"></stop>								</linearGradient>																	<path id="SVGID_00000053545439124497799910000001648893173578585230_" style="fill-rule:evenodd;clip-rule:evenodd;fill:url(#SVGID_55_);" d="         M232.5,149.5c-20.8-2.5-59,12.7-75.1,24.1c-1.7-2.6-2.7-5.6-4.5-11.5l-20.6,41.6l44.3-13.8c-5-2.1-6.8-2.7-10.3-6         C181.7,171,206.6,159,232.5,149.5"></path>							</g>						</g>					</g>					<g>						<defs>							<rect id="SVGID_106_" width="432" height="432"></rect>						</defs>						<clipPath id="SVGID_56_">							<use xlink:href="#SVGID_106_" style="overflow:visible;"></use>						</clipPath>						<g style="clip-path:url(#SVGID_56_);">							<g>																	<linearGradient id="SVGID_58_" gradientUnits="userSpaceOnUse" x1="166.9149" y1="94.7761" x2="229.5624" y2="65.7627" gradientTransform="matrix(1 0 0 -1 0 434)">									<stop offset="0" style="stop-color:#FF6600"></stop>									<stop offset="1" style="stop-color:#FF00A6"></stop>								</linearGradient>																	<path id="SVGID_00000116928363184116010770000010585060700165807766_" style="fill-rule:evenodd;clip-rule:evenodd;fill:url(#SVGID_58_);" d="         M158.2,353.3c12.5,9.4,42.9,13.8,57.6,12.5c0.2,2.3-0.3,4.6-1.4,9.1l28.9-19.2l-33.8-7.6c2.4,3.2,3.4,4.3,4.4,7.8         C199.1,358.4,178.5,356.8,158.2,353.3"></path>							</g>						</g>					</g>					<g>						<defs>							<rect id="SVGID_109_" width="432" height="432"></rect>						</defs>						<clipPath id="SVGID_59_">							<use xlink:href="#SVGID_109_" style="overflow:visible;"></use>						</clipPath>						<g style="clip-path:url(#SVGID_59_);">							<g>																	<linearGradient id="SVGID_61_" gradientUnits="userSpaceOnUse" x1="333.4826" y1="180.3448" x2="303.3246" y2="262.5095" gradientTransform="matrix(1 0 0 -1 0 434)">									<stop offset="0" style="stop-color:#FF6600"></stop>									<stop offset="1" style="stop-color:#FF00A6"></stop>								</linearGradient>																	<path id="SVGID_00000092445278064444326870000016521852282397324708_" style="fill-rule:evenodd;clip-rule:evenodd;fill:url(#SVGID_61_);" d="         M350.8,247.3c-2.5-17.4-23-44.9-35.7-55.5c1.7-2,3.9-3.4,8.3-6.1l-38.1-7.6L306,211c0.6-4.5,0.7-6.1,2.7-9.6         C322.4,210.9,337.5,228.4,350.8,247.3"></path>							</g>						</g>					</g>					<g>						<defs>							<rect id="SVGID_112_" width="432" height="432"></rect>						</defs>						<clipPath id="SVGID_63_">							<use xlink:href="#SVGID_112_" style="overflow:visible;"></use>						</clipPath>						<path style="clip-path:url(#SVGID_63_);fill:#FEFEFE;" d="M161.9,285.6c0.3-0.2,0.6,0,0.6,0.4c0,0.4-0.3,0.9-0.6,1       s-0.6,0-0.6-0.4S161.6,285.8,161.9,285.6 M161.8,296.1c0.3-0.1,1-0.6,1.1-0.6c1.1-0.6,2-2.2,2-3.5v-17.8c0-1.3-1.1-1.6-2.2-1       l-0.8,0.4l-7.2,4.2c-0.5,0.3-0.9,1-0.9,1.5v1.1v9.8c0,0.6,0.2,1.1,0.4,1.3c0.3,0.3,0.8,0.4,1.3,0.4l5.4-1.2       c0.4,0,0.8,0,1.1,0.3c0.3,0.2,0.4,0.6,0.4,1.1v2.1C162.5,294.7,162.5,295.5,161.8,296.1z M147.9,304.1c3.4-2,9.9-5.7,13-7.5       c0.5-0.5,0.8-1.3,0.8-1.9v-2.1c0-0.3-0.1-0.5-0.2-0.7c-0.2-0.2-0.5-0.2-0.8-0.2l-5.4,1.2h0c-0.6,0.1-1.2-0.1-1.6-0.5       c-0.4-0.4-0.6-1-0.6-1.8v-9.1l-5.1,3c-1.1,0.6-1.9,2.1-1.9,3.4v15C146,304.2,146.9,304.7,147.9,304.1z"></path>					</g>					<g>						<defs>							<rect id="SVGID_114_" width="432" height="432"></rect>						</defs>						<clipPath id="SVGID_64_">							<use xlink:href="#SVGID_114_" style="overflow:visible;"></use>						</clipPath>						<g style="clip-path:url(#SVGID_64_);">							<g>																	<linearGradient id="SVGID_66_" gradientUnits="userSpaceOnUse" x1="273.185" y1="137.0514" x2="319.2863" y2="137.0514" gradientTransform="matrix(1 0 0 -1 0 434)">									<stop offset="0" style="stop-color:#FF6600"></stop>									<stop offset="1" style="stop-color:#FF00A6"></stop>								</linearGradient>								<path id="SVGID_00000056410403103363016670000010794977108513190322_" style="fill:url(#SVGID_66_);" d="M303.9,301.6         c0.4,0.3,0.4,0.7,0,0.9c-0.4,0.3-1.1,0.3-1.6,0s-0.4-0.7,0-0.9C302.8,301.3,303.5,301.3,303.9,301.6 M292.3,308.3         c0.3,0.2,1.3,0.8,1.4,0.9c1.4,0.8,3.7,0.9,5.1,0.1l19.6-11.7c1.4-0.8,1.1-2.4-0.3-3.2l-1-0.6l-9.4-5.6         c-0.6-0.4-1.6-0.4-2.2,0l-1.2,0.7l-10.8,6.4c-0.7,0.4-1.1,0.9-1.2,1.4c-0.1,0.6,0,1.2,0.4,1.8l4.9,5.4         c0.3,0.5,0.5,1,0.4,1.5c-0.1,0.5-0.4,0.9-1,1.2l-2.3,1.4C294.3,308.2,293.5,308.7,292.3,308.3z M274.2,297.5         c4.4,2.6,12.9,7.7,16.9,10.1c0.9,0.3,1.9,0.1,2.6-0.3l2.3-1.4c0.3-0.2,0.5-0.4,0.6-0.7c0.1-0.3-0.1-0.7-0.3-1l-4.9-5.4l0,0         c-0.5-0.7-0.7-1.5-0.5-2.2c0.2-0.7,0.7-1.4,1.6-1.9l10-6l-6.7-4c-1.4-0.8-3.6-0.8-5,0l-16.5,9.8         C272.8,295.4,272.8,296.7,274.2,297.5z"></path>							</g>						</g>					</g>					<g>						<defs>							<rect id="SVGID_117_" width="432" height="432"></rect>						</defs>						<clipPath id="SVGID_67_">							<use xlink:href="#SVGID_117_" style="overflow:visible;"></use>						</clipPath>						<g style="clip-path:url(#SVGID_67_);">							<g>																	<linearGradient id="SVGID_69_" gradientUnits="userSpaceOnUse" x1="227.55" y1="324.6" x2="247.4" y2="324.6" gradientTransform="matrix(1 0 0 -1 0 434)">									<stop offset="0" style="stop-color:#FF6600"></stop>									<stop offset="1" style="stop-color:#FF00A6"></stop>								</linearGradient>								<path id="SVGID_00000146465243446548746140000014962564434894612664_" style="fill:url(#SVGID_69_);" d="M229.4,102.2         l16.2-9.3c1-0.6,1.8,0,1.8,1.4v18.8c0,1.3-0.8,2.9-1.8,3.5l-16.2,9.3c-1,0.6-1.8,0-1.8-1.4v-18.8         C227.6,104.4,228.4,102.8,229.4,102.2"></path>							</g>						</g>					</g>					<g>						<defs>							<rect id="SVGID_120_" width="432" height="432"></rect>						</defs>						<clipPath id="SVGID_70_">							<use xlink:href="#SVGID_120_" style="overflow:visible;"></use>						</clipPath>						<path style="clip-path:url(#SVGID_70_);fill:#FEFEFE;" d="M242,107.3c0.2-0.1,0.4,0,0.4,0.3s-0.2,0.6-0.4,0.7s-0.4,0-0.4-0.3       S241.8,107.4,242,107.3 M241.9,114.8c0.2-0.1,0.7-0.4,0.8-0.4c0.7-0.4,1.4-1.5,1.4-2.4V99.3c0-0.9-0.8-1.2-1.5-0.7l-0.5,0.3       l-5.1,2.9c-0.3,0.2-0.6,0.7-0.6,1.1v0.8v6.9c0,0.4,0.1,0.8,0.3,0.9c0.2,0.2,0.5,0.3,0.9,0.3l3.8-0.8c0.3,0,0.6,0,0.8,0.2       c0.2,0.2,0.3,0.4,0.3,0.8v1.5C242.4,113.8,242.4,114.3,241.9,114.8z M232.2,120.3c2.4-1.4,6.9-4,9.1-5.2       c0.4-0.3,0.6-0.9,0.6-1.3v-1.5c0-0.2-0.1-0.4-0.2-0.5c-0.1-0.1-0.3-0.2-0.5-0.1l-3.8,0.8h0c-0.4,0-0.9-0.1-1.1-0.4       s-0.4-0.7-0.4-1.3v-6.4l-3.6,2.1c-0.7,0.4-1.4,1.5-1.4,2.4v10.6C230.9,120.4,231.5,120.8,232.2,120.3z"></path>					</g>				</g>			</g>		</g>	</g></g></svg>