<svg xmlns="http://www.w3.org/2000/svg" xmlns:xlink="http://www.w3.org/1999/xlink" id="Layer_1" x="0px" y="0px" viewBox="0 0 432 432" style="enable-background:new 0 0 432 432;" xml:space="preserve"><style type="text/css">	.st0{fill:#F8ECE5;}	.st1{fill-rule:evenodd;clip-rule:evenodd;fill:url(#SVGID_2_);}	.st2{fill-rule:evenodd;clip-rule:evenodd;fill:url(#SVGID_3_);}	.st3{fill-rule:evenodd;clip-rule:evenodd;fill:url(#SVGID_5_);}	.st4{fill-rule:evenodd;clip-rule:evenodd;fill:url(#SVGID_6_);}	.st5{fill-rule:evenodd;clip-rule:evenodd;fill:url(#SVGID_7_);}	.st6{fill-rule:evenodd;clip-rule:evenodd;fill:#E6E6E6;}	.st7{fill-rule:evenodd;clip-rule:evenodd;fill:url(#SVGID_8_);}	.st8{fill-rule:evenodd;clip-rule:evenodd;fill:url(#SVGID_10_);}	.st9{fill-rule:evenodd;clip-rule:evenodd;fill:url(#SVGID_11_);}	.st10{fill-rule:evenodd;clip-rule:evenodd;fill:url(#SVGID_12_);}	.st11{fill-rule:evenodd;clip-rule:evenodd;fill:url(#SVGID_13_);}	.st12{fill-rule:evenodd;clip-rule:evenodd;fill:url(#SVGID_15_);}	.st13{fill-rule:evenodd;clip-rule:evenodd;fill:url(#SVGID_16_);}	.st14{fill-rule:evenodd;clip-rule:evenodd;fill:url(#SVGID_17_);}	.st15{fill-rule:evenodd;clip-rule:evenodd;fill:url(#SVGID_18_);}	.st16{fill-rule:evenodd;clip-rule:evenodd;fill:url(#SVGID_19_);}	.st17{fill-rule:evenodd;clip-rule:evenodd;fill:url(#SVGID_20_);filter:url(#Adobe_OpacityMaskFilter);}	.st18{mask:url(#id5_2_);fill-rule:evenodd;clip-rule:evenodd;fill:#2E1A24;}	.st19{fill-rule:evenodd;clip-rule:evenodd;fill:url(#SVGID_21_);}	.st20{fill-rule:evenodd;clip-rule:evenodd;fill:url(#SVGID_22_);}	.st21{fill-rule:evenodd;clip-rule:evenodd;fill:url(#SVGID_23_);}	.st22{fill-rule:evenodd;clip-rule:evenodd;fill:url(#SVGID_24_);}	.st23{fill-rule:evenodd;clip-rule:evenodd;fill:url(#SVGID_25_);}	.st24{fill:#FFFFFF;}	.st25{fill-rule:evenodd;clip-rule:evenodd;fill:url(#SVGID_26_);}	.st26{fill-rule:evenodd;clip-rule:evenodd;fill:url(#SVGID_27_);filter:url(#Adobe_OpacityMaskFilter_1_);}	.st27{mask:url(#id7_2_);fill-rule:evenodd;clip-rule:evenodd;fill:#2E1A24;}	.st28{fill-rule:evenodd;clip-rule:evenodd;fill:url(#SVGID_28_);}	.st29{fill-rule:evenodd;clip-rule:evenodd;fill:url(#SVGID_29_);}	.st30{fill-rule:evenodd;clip-rule:evenodd;fill:url(#SVGID_30_);}	.st31{fill-rule:evenodd;clip-rule:evenodd;fill:url(#SVGID_31_);}	.st32{fill-rule:evenodd;clip-rule:evenodd;fill:#2E1A24;}	.st33{fill-rule:evenodd;clip-rule:evenodd;fill:url(#SVGID_32_);}	.st34{fill-rule:evenodd;clip-rule:evenodd;fill:url(#SVGID_33_);}	.st35{fill:url(#SVGID_34_);}	.st36{fill:url(#SVGID_35_);}	.st37{clip-path:url(#SVGID_37_);}	.st38{clip-path:url(#SVGID_39_);}	.st39{fill-rule:evenodd;clip-rule:evenodd;fill:url(#SVGID_40_);}	.st40{clip-path:url(#SVGID_42_);fill-rule:evenodd;clip-rule:evenodd;fill:url(#SVGID_43_);}	.st41{clip-path:url(#SVGID_45_);}	.st42{fill-rule:evenodd;clip-rule:evenodd;fill:url(#SVGID_46_);}	.st43{clip-path:url(#SVGID_50_);}	.st44{fill-rule:evenodd;clip-rule:evenodd;fill:url(#SVGID_51_);}	.st45{filter:url(#Adobe_OpacityMaskFilter_2_);}	.st46{clip-path:url(#SVGID_53_);}	.st47{clip-path:url(#SVGID_55_);fill:url(#SVGID_56_);}	.st48{clip-path:url(#SVGID_53_);mask:url(#SVGID_14_);fill-rule:evenodd;clip-rule:evenodd;fill:#1A1A1A;}	.st49{clip-path:url(#SVGID_58_);}	.st50{fill-rule:evenodd;clip-rule:evenodd;fill:url(#SVGID_59_);}	.st51{clip-path:url(#SVGID_61_);fill-rule:evenodd;clip-rule:evenodd;fill:#FFFFFF;}	.st52{clip-path:url(#SVGID_63_);}	.st53{fill-rule:evenodd;clip-rule:evenodd;fill:url(#SVGID_64_);}	.st54{clip-path:url(#SVGID_66_);}	.st55{fill-rule:evenodd;clip-rule:evenodd;fill:url(#SVGID_67_);}	.st56{clip-path:url(#SVGID_69_);}	.st57{fill-rule:evenodd;clip-rule:evenodd;fill:url(#SVGID_70_);}	.st58{clip-path:url(#SVGID_72_);}	.st59{fill-rule:evenodd;clip-rule:evenodd;fill:url(#SVGID_73_);}	.st60{clip-path:url(#SVGID_75_);}	.st61{fill-rule:evenodd;clip-rule:evenodd;fill:url(#SVGID_76_);}	.st62{clip-path:url(#SVGID_78_);}	.st63{fill-rule:evenodd;clip-rule:evenodd;fill:url(#SVGID_79_);}	.st64{clip-path:url(#SVGID_81_);fill-rule:evenodd;clip-rule:evenodd;}	.st65{clip-path:url(#SVGID_83_);}	.st66{clip-path:url(#SVGID_85_);fill:url(#SVGID_86_);}	.st67{clip-path:url(#SVGID_88_);}	.st68{clip-path:url(#SVGID_90_);fill:url(#SVGID_91_);}	.st69{clip-path:url(#SVGID_93_);fill-rule:evenodd;clip-rule:evenodd;}	.st70{clip-path:url(#SVGID_95_);fill:none;stroke:#000000;stroke-width:0.4799;stroke-miterlimit:2.6131;}	.st71{clip-path:url(#SVGID_97_);}	.st72{clip-path:url(#SVGID_99_);fill:url(#SVGID_100_);}	.st73{clip-path:url(#SVGID_102_);fill:none;stroke:#000000;stroke-width:0.4799;stroke-miterlimit:2.6131;}	.st74{clip-path:url(#SVGID_104_);}	.st75{fill-rule:evenodd;clip-rule:evenodd;fill:url(#SVGID_105_);}	.st76{clip-path:url(#SVGID_107_);}	.st77{fill-rule:evenodd;clip-rule:evenodd;fill:url(#SVGID_108_);}	.st78{clip-path:url(#SVGID_110_);}	.st79{fill-rule:evenodd;clip-rule:evenodd;fill:url(#SVGID_111_);}	.st80{clip-path:url(#SVGID_113_);fill:#FEFEFE;}	.st81{clip-path:url(#SVGID_115_);}	.st82{fill:url(#SVGID_116_);}	.st83{clip-path:url(#SVGID_118_);}	.st84{fill:url(#SVGID_119_);}	.st85{clip-path:url(#SVGID_121_);fill:#FEFEFE;}	.st86{fill-rule:evenodd;clip-rule:evenodd;fill:url(#SVGID_122_);}	.st87{fill-rule:evenodd;clip-rule:evenodd;fill:url(#SVGID_123_);}	.st88{fill-rule:evenodd;clip-rule:evenodd;fill:#333333;}	.st89{fill-rule:evenodd;clip-rule:evenodd;fill:url(#SVGID_124_);}	.st90{fill-rule:evenodd;clip-rule:evenodd;fill:url(#SVGID_125_);}	.st91{fill-rule:evenodd;clip-rule:evenodd;fill:url(#SVGID_126_);}	.st92{fill-rule:evenodd;clip-rule:evenodd;fill:url(#SVGID_127_);}	.st93{filter:url(#Adobe_OpacityMaskFilter_3_);}	.st94{fill:url(#SVGID_128_);}	.st95{mask:url(#SVGID_9_);fill-rule:evenodd;clip-rule:evenodd;}	.st96{fill-rule:evenodd;clip-rule:evenodd;fill:url(#SVGID_129_);}	.st97{fill-rule:evenodd;clip-rule:evenodd;fill:url(#SVGID_130_);}	.st98{fill-rule:evenodd;clip-rule:evenodd;}	.st99{fill:url(#SVGID_131_);}	.st100{fill:#FEFEFE;}	.st101{filter:url(#Adobe_OpacityMaskFilter_4_);}	.st102{fill:url(#SVGID_132_);}	.st103{mask:url(#SVGID_4_);fill:#FF3255;}	.st104{fill:url(#SVGID_133_);}	.st105{fill-rule:evenodd;clip-rule:evenodd;fill:url(#SVGID_134_);}	.st106{fill-rule:evenodd;clip-rule:evenodd;fill:url(#SVGID_135_);}	.st107{fill-rule:evenodd;clip-rule:evenodd;fill:url(#SVGID_136_);}	.st108{fill-rule:evenodd;clip-rule:evenodd;fill:url(#SVGID_137_);}	.st109{fill-rule:evenodd;clip-rule:evenodd;fill:url(#SVGID_138_);}	.st110{fill-rule:evenodd;clip-rule:evenodd;fill:url(#SVGID_139_);}	.st111{fill:url(#SVGID_140_);}	.st112{fill-rule:evenodd;clip-rule:evenodd;fill:url(#SVGID_141_);}	.st113{fill-rule:evenodd;clip-rule:evenodd;fill:url(#SVGID_142_);}	.st114{fill-rule:evenodd;clip-rule:evenodd;fill:url(#SVGID_143_);filter:url(#Adobe_OpacityMaskFilter_5_);}	.st115{mask:url(#id0_2_);fill-rule:evenodd;clip-rule:evenodd;fill:#2E1A24;}	.st116{fill-rule:evenodd;clip-rule:evenodd;fill:url(#SVGID_144_);}	.st117{fill-rule:evenodd;clip-rule:evenodd;fill:url(#SVGID_145_);}	.st118{fill-rule:evenodd;clip-rule:evenodd;fill:url(#SVGID_146_);filter:url(#Adobe_OpacityMaskFilter_6_);}	.st119{mask:url(#id2_2_);fill-rule:evenodd;clip-rule:evenodd;fill:url(#SVGID_147_);}	.st120{fill-rule:evenodd;clip-rule:evenodd;fill:url(#SVGID_148_);filter:url(#Adobe_OpacityMaskFilter_7_);}	.st121{mask:url(#id4_2_);fill-rule:evenodd;clip-rule:evenodd;fill:url(#SVGID_149_);}	.st122{fill-rule:evenodd;clip-rule:evenodd;fill:url(#SVGID_150_);filter:url(#Adobe_OpacityMaskFilter_8_);}	.st123{mask:url(#id6_2_);fill-rule:evenodd;clip-rule:evenodd;fill:url(#SVGID_151_);}	.st124{fill-rule:evenodd;clip-rule:evenodd;fill:url(#SVGID_152_);filter:url(#Adobe_OpacityMaskFilter_9_);}	.st125{mask:url(#id8_2_);fill:#2E1A24;}	.st126{fill-rule:evenodd;clip-rule:evenodd;fill:url(#SVGID_153_);filter:url(#Adobe_OpacityMaskFilter_10_);}	.st127{mask:url(#id10_2_);fill-rule:evenodd;clip-rule:evenodd;fill:#2E1A24;}	.st128{fill:url(#SVGID_154_);}	.st129{fill-rule:evenodd;clip-rule:evenodd;fill:url(#SVGID_155_);filter:url(#Adobe_OpacityMaskFilter_11_);}	.st130{mask:url(#id12_2_);fill:#FF3255;}	.st131{fill:url(#SVGID_156_);}	.st132{fill-rule:evenodd;clip-rule:evenodd;fill:url(#SVGID_157_);}	.st133{fill-rule:evenodd;clip-rule:evenodd;fill:url(#SVGID_158_);}	.st134{fill-rule:evenodd;clip-rule:evenodd;fill:url(#SVGID_159_);}	.st135{fill-rule:evenodd;clip-rule:evenodd;fill:#666666;}	.st136{fill:none;}	.st137{fill-rule:evenodd;clip-rule:evenodd;fill:url(#SVGID_160_);}	.st138{fill-rule:evenodd;clip-rule:evenodd;fill:#4D4D4D;}	.st139{fill-rule:evenodd;clip-rule:evenodd;fill:url(#SVGID_161_);}	.st140{fill-rule:evenodd;clip-rule:evenodd;fill:url(#SVGID_162_);}	.st141{fill:url(#SVGID_163_);}	.st142{fill-rule:evenodd;clip-rule:evenodd;fill:url(#SVGID_164_);filter:url(#Adobe_OpacityMaskFilter_12_);}	.st143{mask:url(#id0_1_);fill:#FF3255;}	.st144{fill:url(#SVGID_165_);}</style><g>	<circle class="st0" cx="216" cy="216" r="216"></circle>	<g>					<linearGradient id="SVGID_2_" gradientUnits="userSpaceOnUse" x1="41717.875" y1="22065.6758" x2="40117.0273" y2="23805.0059" gradientTransform="matrix(7.200000e-02 0 0 7.200000e-02 -2730.605 -1523.1193)">			<stop offset="0" style="stop-color:#FF374C"></stop>			<stop offset="0.6314" style="stop-color:#3D0822"></stop>			<stop offset="0.7216" style="stop-color:#8A1C4F"></stop>			<stop offset="1" style="stop-color:#3D0B3B"></stop>		</linearGradient>		<path class="st1" d="M211.7,119.3l63.4-32.7l6-2.2L271,80c-4-1.8-8.2-0.5-11.9,1.7l-56,32.3L211.7,119.3L211.7,119.3z"></path>					<linearGradient id="SVGID_3_" gradientUnits="userSpaceOnUse" x1="39405.9453" y1="26578.5391" x2="41606.4766" y2="21123.459" gradientTransform="matrix(7.200000e-02 0 0 7.200000e-02 -2730.605 -1523.1193)">			<stop offset="0" style="stop-color:#FF374C"></stop>			<stop offset="0.5294" style="stop-color:#8A1C4F"></stop>			<stop offset="1" style="stop-color:#3D0B3B"></stop>		</linearGradient>		<path class="st2" d="M83.5,179.8l0.7,142c0.1,12.7,10.8,25.5,23.2,17.8L271.4,237c8.1-5.1,15-15.5,15-23.9l-0.7-120.8   c0-3.3-1.7-6.2-4.6-7.8s-6.2-1.7-9,0l-53.6,30.9c-4.2,2.4-9.1,2.4-13.3-0.2l-10.9-6.7c-4.2-2.6-9.1-2.6-13.3-0.2l-82.4,47.5   C90.2,160.7,83.5,171.4,83.5,179.8L83.5,179.8z"></path>		<path class="st6" d="M91.1,210.6l-0.5,125.8c-0.1,11.5,7.8,11.4,19,4.1l149.1-97.3c7.3-4.8,13.4-14.1,13.6-21.7l2.6-122.6   c0.1-2.9-0.3-3.6-2.6-2.2l-179.3,103C90.9,200.8,91.2,203,91.1,210.6L91.1,210.6z"></path>					<linearGradient id="SVGID_5_" gradientUnits="userSpaceOnUse" x1="93.4694" y1="212.3315" x2="279.8355" y2="212.3315" gradientTransform="matrix(1 0 0 -1 0 434)">			<stop offset="0" style="stop-color:#696161"></stop>			<stop offset="0.3" style="stop-color:#A6A6A6"></stop>			<stop offset="0.67" style="stop-color:#B5B5B5"></stop>			<stop offset="1" style="stop-color:#6B676B"></stop>		</linearGradient>		<path class="st3" d="M96.1,214.1l-2.6,124c-0.1,2.2,0,6.8,2.6,5.3l167.6-96.8c7.5-4.4,13.4-14.1,13.6-21.7l2.6-122.6   c0.1-2.9-0.3-3.6-2.6-2.2l-179.3,103C95.9,204.4,96.3,206.6,96.1,214.1L96.1,214.1z"></path>		<path class="st6" d="M99.1,215.1l-2.6,124c-0.1,2.2,0,6.8,2.6,5.3l167.6-96.8c7.5-4.4,13.4-14.1,13.6-21.7l2.6-122.6   c0.1-2.9-0.3-3.6-2.6-2.2l-179.3,103C98.9,205.4,99.3,207.6,99.1,215.1L99.1,215.1z"></path>					<linearGradient id="SVGID_6_" gradientUnits="userSpaceOnUse" x1="41383.6914" y1="22461.6406" x2="38665.6406" y2="25409.291" gradientTransform="matrix(7.200000e-02 0 0 7.200000e-02 -2730.605 -1523.1193)">			<stop offset="0" style="stop-color:#FF374C"></stop>			<stop offset="0.6314" style="stop-color:#3D0822"></stop>			<stop offset="0.7216" style="stop-color:#8A1C4F"></stop>			<stop offset="1" style="stop-color:#3D0B3B"></stop>		</linearGradient>		<path class="st4" d="M104.5,229.6l0.7,105.6c0,9.2-21,3.4-21-13.5l-0.1-11.7l-0.7-130.3c0-8.3,6.7-19.1,14.9-23.9l78.8-45.5l0,0   l3.6-2.1c3.4-2,7.2-2.3,10.8-1.1l0,0l-10.1-4.5c-4-1.8-8.2-0.5-11.9,1.7l-56,32.3l0,0l-24.9,14.4c-8.3,4.8-15,15.5-14.9,23.9   l0.7,142c0.2,33,34.9,39.1,46.9,33.8l0,0c-3.9-1.9-6.4-6.1-6.5-12.2l-0.7-104.5c-0.1-8.3,6.7-19.1,14.9-23.9l97.2-56.1l74.6-43.1   c4.2-2.4,8.1-2.9,10.8-1.6l0,0c-2.4-1.1-9.4-4.8-11.5-5.2l0,0l0,0c-2.5-0.4-5.7,0.2-9.1,2.2l-171.8,99.2   C111.2,210.5,104.5,221.3,104.5,229.6L104.5,229.6z"></path>					<linearGradient id="SVGID_7_" gradientUnits="userSpaceOnUse" x1="40419.4375" y1="23672.0586" x2="41249.9258" y2="25110.4941" gradientTransform="matrix(7.200000e-02 0 0 7.200000e-02 -2730.605 -1523.1193)">			<stop offset="0" style="stop-color:#FF6600"></stop>			<stop offset="1" style="stop-color:#FF00A6"></stop>		</linearGradient>		<path class="st5" d="M114.2,234.2l0.6,102.5c0.2,7.6-3.7,14.1-12.5,14.3c10.4,4.7,23.1-0.4,35.7-7.7l163.9-94.6   c8.3-4.8,15-15.5,15-23.9l-0.8-107.2c-0.1-8.3-6.9-11.2-15.2-6.4l-171.8,99.2C120.9,215.2,114.2,225.9,114.2,234.2L114.2,234.2z"></path>					<linearGradient id="SVGID_8_" gradientUnits="userSpaceOnUse" x1="41475.0703" y1="25420.2695" x2="42900.0703" y2="25420.2695" gradientTransform="matrix(7.200000e-02 0 0 7.200000e-02 -2730.605 -1523.1193)">			<stop offset="0" style="stop-color:#FF6600"></stop>			<stop offset="1" style="stop-color:#FF00A6"></stop>		</linearGradient>		<path class="st7" d="M318.2,286.7c-1.2,1.6-7.4,2.1-12,3.5c-4.3,1.3-8.1,2.6-11.6,4.3c-19.8,9.4-36.3,32.4-39.1,54.9   c0.1-0.1,0.3-0.5,0.4-0.3c0.2,0.3,6-7.5,10.6-11.1c15.9-12.2,28.9-16.5,51.6-16.6l0,23.2l39.9-39.8l-39.9-39.7L318.2,286.7   L318.2,286.7z"></path>		<g>			<g>									<linearGradient id="SVGID_10_" gradientUnits="userSpaceOnUse" x1="39374.9336" y1="23454.9922" x2="39578.4023" y2="23454.9922" gradientTransform="matrix(7.200000e-02 0 0 7.200000e-02 -2730.605 -1523.1193)">					<stop offset="0" style="stop-color:#FF6600"></stop>					<stop offset="1" style="stop-color:#FF00A6"></stop>				</linearGradient>				<path style="fill:url(#SVGID_10_);" d="M105.8,160.3l11.9-6.9c0.8-0.4,1.4,0,1.4,1v13.9c0,1-0.6,2.2-1.4,2.6l-11.9,6.9     c-0.8,0.4-1.4,0-1.4-1v-13.9C104.4,161.9,105,160.8,105.8,160.3L105.8,160.3z"></path>				<path class="st100" d="M107.8,173.7c1.7-1,5.1-3,6.7-3.9c0.3-0.3,0.4-0.6,0.4-1v-1.1c0-0.2,0-0.3-0.1-0.3     c-0.1-0.1-0.2-0.1-0.4-0.1l-2.8,0.6h0c-0.3,0-0.6-0.1-0.8-0.3c-0.2-0.2-0.3-0.5-0.3-0.9V162l-2.7,1.5c-0.6,0.3-1,1.1-1,1.8v7.8     C106.8,173.8,107.3,174,107.8,173.7L107.8,173.7z M115,169.6c0.1-0.1,0.5-0.3,0.6-0.3c0.6-0.3,1-1.1,1-1.8v-9.3     c0-0.7-0.6-0.9-1.1-0.6l-0.4,0.2l-3.7,2.2c-0.2,0.1-0.4,0.5-0.4,0.8v0.6v5.1c0,0.3,0.1,0.6,0.2,0.7c0.2,0.2,0.4,0.2,0.7,0.2     l2.8-0.6c0.2,0,0.4,0,0.6,0.1c0.1,0.1,0.2,0.3,0.2,0.6v1.1C115.4,168.9,115.4,169.2,115,169.6L115,169.6z M115.1,164.1     c0.2-0.1,0.3,0,0.3,0.2s-0.1,0.4-0.3,0.6s-0.3,0-0.3-0.2S114.9,164.2,115.1,164.1z"></path>			</g>			<path class="st24" d="M127.3,159.7l-2.9,1.7c-0.4,0.2-0.5,0.2-0.5-0.3v-1.9l3.2-1.9V156l-1.7,1l-1.5,0.9c0-0.8,0-1.5,0-2.3    c1.1-0.6,2.3-1.3,3.4-1.9v-1.3c-1.5,0.9-3.1,1.8-4.6,2.6v7.4c0,1,0.3,1.1,0.9,0.8l3.7-2.1L127.3,159.7L127.3,159.7z M181.1,130    v-1.1l-1.9,1.1c-0.9,0.6-1.2,0-1.2-1l1.7-1l0.7-0.4l0.9-0.5v-1c0-0.1,0-0.1,0-0.2c0-2.1-0.8-2.2-2.2-1.3c-1.8,1-2.3,2.1-2.3,4.7    c0,2.1,0.4,3.1,2.1,2.1L181.1,130L181.1,130z M178,127.8c0-1.1,0.2-1.7,1-2.2c0.4-0.3,0.8-0.2,0.9,0.1c0.1,0.3,0.1,0.6,0.1,1    l-0.3,0.2l-0.1,0l-0.6,0.4L178,127.8L178,127.8z M172.7,128.2l-1.3,0.7l1.6,5.1c0.2,0.5,0.6,0.4,1,0.1c0.4-0.2,0.8-0.6,0.9-1.3    l1.6-6.9l-1.3,0.7l-1.1,5.6c0,0.2-0.1,0.3-0.1,0.4c-0.1,0-0.1,0-0.1-0.2L172.7,128.2L172.7,128.2z M169.8,136.5l1.2-0.7v-6.6    l-1.2,0.7V136.5z M171,128.3v-1.3l-1.2,0.7v1.4L171,128.3z M166.6,138.3l1.2-0.7v-3.7c0-1.2,0.2-1.9,1.2-2.5l0.2-0.1v-1.1    l-0.5,0.3c-1.5,0.9-2.1,2-2.1,3.7L166.6,138.3L166.6,138.3z M163.3,140.2c2.3-1.3,2.5-3.7,2.5-5.8s-0.2-4.3-2.7-2.8    c-1,0.6-1.8,1-2.8,1.6c0,2.9,0,5.8,0,8.7C161.4,141.3,162.2,140.9,163.3,140.2L163.3,140.2z M163,133c1.5-0.8,1.5,0.5,1.5,2.2    c0,1.7-0.1,3-1.5,3.9c0,0-1.3,0.8-1.4,0.8v-5.5v-0.6C161.7,133.8,163,133,163,133L163,133z M159,142.7v-1.1l-0.1,0.1    c-0.8,0.5-1.1,0.3-1.1-0.7v-3l1.1-0.7v-1.1l-1.1,0.7v-2.1l-1.2,0.7v2.1l-0.7,0.4v1.1l0.7-0.4v3.3c0,1.6,0.6,1.8,1.8,1.1    L159,142.7L159,142.7z M151.2,147.2l1.2-0.7v-2.8v-1.2v-1.5c0.1-0.1,0.9-0.5,0.9-0.5c0.7-0.4,1,0,1,0.9v4l1.2-0.7v-4.4    c0-1.8-0.9-1.7-2.2-1c-0.7,0.4-1.4,0.8-2.2,1.2C151.1,142.8,151.1,145,151.2,147.2L151.2,147.2z M146.3,143.4v1.1l1.9-1.1    c0.5-0.3,0.8-0.1,0.8,0.5v0.4l-1.7,1c-0.9,0.6-1.4,1.6-1.4,2.9c0,1.4,0.4,1.8,1.4,1.3l2-1.1c0,0,0.1,0,0.1-0.1l0.9-0.5    c0-1.6,0-3.1,0-4.7c0-1.1-0.5-1.6-1.6-1L146.3,143.4L146.3,143.4z M149,145.5v0.3v0.3v0.9v0.4l-0.3,0.2l-0.4,0.3l-0.4,0.3    c-0.4,0.2-0.6,0-0.6-0.6c0-0.6,0.2-1,0.6-1.3L149,145.5L149,145.5z M140.8,153.2l1.2-0.7V147l0.7-0.4c0.8-0.5,1.2-0.1,1.2,0.9v4    l1.2-0.7v-4.4c0-1.8-0.9-1.7-2.2-1l-0.9,0.5v-2.1l-1.2,0.7V153.2L140.8,153.2z M135.5,158.4l1.2-0.7v-2.1l1.1-0.6    c1.8-1,2.2-2.6,2.2-4.6s-0.4-3.1-2.2-2c-0.8,0.4-1.6,0.9-2.4,1.4C135.5,152.6,135.5,155.5,135.5,158.4z M137,149.9l0.5-0.3    c1.2-0.7,1.2,0.2,1.2,1.5s0,2.2-1.2,2.9l-0.8,0.5c0-1.5,0-2.9,0-4.4L137,149.9L137,149.9z M134.5,156.9v-1.1l-1.9,1.1    c-0.9,0.6-1.2,0-1.2-1l1.7-1l0.7-0.4l0.9-0.5v-1c0-0.1,0-0.1,0-0.2c0-2.1-0.8-2.2-2.2-1.3c-1.8,1-2.3,2.1-2.3,4.7    c0,2.1,0.4,3.1,2.1,2.1L134.5,156.9L134.5,156.9z M131.4,154.7c0-1.1,0.2-1.7,1-2.2c0.4-0.3,0.8-0.2,0.9,0.1    c0.1,0.3,0.1,0.6,0.1,1l-0.3,0.2l-0.1,0l-0.6,0.4L131.4,154.7L131.4,154.7z M128.1,160.5l1.2-0.7v-8.7l-1.2,0.7V160.5z"></path>		</g>		<g>			<g>				<path class="st100" d="M170.1,260c2.7-1.6,8-4.6,10.5-6.1c0.4-0.4,0.7-1,0.7-1.5v-1.7c0-0.2-0.1-0.4-0.2-0.5     c-0.2-0.1-0.4-0.2-0.6-0.2l-4.4,1h0c-0.5,0.1-1-0.1-1.3-0.4c-0.3-0.3-0.5-0.8-0.5-1.5v-7.4l-4.2,2.4c-0.9,0.5-1.6,1.7-1.6,2.8     v12.2C168.6,260.1,169.2,260.5,170.1,260L170.1,260z M181.3,253.6c0.2-0.1,0.8-0.4,0.9-0.5c0.9-0.5,1.6-1.8,1.6-2.8v-14.5     c0-1-0.9-1.4-1.8-0.9l-0.6,0.4l-5.8,3.4c-0.4,0.2-0.7,0.8-0.7,1.2v0.9v8c0,0.5,0.1,0.9,0.4,1.1c0.3,0.3,0.6,0.4,1.1,0.3l4.4-1     c0.4,0,0.7,0,0.9,0.2c0.2,0.2,0.3,0.5,0.3,0.9v1.7C181.9,252.4,181.9,253,181.3,253.6L181.3,253.6z M181.4,244.9     c0.3-0.1,0.5,0,0.5,0.3s-0.2,0.7-0.5,0.9c-0.3,0.1-0.5,0-0.5-0.3C180.9,245.5,181.2,245.1,181.4,244.9z"></path>			</g>			<path class="st24" d="M196.8,240.3l-4.5,2.6c-0.7,0.4-0.8,0.3-0.8-0.5v-2.9l5.1-2.9v-2.1l-2.7,1.6l-2.4,1.4c0-1.2,0-2.4,0-3.6    c1.7-1,3.6-2.1,5.2-3v-2.1c-2.4,1.4-4.8,2.8-7.2,4.1v11.6c0,1.6,0.4,1.8,1.4,1.2l5.8-3.4L196.8,240.3L196.8,240.3z M281,193.8    V192l-2.9,1.7c-1.5,0.9-1.9,0-1.9-1.6l2.6-1.5l1.1-0.7l1.3-0.8v-1.6c0-0.1,0-0.2,0-0.3c0-3.3-1.2-3.4-3.5-2.1    c-2.8,1.6-3.5,3.2-3.5,7.3c0,3.3,0.7,4.8,3.3,3.3L281,193.8L281,193.8z M276.2,190.4c0-1.8,0.2-2.7,1.6-3.4    c0.7-0.4,1.2-0.4,1.4,0.1c0.2,0.4,0.1,1,0.1,1.5l-0.4,0.2l-0.1,0l-1,0.6L276.2,190.4L276.2,190.4z M267.9,191l-2,1.1l2.5,7.9    c0.2,0.8,0.9,0.6,1.5,0.2c0.7-0.4,1.2-0.9,1.5-2l2.5-10.8l-2,1.1l-1.8,8.7c-0.1,0.3-0.1,0.5-0.2,0.5c-0.1,0.1-0.2-0.1-0.2-0.3    L267.9,191L267.9,191z M263.3,204l1.9-1.1v-10.4l-1.9,1.1V204z M265.2,191.2v-2.1l-1.9,1.1v2.1L265.2,191.2z M258.3,206.9    l1.9-1.1V200c0-1.8,0.4-3,1.9-3.9l0.3-0.2v-1.8l-0.8,0.5c-2.3,1.4-3.4,3.1-3.4,5.8L258.3,206.9L258.3,206.9z M253.1,209.9    c3.6-2.1,3.9-5.8,3.9-9.1s-0.3-6.7-4.2-4.4c-1.6,0.9-2.7,1.6-4.3,2.5c0,4.6,0,9.1,0,13.7C250.1,211.6,251.4,210.9,253.1,209.9    L253.1,209.9z M252.6,198.6c2.3-1.2,2.4,0.8,2.4,3.4s-0.1,4.7-2.4,6.2c0,0-2,1.2-2.2,1.3v-8.6v-1    C250.6,199.7,252.6,198.6,252.6,198.6z M246.4,213.8V212l-0.1,0.1c-1.3,0.8-1.7,0.4-1.7-1.1v-4.8l1.8-1v-1.8l-1.8,1v-3.3    l-1.9,1.1v3.3l-1,0.6v1.8l1-0.6v5.2c0,2.5,0.9,2.9,2.9,1.7L246.4,213.8L246.4,213.8z M234.1,220.9l1.9-1.1v-4.3v-1.9v-2.3    c0.2-0.1,1.3-0.8,1.3-0.8c1.1-0.6,1.6,0,1.6,1.4v6.2l1.9-1.1v-6.8c0-2.7-1.4-2.7-3.4-1.6c-1.1,0.6-2.2,1.3-3.4,1.9    C234.1,213.9,234.1,217.4,234.1,220.9L234.1,220.9z M226.5,214.9v1.8l2.9-1.7c0.8-0.5,1.2-0.2,1.2,0.8v0.7l-2.6,1.5    c-1.5,0.9-2.2,2.5-2.2,4.5c0,2.1,0.7,2.8,2.2,2l3.1-1.8c0,0,0.1-0.1,0.1-0.1l1.4-0.8c0-2.4,0-4.9,0-7.3c0-1.8-0.8-2.6-2.4-1.6    L226.5,214.9L226.5,214.9z M230.7,218.1v0.5v0.5v1.4v0.6l-0.5,0.3l-0.7,0.4l-0.7,0.4c-0.7,0.4-0.9,0-0.9-0.9c0-1,0.3-1.6,0.9-2    L230.7,218.1L230.7,218.1z M217.9,230.2l1.9-1.1v-8.6l1.1-0.6c1.3-0.8,1.8-0.2,1.8,1.3v6.2l1.9-1.1v-6.8c0-2.7-1.4-2.7-3.4-1.6    l-1.5,0.8v-3.3l-1.9,1.1V230.2L217.9,230.2z M209.5,238.4l1.9-1.1v-3.3l1.8-1c2.8-1.6,3.4-4,3.4-7.2s-0.6-4.8-3.4-3.2    c-1.2,0.7-2.5,1.4-3.7,2.1C209.5,229.2,209.5,233.8,209.5,238.4L209.5,238.4z M211.9,225.1l0.8-0.5c1.9-1.1,1.9,0.4,1.9,2.3    s0,3.5-1.9,4.5l-1.3,0.8c0-2.3,0-4.6,0-6.8L211.9,225.1L211.9,225.1z M208,235.9v-1.8l-2.9,1.7c-1.5,0.9-1.9,0-1.9-1.6l2.6-1.5    l1.1-0.7l1.3-0.8v-1.6c0-0.1,0-0.2,0-0.3c0-3.3-1.2-3.4-3.5-2.1c-2.8,1.6-3.6,3.2-3.6,7.3c0,3.3,0.7,4.8,3.3,3.3L208,235.9    L208,235.9z M203.2,232.5c0-1.8,0.2-2.7,1.6-3.4c0.7-0.4,1.2-0.4,1.4,0.1c0.2,0.4,0.1,1,0.1,1.5l-0.4,0.2l-0.1,0l-1,0.6    L203.2,232.5L203.2,232.5z M198.1,241.7l1.9-1.1v-13.7l-1.9,1.1V241.7z"></path>		</g>	</g></g></svg>