<svg xmlns="http://www.w3.org/2000/svg" xmlns:xlink="http://www.w3.org/1999/xlink" id="Layer_1" x="0px" y="0px" width="1071.5px" height="695.6px" viewBox="0 0 1071.5 695.6" style="enable-background:new 0 0 1071.5 695.6;" xml:space="preserve"><style type="text/css">	.st0{fill:#323232;}			.st1{clip-path:url(#SVGID_00000106110215066779642940000010446509773185828513_);fill:url(#SVGID_00000129907155961400300210000012921254002682829982_);}			.st2{clip-path:url(#SVGID_00000134970810528172605170000011117124672920622012_);fill:url(#SVGID_00000105390370672140856440000004930654553510877571_);}	.st3{fill:url(#SVGID_00000119098649959134438690000018242133158546727087_);}	.st4{fill:url(#SVGID_00000049207089182544890480000007296328879930589104_);}	.st5{fill:url(#SVGID_00000013156515218010345050000004628960685551810715_);}	.st6{fill:url(#SVGID_00000153682318285786568810000007869188369234905221_);}	.st7{fill:url(#SVGID_00000001642184102338573620000015612065944925100213_);}	.st8{fill:url(#SVGID_00000113337731583193932070000000806755459254034824_);}	.st9{fill:url(#SVGID_00000180350392036489639530000005285163888379429778_);}	.st10{fill:url(#SVGID_00000179621939428365624180000013877263841685427095_);}	.st11{fill:url(#SVGID_00000181045273138299129780000005578779793103899034_);}	.st12{fill:url(#SVGID_00000155831616250985898310000005622915617000700571_);}</style><g>	<g>		<path class="st0" d="M217.7,520.2l8.9-20.3h2.9l8.9,20.3h-3.5l-2.3-5.3h-9.1l-2.3,5.3H217.7z M228,504.4l-3.3,7.5h6.5L228,504.4z"></path>		<path class="st0" d="M246.8,520.5c-2.2,0-4-0.7-5.4-2.1c-1.4-1.4-2.2-3.2-2.2-5.3c0-2.1,0.7-3.9,2.2-5.3c1.4-1.4,3.2-2.1,5.4-2.1   c1.5,0,2.8,0.4,4,1.1c1.2,0.7,2.1,1.7,2.7,2.9l-2.7,1.5c-0.4-0.8-0.9-1.4-1.6-1.8s-1.5-0.7-2.3-0.7c-1.3,0-2.3,0.4-3.1,1.3   c-0.8,0.9-1.2,1.9-1.2,3.2c0,1.3,0.4,2.4,1.2,3.2c0.8,0.9,1.9,1.3,3.1,1.3c0.9,0,1.7-0.2,2.3-0.7s1.2-1.1,1.6-1.8l2.7,1.5   c-0.6,1.2-1.5,2.2-2.7,2.9C249.6,520.2,248.3,520.5,246.8,520.5z"></path>		<path class="st0" d="M262.6,520.4c-1.5,0-2.6-0.4-3.5-1.2s-1.4-2-1.4-3.5v-6.9h-3v-2.8h3v-4h3.2v4h4.1v2.8h-4.1v6.4   c0,0.9,0.2,1.5,0.6,1.9c0.4,0.4,1,0.6,1.8,0.6c0.7,0,1.2-0.1,1.7-0.3v2.8C264.3,520.3,263.5,520.4,262.6,520.4z"></path>		<path class="st0" d="M269.5,502.8c-0.6,0-1.1-0.2-1.5-0.6c-0.4-0.4-0.6-0.9-0.6-1.5c0-0.6,0.2-1.1,0.6-1.5   c0.4-0.4,0.9-0.6,1.5-0.6c0.6,0,1.1,0.2,1.5,0.6c0.4,0.4,0.6,0.9,0.6,1.5c0,0.6-0.2,1.1-0.6,1.5   C270.6,502.6,270.1,502.8,269.5,502.8z M267.9,520.2v-14.3h3.1v14.3H267.9z"></path>		<path class="st0" d="M279.8,520.2l-6.5-14.3h3.5l4.4,10.1l4.4-10.1h3.5l-6.5,14.3H279.8z"></path>		<path class="st0" d="M296.8,520.5c-1.9,0-3.6-0.7-4.9-2.2c-1.3-1.5-2-3.2-2-5.3c0-2.1,0.7-3.8,2-5.3c1.3-1.5,3-2.2,4.9-2.2   c1,0,1.9,0.2,2.7,0.6c0.8,0.4,1.5,0.9,1.9,1.6v-1.9h3.1v14.3h-3.1v-1.9c-0.4,0.6-1.1,1.1-1.9,1.6   C298.7,520.3,297.8,520.5,296.8,520.5z M294.3,516.4c0.8,0.9,1.8,1.3,3.1,1.3c1.2,0,2.3-0.4,3.1-1.3s1.2-2,1.2-3.3   c0-1.3-0.4-2.4-1.2-3.3s-1.8-1.3-3.1-1.3c-1.2,0-2.3,0.4-3.1,1.3c-0.8,0.9-1.2,2-1.2,3.3C293.1,514.4,293.5,515.5,294.3,516.4z"></path>		<path class="st0" d="M315,520.4c-1.5,0-2.6-0.4-3.5-1.2s-1.4-2-1.4-3.5v-6.9h-3v-2.8h3v-4h3.2v4h4.1v2.8h-4.1v6.4   c0,0.9,0.2,1.5,0.6,1.9c0.4,0.4,1,0.6,1.8,0.6c0.7,0,1.2-0.1,1.7-0.3v2.8C316.7,520.3,315.9,520.4,315,520.4z"></path>		<path class="st0" d="M326.6,520.5c-2.2,0-4-0.7-5.4-2.1c-1.4-1.4-2.1-3.2-2.1-5.4c0-2.1,0.7-3.9,2.1-5.3c1.4-1.4,3.2-2.1,5.4-2.1   c2,0,3.6,0.6,4.9,1.9c1.3,1.3,2,3,2,5.2c0,0.4,0,0.7,0,1h-11.3c0.1,1.2,0.5,2.1,1.3,2.8c0.8,0.7,1.8,1.1,3.1,1.1   c1.8,0,3.2-0.7,4.1-2.2l2.4,1.7C331.7,519.4,329.6,520.5,326.6,520.5z M322.4,511.5h8c-0.2-1-0.6-1.8-1.3-2.3   c-0.7-0.6-1.6-0.8-2.5-0.8c-1,0-1.9,0.3-2.6,0.8C323.1,509.7,322.6,510.5,322.4,511.5z"></path>		<path class="st0" d="M355.3,518.4c-1.4,1.4-3.2,2.2-5.3,2.2s-3.9-0.7-5.3-2.2c-1.4-1.4-2.2-3.2-2.2-5.3c0-2.1,0.7-3.8,2.2-5.3   c1.4-1.4,3.2-2.2,5.3-2.2s3.9,0.7,5.3,2.2s2.2,3.2,2.2,5.3C357.4,515.2,356.7,516.9,355.3,518.4z M349.9,517.6   c1.2,0,2.3-0.4,3.1-1.3s1.2-1.9,1.2-3.2c0-1.3-0.4-2.4-1.2-3.2c-0.8-0.9-1.8-1.3-3.1-1.3c-1.3,0-2.3,0.4-3.1,1.3   c-0.8,0.9-1.2,1.9-1.2,3.2c0,1.3,0.4,2.4,1.2,3.2C347.6,517.2,348.7,517.6,349.9,517.6z"></path>		<path class="st0" d="M360.6,520.2v-14.3h3.1v1.9c0.9-1.5,2.3-2.2,4.4-2.2c1.7,0,3,0.5,4,1.6c1,1.1,1.5,2.5,1.5,4.4v8.6h-3.1v-8.1   c0-1.1-0.3-2-0.8-2.7c-0.5-0.6-1.3-1-2.2-1c-1.1,0-2,0.4-2.7,1.2c-0.7,0.8-1,2-1,3.5v7H360.6z"></path>		<path class="st0" d="M390.2,520.5c-1.9,0-3.6-0.7-4.9-2.2c-1.3-1.5-2-3.2-2-5.3c0-2.1,0.7-3.8,2-5.3c1.3-1.5,3-2.2,4.9-2.2   c1,0,1.9,0.2,2.7,0.6c0.8,0.4,1.5,0.9,1.9,1.6v-1.9h3.1v14.3h-3.1v-1.9c-0.4,0.6-1.1,1.1-1.9,1.6   C392.1,520.3,391.2,520.5,390.2,520.5z M387.7,516.4c0.8,0.9,1.8,1.3,3.1,1.3c1.2,0,2.3-0.4,3.1-1.3s1.2-2,1.2-3.3   c0-1.3-0.4-2.4-1.2-3.3s-1.8-1.3-3.1-1.3c-1.2,0-2.3,0.4-3.1,1.3c-0.8,0.9-1.2,2-1.2,3.3C386.5,514.4,386.9,515.5,387.7,516.4z"></path>		<path class="st0" d="M402.2,520.2v-21.5h3.1v21.5H402.2z"></path>		<path class="st0" d="M409.6,520.2v-21.5h3.1v21.5H409.6z"></path>		<path class="st0" d="M224.3,560.6h-3.5l3.1-6.8l-6.2-13.5h3.5l4.4,10.1l4.4-10.1h3.5L224.3,560.6z"></path>		<path class="st0" d="M247.1,552.7c-1.4,1.4-3.2,2.2-5.3,2.2s-3.9-0.7-5.3-2.2c-1.4-1.4-2.2-3.2-2.2-5.3c0-2.1,0.7-3.8,2.2-5.3   c1.4-1.4,3.2-2.2,5.3-2.2s3.9,0.7,5.3,2.2s2.2,3.2,2.2,5.3C249.3,549.5,248.6,551.3,247.1,552.7z M241.8,552   c1.2,0,2.3-0.4,3.1-1.3s1.2-1.9,1.2-3.2c0-1.3-0.4-2.4-1.2-3.2c-0.8-0.9-1.8-1.3-3.1-1.3c-1.3,0-2.3,0.4-3.1,1.3   c-0.8,0.9-1.2,1.9-1.2,3.2c0,1.3,0.4,2.4,1.2,3.2C239.5,551.5,240.5,552,241.8,552z"></path>		<path class="st0" d="M257.6,554.9c-1.6,0-2.9-0.5-3.9-1.6c-1-1.1-1.4-2.6-1.4-4.4v-8.6h3.2v8c0,1.1,0.2,2,0.7,2.7   c0.5,0.7,1.2,1,2.1,1c1.1,0,1.9-0.4,2.5-1.2c0.6-0.8,0.9-2,0.9-3.5v-7h3.1v14.3h-3.1v-1.9C261,554.2,259.6,554.9,257.6,554.9z"></path>		<path class="st0" d="M269.2,554.6v-14.3h3.1v2.5c0.3-0.8,0.8-1.5,1.5-1.9s1.5-0.7,2.3-0.7c0.5,0,0.9,0,1.2,0.1v3.2   c-0.5-0.2-1-0.3-1.6-0.3c-1,0-1.8,0.4-2.4,1.2c-0.7,0.8-1,1.8-1,3.2v7H269.2z"></path>		<path class="st0" d="M292,554.9c-1.9,0-3.6-0.7-4.9-2.2c-1.3-1.5-2-3.2-2-5.3s0.7-3.8,2-5.3c1.3-1.5,3-2.2,4.9-2.2   c1,0,1.9,0.2,2.7,0.6c0.8,0.4,1.5,0.9,1.9,1.6v-9.1h3.1v21.5h-3.1v-1.9c-0.4,0.6-1.1,1.1-1.9,1.6   C293.8,554.7,292.9,554.9,292,554.9z M289.5,550.7c0.8,0.9,1.8,1.3,3.1,1.3c1.2,0,2.3-0.4,3.1-1.3s1.2-2,1.2-3.3   c0-1.3-0.4-2.4-1.2-3.3s-1.8-1.3-3.1-1.3c-1.2,0-2.3,0.4-3.1,1.3c-0.8,0.9-1.2,2-1.2,3.3C288.3,548.7,288.7,549.8,289.5,550.7z"></path>		<path class="st0" d="M310.4,554.9c-2.2,0-4-0.7-5.4-2.1c-1.4-1.4-2.1-3.2-2.1-5.4c0-2.1,0.7-3.9,2.1-5.3c1.4-1.4,3.2-2.1,5.4-2.1   c2,0,3.6,0.6,4.9,1.9c1.3,1.3,2,3,2,5.2c0,0.4,0,0.7,0,1h-11.3c0.1,1.2,0.5,2.1,1.3,2.8c0.8,0.7,1.8,1.1,3.1,1.1   c1.8,0,3.2-0.7,4.1-2.2l2.4,1.7C315.6,553.8,313.4,554.9,310.4,554.9z M306.2,545.8h8c-0.2-1-0.6-1.8-1.3-2.3   c-0.7-0.6-1.6-0.8-2.5-0.8c-1,0-1.9,0.3-2.6,0.8C306.9,544.1,306.4,544.8,306.2,545.8z"></path>		<path class="st0" d="M324.8,554.6l-6.5-14.3h3.5l4.4,10.1l4.4-10.1h3.5l-6.5,14.3H324.8z"></path>		<path class="st0" d="M337.8,537.2c-0.6,0-1.1-0.2-1.5-0.6c-0.4-0.4-0.6-0.9-0.6-1.5c0-0.6,0.2-1.1,0.6-1.5   c0.4-0.4,0.9-0.6,1.5-0.6c0.6,0,1.1,0.2,1.5,0.6c0.4,0.4,0.6,0.9,0.6,1.5c0,0.6-0.2,1.1-0.6,1.5   C338.9,537,338.4,537.2,337.8,537.2z M336.2,554.6v-14.3h3.1v14.3H336.2z"></path>		<path class="st0" d="M350.2,554.9c-2.2,0-4-0.7-5.4-2.1c-1.4-1.4-2.2-3.2-2.2-5.3c0-2.1,0.7-3.9,2.2-5.3c1.4-1.4,3.2-2.1,5.4-2.1   c1.5,0,2.8,0.4,4,1.1c1.2,0.7,2.1,1.7,2.7,2.9l-2.7,1.5c-0.4-0.8-0.9-1.4-1.6-1.8s-1.5-0.7-2.3-0.7c-1.3,0-2.3,0.4-3.1,1.3   c-0.8,0.9-1.2,1.9-1.2,3.2c0,1.3,0.4,2.4,1.2,3.2c0.8,0.9,1.9,1.3,3.1,1.3c0.9,0,1.7-0.2,2.3-0.7s1.2-1.1,1.6-1.8l2.7,1.5   c-0.6,1.2-1.5,2.2-2.7,2.9C352.9,554.5,351.6,554.9,350.2,554.9z"></path>		<path class="st0" d="M366.2,554.9c-2.2,0-4-0.7-5.4-2.1c-1.4-1.4-2.1-3.2-2.1-5.4c0-2.1,0.7-3.9,2.1-5.3c1.4-1.4,3.2-2.1,5.4-2.1   c2,0,3.6,0.6,4.9,1.9c1.3,1.3,2,3,2,5.2c0,0.4,0,0.7,0,1h-11.3c0.1,1.2,0.5,2.1,1.3,2.8c0.8,0.7,1.8,1.1,3.1,1.1   c1.8,0,3.2-0.7,4.1-2.2l2.4,1.7C371.3,553.8,369.2,554.9,366.2,554.9z M362,545.8h8c-0.2-1-0.6-1.8-1.3-2.3   c-0.7-0.6-1.6-0.8-2.5-0.8c-1,0-1.9,0.3-2.6,0.8C362.7,544.1,362.2,544.8,362,545.8z"></path>		<path class="st0" d="M380.9,554.9c-1.3,0-2.5-0.3-3.5-0.8c-1-0.5-1.8-1.3-2.3-2.3l2.3-1.7c0.3,0.6,0.7,1.1,1.4,1.4   s1.3,0.5,2.1,0.5c0.6,0,1.1-0.1,1.5-0.4c0.4-0.3,0.6-0.6,0.6-1.1c0-0.4-0.2-0.8-0.5-1c-0.3-0.3-0.9-0.5-1.7-0.8l-1.3-0.3   c-2.5-0.7-3.8-2.1-3.8-4.4c0-1.2,0.5-2.2,1.5-3c1-0.7,2.2-1.1,3.7-1.1c2.2,0,3.8,0.8,4.8,2.4l-2.2,1.7c-0.7-1-1.6-1.5-2.7-1.5   c-0.5,0-1,0.1-1.3,0.4c-0.4,0.2-0.6,0.6-0.6,1c0,0.4,0.1,0.7,0.4,1c0.2,0.3,0.7,0.5,1.3,0.7l1.5,0.4c1.3,0.4,2.3,0.9,3,1.6   s1,1.6,1,2.7c0,1.4-0.5,2.4-1.5,3.2S382.4,554.9,380.9,554.9z"></path>	</g>	<g>		<path class="st0" d="M260.9,112.7c-1.7,0-3.2-0.3-4.5-1c-1.3-0.7-2.3-1.6-2.9-2.7l2.7-2.1c1.2,1.8,2.8,2.7,4.9,2.7   c1,0,1.8-0.2,2.4-0.7c0.6-0.5,0.9-1.1,0.9-1.9c0-1.4-1-2.5-3-3.2l-2.3-0.8c-1.7-0.6-2.9-1.4-3.7-2.3c-0.8-1-1.2-2.1-1.2-3.5   c0-1.8,0.6-3.2,1.9-4.3c1.3-1.1,2.9-1.6,4.9-1.6c2.6,0,4.8,1,6.3,2.9l-2.4,2.3c-1.1-1.3-2.4-1.9-4-1.9c-0.9,0-1.7,0.2-2.3,0.6   c-0.6,0.4-1,1-1,1.8c0,0.7,0.2,1.3,0.7,1.7c0.5,0.4,1.3,0.8,2.5,1.3l2.1,0.8c1.6,0.6,2.8,1.4,3.7,2.4c0.8,1,1.3,2.2,1.2,3.7   c0,1.8-0.6,3.3-1.9,4.4C264.6,112.2,262.9,112.7,260.9,112.7z"></path>		<path class="st0" d="M272.7,94.4c-0.6,0-1.1-0.2-1.5-0.6c-0.4-0.4-0.6-0.9-0.6-1.5c0-0.6,0.2-1.1,0.6-1.5c0.4-0.4,0.9-0.6,1.5-0.6   c0.6,0,1.1,0.2,1.5,0.6c0.4,0.4,0.6,0.9,0.6,1.5c0,0.6-0.2,1.1-0.6,1.5C273.9,94.2,273.4,94.4,272.7,94.4z M271.1,112.4V97.6h3.2   v14.7H271.1z"></path>		<path class="st0" d="M285,118.8c-1.4,0-2.8-0.2-4-0.7c-1.2-0.5-2.2-1.1-2.9-2l2-2.3c1.3,1.4,2.9,2.1,4.9,2.1   c1.3,0,2.3-0.4,3.2-1.2c0.8-0.8,1.3-1.9,1.3-3.4V110c-0.5,0.7-1.1,1.2-2,1.6c-0.8,0.4-1.8,0.6-2.7,0.6c-2,0-3.7-0.7-5-2.2   c-1.4-1.4-2-3.2-2-5.3c0-2.1,0.7-3.8,2-5.3c1.4-1.4,3-2.2,5-2.2c1,0,1.9,0.2,2.7,0.6c0.8,0.4,1.5,1,2,1.6v-2h3.2v13.7   c0,2.5-0.7,4.3-2.1,5.6C289.2,118.2,287.3,118.8,285,118.8z M282.2,108c0.8,0.9,1.9,1.3,3.1,1.3s2.3-0.4,3.1-1.3   c0.8-0.9,1.3-1.9,1.3-3.2c0-1.3-0.4-2.4-1.3-3.2c-0.8-0.9-1.9-1.3-3.1-1.3s-2.3,0.4-3.1,1.3c-0.8,0.9-1.3,1.9-1.3,3.2   C281,106.1,281.4,107.2,282.2,108z"></path>		<path class="st0" d="M297,112.4V97.6h3.2v2c0.9-1.5,2.4-2.3,4.5-2.3c1.7,0,3.1,0.6,4.1,1.7c1,1.1,1.5,2.6,1.5,4.5v8.9h-3.2V104   c0-1.2-0.3-2.1-0.8-2.8c-0.5-0.7-1.3-1-2.2-1c-1.1,0-2,0.4-2.7,1.3c-0.7,0.8-1.1,2-1.1,3.6v7.2H297z"></path>		<path class="st0" d="M329.9,112.7c-2.5,0-4.5-0.8-6-2.3c-1.5-1.5-2.3-3.6-2.3-6.2V91.5h3.4v12.8c0,1.6,0.4,2.9,1.3,3.8   c0.9,0.9,2.1,1.4,3.6,1.4c1.5,0,2.7-0.5,3.5-1.4c0.9-0.9,1.3-2.2,1.3-3.8V91.5h3.4v12.7c0,2.6-0.8,4.6-2.3,6.2   C334.3,111.9,332.3,112.7,329.9,112.7z"></path>		<path class="st0" d="M345.6,118.5h-3.2V97.6h3.2v2c0.5-0.6,1.1-1.2,2-1.6c0.9-0.4,1.8-0.7,2.8-0.7c2,0,3.7,0.7,5,2.2   c1.4,1.5,2,3.3,2,5.4c0,2.1-0.7,3.9-2,5.4c-1.4,1.5-3,2.2-5,2.2c-1,0-1.9-0.2-2.8-0.7c-0.9-0.4-1.5-1-2-1.6V118.5z M349.7,109.7   c1.3,0,2.3-0.4,3.1-1.4c0.8-0.9,1.2-2,1.2-3.4s-0.4-2.5-1.2-3.4c-0.8-0.9-1.9-1.4-3.1-1.4c-1.3,0-2.4,0.5-3.2,1.4   c-0.8,0.9-1.2,2-1.2,3.4s0.4,2.5,1.2,3.4C347.4,109.3,348.4,109.7,349.7,109.7z"></path>		<path class="st0" d="M368.8,112.4v-11.8h-3.1v-2.9h3.1v-2.5c0-1.6,0.5-2.8,1.4-3.7c0.9-0.9,2.1-1.3,3.6-1.3c0.9,0,1.7,0.1,2.4,0.4   v2.9c-0.5-0.2-1-0.3-1.7-0.3c-0.9,0-1.5,0.2-1.9,0.6c-0.4,0.4-0.6,1-0.6,1.9v2.1h4.2v2.9H372v11.8H368.8z"></path>		<path class="st0" d="M390.6,110.4c-1.5,1.5-3.3,2.2-5.5,2.2c-2.2,0-4-0.7-5.5-2.2c-1.5-1.5-2.2-3.3-2.2-5.4c0-2.1,0.7-3.9,2.2-5.4   c1.5-1.5,3.3-2.2,5.5-2.2c2.2,0,4,0.7,5.5,2.2c1.5,1.5,2.2,3.3,2.2,5.4C392.8,107.1,392,108.9,390.6,110.4z M385.1,109.6   c1.3,0,2.3-0.4,3.2-1.3c0.8-0.9,1.3-2,1.3-3.3c0-1.3-0.4-2.4-1.3-3.3c-0.8-0.9-1.9-1.3-3.2-1.3c-1.3,0-2.4,0.4-3.2,1.3   c-0.8,0.9-1.3,2-1.3,3.3c0,1.3,0.4,2.4,1.3,3.3C382.7,109.2,383.8,109.6,385.1,109.6z"></path>		<path class="st0" d="M396,112.4V97.6h3.2v2.6c0.3-0.8,0.8-1.5,1.5-2c0.7-0.5,1.5-0.8,2.4-0.8c0.5,0,0.9,0,1.3,0.1v3.3   c-0.5-0.2-1-0.3-1.6-0.3c-1,0-1.8,0.4-2.5,1.2c-0.7,0.8-1,1.9-1,3.3v7.2H396z"></path>		<path class="st0" d="M255,147.7v-20.9h12.6v3.3h-9.1v5.4h7.4v3.3h-7.4v5.6h9.1v3.3H255z"></path>		<path class="st0" d="M271.1,147.7v-22.1h3.2v22.1H271.1z"></path>		<path class="st0" d="M285.4,148c-2.2,0-4.1-0.7-5.5-2.1c-1.4-1.4-2.2-3.3-2.2-5.5c0-2.2,0.7-4,2.2-5.5c1.5-1.5,3.3-2.2,5.5-2.2   c2,0,3.7,0.6,5.1,1.9c1.3,1.3,2,3.1,2,5.4c0,0.4,0,0.7,0,1.1h-11.6c0.1,1.2,0.5,2.2,1.4,2.9c0.8,0.7,1.9,1.1,3.1,1.1   c1.9,0,3.3-0.7,4.2-2.2l2.5,1.8C290.7,146.8,288.4,148,285.4,148z M281,138.7h8.2c-0.2-1-0.6-1.8-1.4-2.4   c-0.7-0.6-1.6-0.9-2.6-0.9c-1,0-1.9,0.3-2.7,0.9C281.7,136.8,281.2,137.6,281,138.7z"></path>		<path class="st0" d="M317.1,147.7h-3.2v-22.1h3.2v9.4c0.9-1.5,2.4-2.3,4.5-2.3c1.7,0,3.1,0.6,4.1,1.7c1,1.1,1.5,2.6,1.5,4.5v8.9   h-3.2v-8.3c0-1.2-0.3-2.1-0.8-2.8c-0.5-0.7-1.3-1-2.2-1c-1.1,0-2,0.4-2.7,1.3c-0.7,0.8-1.1,2-1.1,3.6V147.7z"></path>		<path class="st0" d="M299.3,153.8H296v-20.9h3.2v2c0.5-0.6,1.1-1.2,2-1.6c0.9-0.4,1.8-0.7,2.8-0.7c2,0,3.7,0.7,5,2.2   c1.4,1.5,2,3.3,2,5.4c0,2.1-0.7,3.9-2,5.4c-1.4,1.5-3,2.2-5,2.2c-1,0-1.9-0.2-2.8-0.7c-0.9-0.4-1.5-1-2-1.6V153.8z M303.4,145   c1.3,0,2.3-0.4,3.1-1.4c0.8-0.9,1.2-2,1.2-3.4s-0.4-2.5-1.2-3.4c-0.8-0.9-1.9-1.4-3.1-1.4c-1.3,0-2.4,0.5-3.2,1.4   c-0.8,0.9-1.2,2-1.2,3.4s0.4,2.5,1.2,3.4C301,144.6,302.1,145,303.4,145z"></path>		<path class="st0" d="M337.6,148c-2,0-3.7-0.7-5-2.2c-1.4-1.5-2-3.3-2-5.4c0-2.1,0.7-3.9,2-5.4c1.4-1.5,3-2.2,5-2.2   c1,0,1.9,0.2,2.8,0.7s1.5,1,1.9,1.6v-2h3.2v14.7h-3.2v-2c-0.5,0.6-1.1,1.2-1.9,1.6C339.6,147.7,338.6,148,337.6,148z M335.1,143.7   c0.8,0.9,1.9,1.4,3.1,1.4c1.3,0,2.3-0.4,3.1-1.4c0.8-0.9,1.2-2,1.2-3.4s-0.4-2.5-1.2-3.4c-0.8-0.9-1.9-1.4-3.1-1.4   c-1.3,0-2.3,0.5-3.1,1.4c-0.8,0.9-1.2,2-1.2,3.4S334.3,142.8,335.1,143.7z"></path>		<path class="st0" d="M350,147.7v-14.7h3.2v2c0.9-1.5,2.4-2.3,4.5-2.3c1.7,0,3.1,0.6,4.1,1.7c1,1.1,1.5,2.6,1.5,4.5v8.9h-3.2v-8.3   c0-1.2-0.3-2.1-0.8-2.8c-0.5-0.7-1.3-1-2.2-1c-1.1,0-2,0.4-2.7,1.3c-0.7,0.8-1.1,2-1.1,3.6v7.2H350z"></path>		<path class="st0" d="M373.7,147.8c-1.5,0-2.7-0.4-3.6-1.3c-0.9-0.8-1.4-2-1.4-3.6v-7.1h-3.1v-2.9h3.1v-4.1h3.2v4.1h4.2v2.9h-4.2   v6.6c0,0.9,0.2,1.5,0.6,1.9c0.4,0.4,1,0.6,1.9,0.6c0.7,0,1.3-0.1,1.7-0.3v2.9C375.4,147.7,374.6,147.8,373.7,147.8z"></path>		<path class="st0" d="M379.5,147.7v-20.9h6.4c3.1,0,5.7,1,7.8,3c2.1,2,3.1,4.5,3.1,7.4c0,3-1,5.4-3.1,7.4c-2.1,2-4.7,3-7.8,3H379.5   z M383,144.5h3c2.2,0,4-0.7,5.4-2.1c1.4-1.4,2.1-3.1,2.1-5.2c0-2.1-0.7-3.8-2.1-5.2c-1.4-1.4-3.2-2.1-5.4-2.1h-3V144.5z"></path>		<path class="st0" d="M400.1,147.7v-14.7h3.2v2.6c0.3-0.8,0.8-1.5,1.5-2c0.7-0.5,1.5-0.8,2.4-0.8c0.5,0,0.9,0,1.3,0.1v3.3   c-0.5-0.2-1-0.3-1.6-0.3c-1,0-1.8,0.4-2.5,1.2c-0.7,0.8-1,1.9-1,3.3v7.2H400.1z"></path>		<path class="st0" d="M412.9,129.7c-0.6,0-1.1-0.2-1.5-0.6c-0.4-0.4-0.6-0.9-0.6-1.5c0-0.6,0.2-1.1,0.6-1.5   c0.4-0.4,0.9-0.6,1.5-0.6c0.6,0,1.1,0.2,1.5,0.6c0.4,0.4,0.6,0.9,0.6,1.5c0,0.6-0.2,1.1-0.6,1.5   C414,129.5,413.5,129.7,412.9,129.7z M411.3,147.7v-14.7h3.2v14.7H411.3z"></path>		<path class="st0" d="M423.5,147.7l-6.6-14.7h3.6l4.5,10.3l4.5-10.3h3.6l-6.7,14.7H423.5z"></path>		<path class="st0" d="M441.5,148c-2.2,0-4.1-0.7-5.5-2.1c-1.4-1.4-2.2-3.3-2.2-5.5c0-2.2,0.7-4,2.2-5.5c1.5-1.5,3.3-2.2,5.5-2.2   c2,0,3.7,0.6,5.1,1.9c1.3,1.3,2,3.1,2,5.4c0,0.4,0,0.7,0,1.1H437c0.1,1.2,0.5,2.2,1.4,2.9c0.8,0.7,1.9,1.1,3.1,1.1   c1.9,0,3.3-0.7,4.2-2.2l2.5,1.8C446.8,146.8,444.6,148,441.5,148z M437.2,138.7h8.2c-0.2-1-0.6-1.8-1.4-2.4   c-0.7-0.6-1.6-0.9-2.6-0.9c-1,0-1.9,0.3-2.7,0.9C437.9,136.8,437.4,137.6,437.2,138.7z"></path>	</g>	<g>		<path class="st0" d="M581.6,588h-3.4L565,571.1V588h-3.9v-23.5h3.4l13.2,16.9v-16.9h3.9V588z"></path>		<path class="st0" d="M594.1,588.4c-2.5,0-4.6-0.8-6.2-2.4c-1.6-1.6-2.4-3.7-2.4-6.2c0-2.4,0.8-4.5,2.4-6.1s3.7-2.5,6.2-2.5   c2.3,0,4.2,0.7,5.7,2.2c1.5,1.5,2.3,3.5,2.3,6c0,0.4,0,0.8,0,1.2h-13c0.1,1.3,0.6,2.4,1.6,3.3c0.9,0.8,2.1,1.2,3.5,1.2   c2.1,0,3.7-0.8,4.7-2.5l2.8,2C600,587.1,597.5,588.4,594.1,588.4z M589.2,577.9h9.2c-0.2-1.1-0.7-2-1.5-2.7c-0.8-0.7-1.8-1-2.9-1   c-1.1,0-2.2,0.3-3.1,1C590,575.8,589.4,576.8,589.2,577.9z"></path>		<path class="st0" d="M610.6,588l-7.5-16.5h4l5,11.6l5.1-11.6h4.1l-7.5,16.5H610.6z"></path>		<path class="st0" d="M630.9,588.4c-2.5,0-4.6-0.8-6.2-2.4c-1.6-1.6-2.4-3.7-2.4-6.2c0-2.4,0.8-4.5,2.4-6.1   c1.6-1.6,3.7-2.5,6.2-2.5c2.3,0,4.2,0.7,5.7,2.2c1.5,1.5,2.3,3.5,2.3,6c0,0.4,0,0.8,0,1.2h-13c0.1,1.3,0.6,2.4,1.6,3.3   c0.9,0.8,2.1,1.2,3.5,1.2c2.1,0,3.7-0.8,4.7-2.5l2.8,2C636.9,587.1,634.3,588.4,630.9,588.4z M626,577.9h9.2   c-0.2-1.1-0.7-2-1.5-2.7s-1.8-1-2.9-1c-1.1,0-2.2,0.3-3.1,1C626.8,575.8,626.3,576.8,626,577.9z"></path>		<path class="st0" d="M642.6,588v-16.5h3.6v2.9c0.3-0.9,0.9-1.7,1.7-2.2c0.8-0.6,1.7-0.9,2.7-0.9c0.6,0,1,0,1.4,0.1v3.7   c-0.5-0.2-1.1-0.3-1.8-0.3c-1.1,0-2,0.4-2.8,1.3s-1.2,2.1-1.2,3.7v8.1H642.6z"></path>		<path class="st0" d="M662.2,588v-24.8h3.6V588H662.2z"></path>		<path class="st0" d="M684.3,585.9c-1.7,1.7-3.7,2.5-6.2,2.5c-2.4,0-4.5-0.8-6.2-2.5c-1.7-1.7-2.5-3.7-2.5-6.1s0.8-4.4,2.5-6.1   c1.7-1.7,3.7-2.5,6.2-2.5c2.4,0,4.5,0.8,6.2,2.5c1.7,1.7,2.5,3.7,2.5,6.1S686,584.2,684.3,585.9z M678.2,585   c1.4,0,2.6-0.5,3.6-1.5c0.9-1,1.4-2.2,1.4-3.7s-0.5-2.7-1.4-3.7c-0.9-1-2.1-1.5-3.6-1.5c-1.5,0-2.7,0.5-3.6,1.5   c-0.9,1-1.4,2.2-1.4,3.7s0.5,2.7,1.4,3.7C675.5,584.5,676.7,585,678.2,585z"></path>		<path class="st0" d="M695.7,588.4c-1.5,0-2.9-0.3-4-0.9c-1.2-0.6-2-1.5-2.6-2.6l2.7-1.9c0.3,0.7,0.9,1.3,1.6,1.7   c0.7,0.4,1.5,0.6,2.4,0.6c0.7,0,1.3-0.2,1.7-0.5c0.5-0.3,0.7-0.7,0.7-1.3c0-0.5-0.2-0.9-0.5-1.2c-0.4-0.3-1-0.6-2-0.9l-1.5-0.4   c-2.9-0.8-4.4-2.5-4.3-5.1c0-1.4,0.6-2.6,1.7-3.4c1.1-0.9,2.5-1.3,4.2-1.3c2.6,0,4.4,0.9,5.6,2.8l-2.5,1.9   c-0.8-1.1-1.9-1.7-3.1-1.7c-0.6,0-1.1,0.1-1.6,0.4c-0.4,0.3-0.7,0.7-0.7,1.1c0,0.4,0.1,0.8,0.4,1.1s0.8,0.6,1.6,0.8l1.7,0.5   c1.5,0.5,2.7,1.1,3.5,1.9c0.8,0.8,1.2,1.8,1.2,3.2c0,1.6-0.6,2.8-1.7,3.7C698.9,587.9,697.4,588.4,695.7,588.4z"></path>		<path class="st0" d="M712.9,588.4c-2.5,0-4.6-0.8-6.2-2.4c-1.6-1.6-2.4-3.7-2.4-6.2c0-2.4,0.8-4.5,2.4-6.1s3.7-2.5,6.2-2.5   c2.3,0,4.2,0.7,5.7,2.2c1.5,1.5,2.3,3.5,2.3,6c0,0.4,0,0.8,0,1.2h-13c0.1,1.3,0.6,2.4,1.6,3.3c0.9,0.8,2.1,1.2,3.5,1.2   c2.1,0,3.7-0.8,4.7-2.5l2.8,2C718.9,587.1,716.4,588.4,712.9,588.4z M708,577.9h9.2c-0.2-1.1-0.7-2-1.5-2.7c-0.8-0.7-1.8-1-2.9-1   c-1.1,0-2.2,0.3-3.1,1C708.8,575.8,708.3,576.8,708,577.9z"></path>		<path class="st0" d="M739.2,588.4c-2.2,0-4.1-0.8-5.7-2.5c-1.5-1.7-2.3-3.7-2.3-6.1s0.8-4.4,2.3-6.1s3.4-2.5,5.7-2.5   c1.1,0,2.2,0.2,3.1,0.7c0.9,0.5,1.7,1.1,2.2,1.8v-2.2h3.6V588h-3.6v-2.2c-0.5,0.7-1.2,1.3-2.2,1.8   C741.4,588.1,740.3,588.4,739.2,588.4z M736.3,583.5c0.9,1,2.1,1.5,3.5,1.5c1.4,0,2.6-0.5,3.5-1.5c0.9-1,1.4-2.3,1.4-3.8   c0-1.5-0.5-2.8-1.4-3.8c-0.9-1-2.1-1.5-3.5-1.5c-1.4,0-2.6,0.5-3.5,1.5s-1.4,2.3-1.4,3.8C734.9,581.3,735.4,582.5,736.3,583.5z"></path>		<path class="st0" d="M781.9,588v-9.3c0-1.3-0.2-2.4-0.7-3.1c-0.5-0.8-1.2-1.1-2.2-1.1c-1.2,0-2.1,0.5-2.8,1.4   c-0.7,0.9-1.1,2.2-1.1,3.8v8.4h-3.6v-9.3c0-1.3-0.2-2.4-0.7-3.1c-0.5-0.8-1.2-1.1-2.2-1.1c-1.2,0-2.2,0.5-2.9,1.4   c-0.7,0.9-1.1,2.3-1.1,4v8.1h-3.6v-16.5h3.6v2.2c1-1.7,2.6-2.6,4.7-2.6c2.5,0,4.2,1.1,5.1,3.3c0.5-1,1.2-1.8,2.1-2.4   c1-0.6,2-0.9,3.2-0.9c1.9,0,3.3,0.6,4.4,1.9c1.1,1.3,1.6,3,1.6,5.1v9.9H781.9z"></path>		<path class="st0" d="M797.7,588.4c-2.5,0-4.6-0.8-6.2-2.4c-1.6-1.6-2.4-3.7-2.4-6.2c0-2.4,0.8-4.5,2.4-6.1   c1.6-1.6,3.7-2.5,6.2-2.5c2.3,0,4.2,0.7,5.7,2.2c1.5,1.5,2.3,3.5,2.3,6c0,0.4,0,0.8,0,1.2h-13c0.1,1.3,0.6,2.4,1.6,3.3   c0.9,0.8,2.1,1.2,3.5,1.2c2.1,0,3.7-0.8,4.7-2.5l2.8,2C803.6,587.1,801.1,588.4,797.7,588.4z M792.8,577.9h9.2   c-0.2-1.1-0.7-2-1.5-2.7s-1.8-1-2.9-1c-1.1,0-2.2,0.3-3.1,1C793.6,575.8,793,576.8,792.8,577.9z"></path>		<path class="st0" d="M830.5,588v-9.3c0-1.3-0.2-2.4-0.7-3.1c-0.5-0.8-1.2-1.1-2.2-1.1c-1.2,0-2.1,0.5-2.8,1.4   c-0.7,0.9-1.1,2.2-1.1,3.8v8.4h-3.6v-9.3c0-1.3-0.2-2.4-0.7-3.1c-0.5-0.8-1.2-1.1-2.2-1.1c-1.2,0-2.2,0.5-2.9,1.4   c-0.7,0.9-1.1,2.3-1.1,4v8.1h-3.6v-16.5h3.6v2.2c1-1.7,2.6-2.6,4.7-2.6c2.5,0,4.2,1.1,5.1,3.3c0.5-1,1.2-1.8,2.1-2.4   c1-0.6,2-0.9,3.2-0.9c1.9,0,3.3,0.6,4.4,1.9c1.1,1.3,1.6,3,1.6,5.1v9.9H830.5z"></path>		<path class="st0" d="M852.4,585.9c-1.7,1.7-3.7,2.5-6.2,2.5c-2.4,0-4.5-0.8-6.2-2.5c-1.7-1.7-2.5-3.7-2.5-6.1s0.8-4.4,2.5-6.1   c1.7-1.7,3.7-2.5,6.2-2.5c2.4,0,4.5,0.8,6.2,2.5c1.7,1.7,2.5,3.7,2.5,6.1S854.1,584.2,852.4,585.9z M846.2,585   c1.4,0,2.6-0.5,3.6-1.5c0.9-1,1.4-2.2,1.4-3.7s-0.5-2.7-1.4-3.7c-0.9-1-2.1-1.5-3.6-1.5c-1.5,0-2.7,0.5-3.6,1.5   c-0.9,1-1.4,2.2-1.4,3.7s0.5,2.7,1.4,3.7C843.6,584.5,844.8,585,846.2,585z"></path>		<path class="st0" d="M858.6,588v-16.5h3.6v2.9c0.3-0.9,0.9-1.7,1.7-2.2c0.8-0.6,1.7-0.9,2.7-0.9c0.6,0,1,0,1.4,0.1v3.7   c-0.5-0.2-1.1-0.3-1.8-0.3c-1.1,0-2,0.4-2.8,1.3s-1.2,2.1-1.2,3.7v8.1H858.6z"></path>		<path class="st0" d="M876.4,595h-4l3.5-7.8l-7.1-15.6h4l5.1,11.7l5.1-11.7h4L876.4,595z"></path>		<path class="st0" d="M903.4,588.4c-2.2,0-4.1-0.8-5.7-2.5c-1.5-1.7-2.3-3.7-2.3-6.1s0.8-4.4,2.3-6.1c1.5-1.7,3.4-2.5,5.7-2.5   c1.1,0,2.2,0.2,3.1,0.7c0.9,0.5,1.7,1.1,2.2,1.8v-2.2h3.6V588h-3.6v-2.2c-0.5,0.7-1.2,1.3-2.2,1.8   C905.6,588.1,904.5,588.4,903.4,588.4z M900.5,583.5c0.9,1,2.1,1.5,3.5,1.5c1.4,0,2.6-0.5,3.5-1.5c0.9-1,1.4-2.3,1.4-3.8   c0-1.5-0.5-2.8-1.4-3.8s-2.1-1.5-3.5-1.5c-1.4,0-2.6,0.5-3.5,1.5c-0.9,1-1.4,2.3-1.4,3.8C899.1,581.3,899.6,582.5,900.5,583.5z"></path>		<path class="st0" d="M924.4,595.3c-1.6,0-3.1-0.3-4.5-0.8c-1.4-0.5-2.5-1.3-3.3-2.2l2.2-2.6c1.5,1.6,3.3,2.4,5.5,2.4   c1.4,0,2.6-0.5,3.6-1.4c0.9-0.9,1.4-2.2,1.4-3.8v-1.5c-0.5,0.8-1.3,1.4-2.2,1.9c-0.9,0.5-2,0.7-3.1,0.7c-2.2,0-4.1-0.8-5.6-2.4   c-1.5-1.6-2.3-3.6-2.3-6c0-2.3,0.8-4.3,2.3-5.9c1.5-1.6,3.4-2.4,5.6-2.4c1.1,0,2.1,0.2,3.1,0.7c0.9,0.5,1.7,1.1,2.2,1.8v-2.2h3.6   v15.4c0,2.8-0.8,4.8-2.4,6.3S927,595.3,924.4,595.3z M921.2,583.2c0.9,1,2.1,1.4,3.5,1.4s2.6-0.5,3.5-1.4c0.9-1,1.4-2.2,1.4-3.6   s-0.5-2.7-1.4-3.6c-0.9-1-2.1-1.4-3.5-1.4s-2.6,0.5-3.5,1.4c-0.9,1-1.4,2.2-1.4,3.6S920.3,582.2,921.2,583.2z"></path>		<path class="st0" d="M944.7,588.4c-2.2,0-4.1-0.8-5.7-2.5c-1.5-1.7-2.3-3.7-2.3-6.1s0.8-4.4,2.3-6.1c1.5-1.7,3.4-2.5,5.7-2.5   c1.1,0,2.2,0.2,3.1,0.7s1.7,1.1,2.2,1.8v-2.2h3.6V588H950v-2.2c-0.5,0.7-1.2,1.3-2.2,1.8S945.8,588.4,944.7,588.4z M941.8,583.5   c0.9,1,2.1,1.5,3.5,1.5s2.6-0.5,3.5-1.5c0.9-1,1.4-2.3,1.4-3.8c0-1.5-0.5-2.8-1.4-3.8c-0.9-1-2.1-1.5-3.5-1.5s-2.6,0.5-3.5,1.5   c-0.9,1-1.4,2.3-1.4,3.8C940.4,581.3,940.9,582.5,941.8,583.5z"></path>		<path class="st0" d="M960.3,567.9c-0.7,0-1.2-0.2-1.7-0.7c-0.5-0.5-0.7-1.1-0.7-1.7c0-0.7,0.2-1.2,0.7-1.7   c0.5-0.5,1.1-0.7,1.7-0.7c0.7,0,1.3,0.2,1.7,0.7s0.7,1,0.7,1.7c0,0.7-0.2,1.3-0.7,1.7C961.6,567.7,961,567.9,960.3,567.9z    M958.5,588v-16.5h3.6V588H958.5z"></path>		<path class="st0" d="M967.1,588v-16.5h3.6v2.2c1-1.7,2.7-2.6,5-2.6c1.9,0,3.5,0.6,4.6,1.9c1.1,1.3,1.7,2.9,1.7,5v10h-3.6v-9.4   c0-1.3-0.3-2.4-0.9-3.1c-0.6-0.7-1.5-1.1-2.5-1.1c-1.3,0-2.3,0.5-3.1,1.4c-0.8,0.9-1.2,2.3-1.2,4v8.1H967.1z"></path>	</g>	<g>		<g>			<defs>				<path id="SVGID_1_" d="M771.4,340.7C771.5,340.6,771.5,340.6,771.4,340.7c0.1,0,0.1-0.1,0.1-0.1c0,0,0.1,0.1,0.1,0.1     c0,0,0,0,0.1,0.1c12.1-6.2,29.8-15.5,35.9-28.7c6.3-13.6-1.7-29.1-17.2-30.2c-11.8-0.9-18.2,9.9-18.9,12     c-0.6-2.1-7.1-12.9-18.9-12c-15.5,1.2-23.5,16.6-17.2,30.2C741.6,325.2,759.4,334.4,771.4,340.7"></path>			</defs>			<clipPath id="SVGID_00000057860307871415872170000016369109257339522199_">				<use xlink:href="#SVGID_1_" style="overflow:visible;"></use>			</clipPath>							<linearGradient id="SVGID_00000130634171431810791370000007733790148756845482_" gradientUnits="userSpaceOnUse" x1="733.3469" y1="310.7278" x2="809.8063" y2="310.7278">				<stop offset="0" style="stop-color:#FF6600"></stop>				<stop offset="1" style="stop-color:#FF00A4"></stop>			</linearGradient>							<rect x="729.2" y="280.8" style="clip-path:url(#SVGID_00000057860307871415872170000016369109257339522199_);fill:url(#SVGID_00000130634171431810791370000007733790148756845482_);" width="84.7" height="59.8"></rect>		</g>		<g>			<defs>				<path id="SVGID_00000065795663752425142160000001619769033619604613_" d="M740.6,266C740.6,265.9,740.6,265.9,740.6,266     C740.7,265.9,740.7,265.9,740.6,266c0.1,0,0.1,0,0.1,0c0,0,0,0,0,0c6-3.1,14.9-7.7,18-14.4c3.1-6.8-0.9-14.5-8.6-15.1     c-5.9-0.4-9.1,5-9.4,6c-0.3-1.1-3.5-6.5-9.4-6c-7.7,0.6-11.7,8.3-8.6,15.1C725.7,258.2,734.6,262.8,740.6,266"></path>			</defs>			<clipPath id="SVGID_00000155129634567275421830000007251026600713717913_">				<use xlink:href="#SVGID_00000065795663752425142160000001619769033619604613_" style="overflow:visible;"></use>			</clipPath>							<linearGradient id="SVGID_00000124119864248744306020000000012330682118543280_" gradientUnits="userSpaceOnUse" x1="721.5715" y1="250.9899" x2="759.801" y2="250.9899">				<stop offset="0" style="stop-color:#FF6600"></stop>				<stop offset="1" style="stop-color:#FF00A4"></stop>			</linearGradient>							<rect x="719.5" y="236" style="clip-path:url(#SVGID_00000155129634567275421830000007251026600713717913_);fill:url(#SVGID_00000124119864248744306020000000012330682118543280_);" width="42.3" height="29.9"></rect>		</g>		<g>			<path class="st0" d="M652.7,249.1c-3.2,1.5-4.9,2.3-5.5,3.4c-0.3,0.6-0.7,1.3-1,2.1c-2.4,5-6.3,13.5-11.4,13.8    c-6.5,0.5-15.5-6-22.7-11.3c-6.1-4.4-12.7-6.3-21.9-6.3c-2.8,0-7,3.2-10.4,7.9c-2.6,3.6-8.2,13.3-4.3,24.5    c6.3,17.9,17.5,58.4,15,83.6c-0.7,7.7-0.2,20,0.4,34.3c1.1,23.9,2.4,53.5-1.7,75.4c-0.2,0.8,0.4,1.6,1.2,1.8c0.1,0,0.2,0,0.3,0    c0.7,0,1.3-0.5,1.5-1.2c4.1-22.2,2.8-52.1,1.8-76.1c-0.6-14.2-1.2-26.4-0.5-33.9c2.5-25.7-8.9-66.7-15.2-84.9    c-3.5-9.9,1.6-18.5,3.9-21.8c3.2-4.6,6.7-6.7,7.9-6.7c8.5,0,14.6,1.7,20.1,5.8c9.4,6.8,17.7,12.4,24.7,11.9    c6.8-0.5,11.2-9.9,13.9-15.6c0.3-0.7,0.7-1.4,1-2c0.5-0.5,2.7-1.5,4.1-2.1c3.3-1.5,5.2-2.4,5.8-3.6c1-2,0.4-3.7-0.2-5.5    c-0.6-1.8-1.2-3.6-0.5-6.2c3.2,5.9,4.5,6.2,5,6.4c1.8,0.4,3.8-0.5,6.4-1.8c2.9-1.4,6.1-2.9,8.6-2.3c1.7,0.4,4,2,6.5,3.6    c4.4,2.9,8.9,5.9,12.8,4.9c2-0.5,3.1-4,5.6-13.8c0.8-3.2,1.7-6.5,2.5-8.9c1.3-4,6-12.9,8.5-16.2c2.5-3.3,5.9-5.2,9.5-7.3    c3.8-2.2,7.8-4.5,10.7-8.4c2.2-2.9,6-11,8.6-18.4c0.2,0.5,0.4,1,0.7,1.5c0,0,0,0,0,0c0,0,0,0,0,0c0.4,0.5,0.9,1.5,1.6,2.7    c0.7,11.2,4,25.1,11.8,34.4c2.2,2.7,12.1,11.7,20.1,12.5c3.1,12.4,3.5,26.6,3.7,33.4c0,1.4,0.6,2.6,1.7,3.5    c2.7,2.1,7.6,1.2,12.1,0.1c0.6-0.1,1.3-0.3,1.5-0.3c1.1,0,2.1,2.3,2.4,5.8c0.2,2.2,1.3,3.3,2.2,3.8c1.7,1.1,4,1,6.4,0.4    c-0.4,0.8-0.7,1.6-0.8,2.5c-0.1,1.2,0.4,2.3,1.3,3.1c3.2,3,7.9,2,8.9,1.7c0.4,0,2.2-0.1,3.6,1.2c3.3,2.8,4.4,6.3,5.4,9.1    c0.7,2.1,1.3,3.9,2.6,4.9c8.1,6.1,21.8-6.5,27.7-11.8c0.4-0.4,0.8-0.8,1.2-1.1c0,0,0.1-0.1,0.1-0.1c2-2.2,8.7-9.7,13.2-17    c1.2,2.9,2.7,6.4,4.6,10.3c1.5,3.3,2.9,6.3,4,9.1c4,9.6,4.1,19.1,4.1,26.7c0,5.3,0.1,9.8,1.3,13.4c4.3,11.8,9.8,14,14.6,15.2    c2.4,3.3,5.5,6.5,9.5,9.8c0.3,0.2,0.6,0.3,1,0.3c0.4,0,0.9-0.2,1.2-0.5c0.3-0.4,0.4-0.8,0.3-1.2c0-0.2,0-0.3,0-0.5    c-1.3-8.5-5.7-9.5-9.9-10.5c-0.1,0-0.2,0-0.3-0.1c-6.7-9.6-7.1-19.9-6.3-35.5c1.6-29.7-1.5-49.1-9-57.6    c-14.6-16.4-42.3-25.2-65.9-21.1c-29.7,5.2-64.7-36.3-73.9-60.6c0,0,0,0,0,0c0-0.1,0-0.1-0.1-0.1c0,0,0-0.1-0.1-0.1    c0,0-0.1-0.1-0.1-0.1c0,0-0.1-0.1-0.1-0.1c0,0-0.1-0.1-0.1-0.1c0,0-0.1-0.1-0.1-0.1c0,0-0.1-0.1-0.1-0.1c0,0-0.1,0-0.1-0.1    c0,0-0.1,0-0.2-0.1c0,0-0.1,0-0.1,0c0,0-0.1,0-0.1,0c-0.1,0-0.1,0-0.2,0c0,0,0,0,0,0c0,0-0.1,0-0.1,0c-0.1,0-0.1,0-0.2,0    c-0.1,0-0.1,0-0.2,0c0,0-0.1,0-0.1,0c0,0,0,0,0,0c-0.1,0-0.1,0.1-0.2,0.1c0,0-0.1,0-0.1,0.1c0,0-0.1,0.1-0.1,0.1    c0,0-0.1,0.1-0.1,0.1c0,0-0.1,0.1-0.1,0.1c0,0-0.1,0.1-0.1,0.1c0,0-0.1,0.1-0.1,0.1c0,0,0,0.1-0.1,0.1c0,0,0,0.1,0,0.1    c0,0,0,0.1,0,0.1c0,0,0,0.1,0,0.1c0,0.1,0,0.1,0,0.2c0,0,0,0,0,0c0,6.4-7.2,23.7-10.7,28.4c-2.6,3.5-6.1,5.5-9.8,7.6    c-3.7,2.1-7.5,4.3-10.4,8.1c-2.7,3.6-7.5,12.8-8.9,17.1c-0.8,2.5-1.7,5.9-2.5,9.1c-1.1,4.2-2.7,10.5-3.7,11.7    c-2.6,0.4-6.6-2.2-10.2-4.5c-2.7-1.8-5.3-3.4-7.4-4c-3.6-0.9-7.5,1-10.6,2.5c-1.6,0.7-3.5,1.7-4.3,1.6c-0.9-0.7-3-4.5-4.6-7.7    c-0.2-0.5-0.7-0.8-1.3-0.8c-0.6,0-1.1,0.3-1.4,0.8c-3,5.4-1.8,8.9-0.9,11.4c0.5,1.5,0.8,2.3,0.4,3.1    C656.7,247.3,654.2,248.4,652.7,249.1z M745.6,167.9c0.2,0.4,0.4,0.9,0.6,1.3c0,0,0,0,0,0c-0.3,0-0.7,0.1-1,0.2    C745.4,168.9,745.5,168.4,745.6,167.9z M760.2,211c-5.9-7.1-9.1-17.1-10.4-26.3c3.1,5.2,6.5,10.9,8.6,13.1c3.8,4,7.1,6.6,9.5,8.6    c1.5,1.2,2.6,2.1,3.1,2.8c2.7,3.4,4.7,8,6.2,13.1C771,220.9,762.8,214.1,760.2,211z M871.5,257.6c-0.9-2.7-1.3-4.7-0.9-5.3    c0,0,0,0,0.1,0c0.1,0,0.2,0,0.4,0.1c1,0.2,1.1,0.7,1.2,0.9C872.7,254.2,872.3,255.7,871.5,257.6z M907.5,343.8c-1-1-2-2-2.9-3    C905.8,341.4,906.8,342.2,907.5,343.8z M773.6,205.5c16.4,15.3,33.1,22.4,47.1,19.9c22.3-3.9,49.4,4.7,63.1,20.1    c7,7.9,9.8,26.6,8.3,55.5c-0.7,13.8-0.7,24.4,4.9,34.3c-3.2-1.5-6.4-4.5-9.2-12.2c-1.1-3-1.1-7.4-1.2-12.4    c0-7.9-0.1-17.7-4.4-27.8c-1.2-2.8-2.6-5.9-4.1-9.2c-1.5-3.4-3.7-8.1-5.4-12.3c1.9-3.6,3-7,2.3-9.2c-0.3-1.1-1.2-2.4-3.4-2.9    c-1.9-0.4-2.9,0.3-3.5,1c-1.4,1.8-0.9,5.1,1.3,10.9c-3.4,5.8-9.2,13.1-14,18.4c-0.3,0.3-0.7,0.6-1.1,1    c-4.9,4.4-17.8,16.2-23.9,11.7c-0.6-0.4-1.1-1.9-1.6-3.4c-1-3-2.3-7.1-6.3-10.4c-2.7-2.3-5.9-1.9-6-1.9c-0.1,0-0.2,0-0.2,0.1    c0,0-3.9,1.1-6.1-1c-0.3-0.3-0.4-0.5-0.4-0.8c0.1-1.3,2.1-3.5,3.4-4.5c0.6-0.5,0.8-1.3,0.4-2c-0.7-1.2-1.8-0.7-2.6-0.4    c-4.2,1.6-7,2.1-8.3,1.3c-0.3-0.2-0.7-0.5-0.8-1.5c-0.6-7.1-3.3-8.6-5.4-8.6c-0.4,0-1,0.1-2.1,0.4c-2.3,0.5-7.8,1.8-9.6,0.4    c-0.2-0.2-0.5-0.5-0.5-1.2c-0.5-16.6-2.3-40-11.5-51.5c-0.7-0.9-1.9-1.9-3.5-3.2c-2.3-1.9-5.5-4.5-9.2-8.4    c-2.2-2.3-7-10.5-10.1-15.8c-0.5-0.8-0.9-1.6-1.3-2.3c-0.1-1.1-0.1-2.2-0.1-3.2C755.1,185.2,764,196.5,773.6,205.5z"></path>			<path class="st0" d="M1029.6,283.8c-7.4-6.2-18,0.7-28.2,9.2c-5-5-9.1-12.5-13.8-21.7c-3.2-6.4-3.3-17.5-3.5-29.4    c-0.3-20.7-0.5-44.1-15.8-56.7c-7.7-6.3-14.2-12-16.2-17.7c0,0,0,0,0,0c0,0,0,0,0,0c-3.9-9.1-7.1-18.7-10.1-28    c-4-12.1-7.4-22.5-11.5-29c-3.2-5.1-36.9-42.6-73.7-42.6c-13.1,0-61.6,5.6-76.5,32.2c-0.9-5.9-3.6-11.6-9-16.4    c-3.6-3.1-9.2-8.5-15.2-14.2c-9.8-9.3-20-18.9-23.3-21c-0.1-0.1-0.3-0.2-0.6-0.4C718.4,38.3,671,8.7,637.7,32    c-0.9,0.2-2.5,1-5.8,3.1c-3.5,2.3-7.8,5.3-12.1,8.6c-6.8,5.2-19.5,15.7-28.4,27.2c-11.1,14.3-14.8,24.3-18.8,34.9    c-1.5,4.2-3.1,8.5-5.2,13.1c-4.3,9.4-10.3,18.4-16.5,27c-10.9,7.1-31.4,21-44.5,33.5c-16.3,15.6-14.1,18.3-13.2,19.4    c0.5,0.6,1.2,0.9,2.1,0.9c1.1,0,2.5-0.5,4-1.5c0,0,0,0,0.1,0c6.9-4.4,45.6-38.8,49.3-44c1.5-2,2.9-4,4.4-6.1    c3.8-2.5,6.4-4.1,6.9-4.4c9.5-4.3,15-4.2,18.7-4.2c0.7,0,1.3,0,1.9,0c8.5-0.3,17.2-1.2,23.8-5.9c3.5-2.5,5.5-7.1,7.5-11.6    c1.7-3.8,3.4-7.8,5.9-9.9c4.5-3.8,12-5.3,19.5-4c6.8,1.2,12.3,4.4,15,8.9c3.4,5.7,10.5,28.3,6.7,47.5c-0.2,0.8,0.4,1.6,1.2,1.8    c0.1,0,0.2,0,0.3,0c0,0,0,0,0,0c0,0,0.1,0,0.1,0c0.1,0,0.1,0,0.2,0c0.2,0,0.4-0.1,0.6-0.3c1.2-0.9,2.7-2.1,4.2-3.4    c4.9-4.1,11.6-9.6,16.4-10.2c1.6-0.2,3.7,0.3,6,0.8c4.4,1,9.4,2.1,12.7-1.2c0.8-0.8,1.8-1.9,3.2-3.4c5.2-5.5,18.9-20.2,23.7-19.2    c8.1,1.6,9,7.3,10.1,14.5c0.5,2.9,0.9,6,2,8.8c1.1,3,3.8,5.5,7.3,6.9c3.7,1.4,7.5,1.4,10.5-0.1c9.1-4.6,11.3-11.7,13.8-20    l0.1-0.2c0.4-1.3,1.2-3.2,2.1-5.4c2.8-6.9,7-17.2,7.3-27.5c10.3-29.3,63.4-35.6,76.1-35.6c0,0,0,0,0,0    c35.5,0,68.1,36.3,71.2,41.2c3.9,6.1,7.3,16.4,11.2,28.3c3.1,9.4,6.3,19.1,10.2,28.3c0,0,0,0,0,0c2.3,6.4,9.1,12.4,17.1,18.9    c14.2,11.7,14.5,34.4,14.7,54.4c0.2,12.7,0.3,23.7,3.8,30.7c4.6,9.2,8.9,16.9,14.2,22.3c-1.6,1.3-3.1,2.7-4.6,4    c-6,5.3-11.7,10.2-16.2,12.4c-6.7,3.2-12.8,3.2-19.3,3.1c-6.4-0.1-12.9-0.1-19.8,3.2c0,0,0,0,0,0c0,0,0,0,0,0    c-25.6,12.8-39.4,60.8-49.4,95.9c-3.2,11.3-6,21.2-8.7,28c-3.3,8.3-8.3,18.2-13.6,28.8c-8.4,16.7-17.1,33.9-20,46.9    c-6-3.6-21.5-12.5-39-19.3c6.4-0.5,13.1-2,15.8-8.6c0.5-1.3,0.7-3.5-1.6-6.3c-0.8-0.9-1.8-1.9-2.9-2.8c5.1-1,10.2-4.7,11.3-9.7    c0.6-3,0.2-5.7-1.4-7.8c-1.2-1.6-2.9-2.9-5.2-3.9c3.4-1.3,6.7-4.4,8.4-11.3c0.9-3.9-1-7.6-5.5-10.5c0.7-0.1,1.3-0.2,1.9-0.4    c6.5-1.4,9.9-3.9,10.3-7.4c0.2-1.6,0-3.1-0.5-4.5c2.6-0.5,7.1-3,9.8-5.4c2.3-2,3.7-4,4-5.8c0.2,0,0.3,0,0.4,0    c4.1-0.4,9.2-1.2,12.9-5c0.7-0.7,1.2-1.9,1.8-3.2c0.4-1,1.3-2.8,1.7-3.1c0.3-0.2,1.1-0.5,1.9-0.8c2.3-0.9,5.1-1.9,5.5-4.2    c0.2-1.3-0.1-2.6-1-3.5c-0.5-0.5-1-0.8-1.7-1c1-1.4,1.3-2.9,0.8-4.2c-0.5-1.3-1.8-2-3.3-2.4c0.7-0.9,1.1-1.9,1-2.9    c-0.2-1.3-0.9-2.3-2.2-2.6c-0.3-0.1-0.5-0.1-0.8-0.1c1-2.2,0.2-3.7-0.3-4.4c-0.6-0.7-1.4-1.1-2.4-1.3c0.7-1.7,1.2-3.4,1-4.8    c0,0,0,0,0,0c0-0.1,0-0.2-0.1-0.4c-0.9-3-2.6-4-4-4.4c0.3-1.7,0.4-3.6,0.3-5.3c0-0.5,0.3-1.3,0.6-2c0.8-1.8,2.1-4.9-1.7-7.2    c-0.5-0.3-1.1-0.4-1.7-0.4c-0.3-1.4-0.8-2.4-1.7-2.8c-1.3-0.6-2.6-0.5-3.8-0.1c-0.1-0.3-0.2-0.7-0.3-0.9c-0.8-2-2-2.3-2.9-2.3    c-0.8,0-1.6,0.3-2.2,0.6c-1.2-2-2.6-2.3-3.5-2.4c-1.5,0-2.7,0.4-3.5,1.3c-0.2,0.2-0.3,0.4-0.5,0.6c-0.5-0.9-1.2-1.6-2.1-2.1    c-1.6-0.9-3.5-0.9-5.7-0.1c4.2-10.7,9.7-21.4,14.6-28.8c4.8-7,6.6-7.1,6.6-7.1c0.8,0,1.5-0.7,1.5-1.5s-0.7-1.5-1.5-1.5    c-1.4,0-4,0.9-9.1,8.4c-9.5,14-23.4,45.3-22.1,61.4c-1.1-0.5-2.3-1-3.8-1.7c-6.1-2.6-13.4-5.4-20.7-6.5c-1.1-0.2-2.2-0.3-3.1-0.5    c-3.1-0.5-5.7-0.9-8.8-0.7c0.9-1.6,1.8-3.6,1.1-5.8c-0.5-1.5-1.4-2.5-2.8-2.9c-4.7-1.5-13.2,4.1-20.9,9.7l-0.7,0.5    c-0.8,0.6-10,5.7-12.2,6.9c-1.2-1-2.5-1.9-4.1-2.6c-3.3-1.6-6.6-3-10.7-2.8c-0.4,0-1.8-0.4-2.9-0.8c-2.9-0.9-6.4-2.1-9.1-0.9    c-1-0.5-2.1-1-3.1-1.5c2.2-1.5,4-4,4.3-5.8c0.3-1.4-0.3-2.6-0.8-3.5c-0.2-0.5-0.5-1-0.5-1.4c0-0.1,0.3-0.5,0.4-0.7    c0.5-0.8,1.3-2.1,1-3.8c-0.3-1.3-0.9-1.9-1.5-2.3c0,0,0,0,0,0c0,0,0,0,0,0c0.6-0.4,1.7-1.2,1.2-3.3c-0.4-1.8-1.5-2.6-2.1-3    c-0.1-0.1-0.2-0.2-0.3-0.2c0-0.4,0.4-0.9,1-1.6c1.2-1.4,2.8-3.4,2.5-7.3c-0.2-3.1-3-4.4-5.6-5.8c-2.1-1.1-4.3-2.2-5.3-4.1    c-0.9-1.9-0.6-4.9-0.2-7.9c0.2-1.6,0.4-3.3,0.4-4.9c0-15.9-14.9-24.4-23.7-28c-25.4-10.5-52.1-4.5-60.2-1.3    c-5.3,2.1-17.7,7.9-21.7,18.4c-3.6,0.3-8.1,2.4-12.1,5.1c-10.4,7.1-9.4,12-7.5,21l0.2,0.8c0.1,0.4,0.3,0.7,0.5,0.9    c-0.2,0.5-0.3,1.1-0.5,1.7c-0.9,4,4.3,19.2,8.4,25.1c-1.2,3-2,5.4-1.8,6.6c0.3,2.6,5.9,16,8.6,18.2c1.9,1.5,8.5,3.9,11.2,4.3    c0.8,1.4,2,2.6,4.1,3.3c2.3,0.9,5,1.5,7.5,2.1c2.3,0.6,4.5,1.1,6.4,1.7c0.7,0.2,1.4,0.5,2.2,0.8c4.1,1.5,9.1,3.3,13.7,3.3    c0.6,0,1.1,0,1.6-0.1c0,0.1,0.1,0.3,0.1,0.4l0.2,0.5c0.3,0.9,0.6,2,1.1,2.8c0.1,0.2,0.3,0.5,0.5,0.8c-1,0.3-2,0.8-2.9,1.5    c-2.1,1.8-3.2,4.7-3.2,8.6c0,6.8,5.4,11.1,9,13.4c-1.6,0.7-2.8,1.9-3.4,3.4c-1.2,2.8-0.3,6.2,0.9,8.4c1.7,3.1,6.3,7,10.8,10.2    c-0.7,1.3-0.8,2.8-0.3,4.5c1.2,4,5.5,7.6,10.3,8.8c-16.7,8.5-35.2,16.3-52.7,21.7c-39.9,10.5-52.1,4.7-74.3-5.9    c-2.3-1.1-4.7-2.2-7.3-3.4c-1-29.2-6.5-69.8-29.6-72.7c-7.5-0.9-12.6,2.3-14.5,9.2c-4.9,17.7,12.5,52.9,36.3,63.3    c1.7,0.8,3.4,1.5,5,2.2c0.3,10.8,0,20.6-0.5,27.4c-5.3,71.5-61.7,171.9-170.3,171.9c-0.1,0-0.3,0-0.4,0c-31-0.1-60.5,0-89.1,0    c-14,0-27.9,0-41.5,0c-72.2,0-114.6-25.5-126.1-75.7c-0.2-0.8-1-1.3-1.8-1.1c-0.8,0.2-1.3,1-1.1,1.8c6.8,29.6,23.9,51,50.9,63.7    c20.5,9.6,46,14.3,78.1,14.3c13.7,0,27.5,0,41.5,0c28.6,0,58.1,0,89.1,0c0.1,0,0.3,0,0.4,0c62.1,0,102.3-31.8,125.1-58.5    c27.2-31.8,45.2-75.2,48.3-116.2c0-0.3,0.8-11.5,0.5-26.3c2,1,4,1.9,5.9,2.8c22.1,10.5,35.4,16.9,76.4,6    c41.9-13,90.6-39.7,104.4-57.3c0.1-0.1,0.1-0.1,0.2-0.2c2.5-3.2,6.2-6.7,9.5-9.7c1.2-1.1,2.4-2.2,3.5-3.3    c1.3-1.3,2.5-2.6,3.7-3.8c0,0,0.1-0.1,0.1-0.1c0.1-0.1,0.2-0.2,0.3-0.3c2.5-2.7,4.9-5.2,8.2-7.2c1-0.6,2.9-1.6,4.9-2.8    c0,0,0,0,0,0c0.5,0,1-0.3,1.3-0.7c0.9-0.5,1.8-1,2.7-1.5c4.4-2.4,8.5-4.7,9.9-5.5c1.6-1.1,3.2-2.1,4.7-3.1c1.6-1,3.2-2.1,4.8-3.1    c1-0.7,2.5-2.2,4.4-4.1c2.4-2.5,8.1-8.2,9.7-8c1.9,0.7,3.1,1.7,3.5,3.3c1.1,3.5-1.4,9.1-4.3,13.2c-1.9,2.6-4.4,4.4-7.1,6.2    c-2.1,1.5-4.4,3.1-6.3,5.1c-0.6,0.7-1.3,1.4-1.9,2.2c-1.9,2.2-4.2,5-6.5,6.2c-4.9-2.1-8.9-2.6-12-1.4c-3.3,1.3-4.2,4-4.3,4.2    c0,0.2-0.1,0.3-0.1,0.5c0,2.8,0.8,4.6,2.4,5.5c3,1.6,7.6-1.3,11.2-3.7c1-0.7,2.1-1.4,2.7-1.7c0.7,0.3,1.4,0.7,2.1,1.1    c0.1,0.1,0.2,0.1,0.3,0.1c5,2.7,12.5,3.5,18.6,4.1c2.7,0.3,5,0.5,6.6,0.8c4.9,1.1,8.3,1.5,11.4,1.9c4.2,0.5,7.9,1,14.4,3    c2.3,0.7,7.7,3,7.1,8.9c-0.2,1.7-2.2,2.9-3.9,3.6c-2.7,1.1-6.3,1.8-9.9,2.1c-6.8-2.7-16.2-4.2-18.2-1.8c-0.6,0.7-0.7,1.7-0.3,2.5    c1.5,2.4,10.2,3,17.9,2.4c1.6,0.7,3.2,1.5,4.5,2.5c2.8,2.1,3.9,4.3,3.3,6.6c-2.5,10.6-8.8,10.2-13.9,9.8c-0.2,0-1.2-0.3-1.9-0.5    c-4.1-1.3-7.4-2.1-9.1-0.9c-0.6,0.5-1,1.2-1,2c0,0.8,0.3,1.5,0.9,2c1.6,1.4,5,1.1,8.9,0.7c0.7-0.1,1.5-0.2,1.6-0.2    c6,0.8,10,2.4,11.7,4.8c1,1.5,1.3,3.2,0.9,5.5c-1,4.8-7.8,8.2-12.4,7.5c-0.1,0-0.2,0-0.3,0c-3.5-1.9-7.1-3.1-9.1-2.7    c-1.4,0.3-1.9,1.2-2.1,1.7c-0.6,1.8,0,3,0.6,3.6c1.8,2,5.9,1.4,10.1,0.5c0,0,0.1,0,0.1,0c1.7,1,3.3,2.1,4.6,3.5    c1,1,2.5,2.8,1.9,4.2c-2.5,6.2-10.2,6.6-16.9,7c-1.1,0.1-2.1,0.1-3.1,0.2c-13.6-4.6-27.9-7.5-39.6-5.5c-2.5,0.4-9.1,1.6-9.1,7.3    c0,0,0,0.1,0,0.1c0,0.2,0,0.3,0,0.5c1.4,6,15.8,9.2,15.9,9.2c1,0.2,2,0.3,3.1,0.3c5.5,0,11.4-2.4,16.7-4.6    c1.7-0.7,3.3-1.4,4.8-1.9c0.6-0.2,1.3-0.5,1.9-0.8c1.6-0.7,3.4-1.4,4.9-1.5c0.2,0,0.5,0,0.7-0.1c20.9,7.2,40.5,18.6,46,21.9    c-0.1,0.8-0.2,1.5-0.3,2.2c-0.4,3.9,0.7,11.2,11.8,16.5c1.7,0.8,3,1.1,4,1.1c2.2,0,3.2-1.3,3.5-1.9c1.9-3.6-2.2-11.2-15.7-19.4    c2.5-12.6,11.4-30.2,20-47.2c5.4-10.6,10.4-20.6,13.7-29c2.7-6.9,5.6-16.8,8.8-28.2c9.9-34.5,23.4-81.8,47.9-94    c6.3-3,12.2-3,18.5-2.9c6.5,0.1,13.3,0.1,20.6-3.4c4.9-2.4,10.7-7.4,16.9-12.8c1.6-1.4,3.2-2.8,4.9-4.2c4.4,3.7,9.6,5.7,16.2,5.7    c0,0,0.1,0,0.1,0c1.6-0.1,15.4-1.6,17.4-8.3C1036.1,291.2,1034.3,287.6,1029.6,283.8z M497.8,195.6    C497.7,195.6,497.7,195.7,497.8,195.6c-0.9,0.6-1.5,0.8-1.9,1c0.4-1.3,2.6-5.3,12.7-15c10.6-10.1,26.1-21.2,37.4-28.8    C541.3,158.5,504.2,191.6,497.8,195.6z M770.6,132.7c-1,2.4-1.7,4.2-2.2,5.7l-0.1,0.2c-2.4,7.9-4.3,14.2-12.2,18.2    c-2.2,1.1-5.2,1.1-8,0c-2.7-1.1-4.8-3-5.6-5.1c-1-2.5-1.4-5.4-1.8-8.2c-1.1-7.3-2.3-14.9-12.5-16.9c-5.9-1.2-16.4,9.3-26.5,20.1    c-1.3,1.4-2.4,2.5-3.1,3.3c-2.1,2.1-6.1,1.3-9.9,0.4c-2.5-0.6-4.9-1.1-7-0.8c-5.7,0.6-12.5,6.3-18,10.9c-0.4,0.3-0.8,0.7-1.2,1    c2.5-19.3-4.2-40-7.7-45.8c-3.2-5.3-9.4-9-17-10.3c-8.4-1.4-16.8,0.4-21.9,4.7c-3.1,2.5-4.9,6.8-6.8,11    c-1.8,4.1-3.7,8.3-6.5,10.4c-5.9,4.2-14.2,5.1-22.2,5.4c-0.5,0-1.1,0-1.8,0c-3.7-0.1-9.9-0.1-20.1,4.5c-0.1,0-0.1,0.1-0.2,0.1    c0,0-0.3,0.2-0.9,0.5c4.7-6.9,9.2-14.1,12.6-21.6c2.1-4.7,3.8-9.1,5.3-13.3c3.8-10.4,7.5-20.1,18.3-34.1    c14.4-18.5,41-36.7,44.4-37.8c0.3,0,0.7-0.1,0.9-0.3c31.7-22.6,77.9,6.3,91.3,15.7c0.4,0.2,0.6,0.4,0.7,0.5    c3.1,2,13.6,11.9,22.9,20.7c6,5.7,11.7,11,15.3,14.2C784.3,99.1,775.4,121,770.6,132.7z M537.4,465    c-23.5-10.3-38.7-44.8-34.6-59.7c1.3-4.8,4.4-7.2,9.2-7.2c0.7,0,1.4,0,2.1,0.1c19.7,2.5,25.8,38.4,27,68.4    C539.9,466,538.6,465.5,537.4,465z M771.5,408.1c-2.2,1.4-6.7,4.4-8.1,3.6c-0.5-0.2-0.7-1.2-0.8-2.5c0.2-0.4,0.9-1.5,2.5-2.1    c1.4-0.5,3.7-0.7,7.3,0.5C772.1,407.7,771.8,407.9,771.5,408.1z M852.9,347.4c0.3,0.4,0.5,1.2,0.7,2.1c-0.3,0.4-0.6,0.9-0.9,1.4    c-0.1,0.2-0.2,0.5-0.3,0.7c0-1.2-0.2-2.6-0.5-3.7C852.2,347.6,852.5,347.4,852.9,347.4z M832.5,350.6c0,0.1,0,0.1,0,0.2    c0.1,2.1,0.6,4.6,1.1,7.3c1.2,6.2,2.7,13.8-0.2,19.4c-1.8-1-3.2-1.8-4.6-2.5C827.6,369.3,829.3,360.3,832.5,350.6z M832.7,380.5    l0.4,0.2c2.6,2,3.2,3.2,3.4,3.5c-0.2,0.3-0.5,0.7-0.8,0.6c-1.2-0.1-3.3-2.6-4.9-5.5C831.3,379.7,831.9,380,832.7,380.5z     M767.6,367.8l0.7-0.5c9.5-7,15.6-10.1,18.2-9.3c0.3,0.1,0.7,0.3,0.9,1c0.4,1.3-0.6,2.9-1.3,4.1c-0.3,0.5-0.5,0.9-0.7,1.3    c-0.8,0.2-1.5,0.3-2.4,0.6c-4.3,1.2-16.4,9.5-18.9,11.4c-0.2,0-0.5,0-0.7,0c-1.4-0.1-3.6-0.2-4.1-0.4c-1-0.4-2-1-2.9-1.7    C759.6,372.5,766.8,368.4,767.6,367.8z M602.3,304.7c6.5-4.4,11.8-5.3,12.9-4.2c0.7,0.7,0.4,3.2-2.6,7.9c-4.3,1.9-8.6,5-9.9,5.9    c-2.8,2-5.2,3.9-6.9,6.5C594.2,313.4,594.1,310.2,602.3,304.7z M596.3,327.2c1.1-5.1,3.9-7.5,8.1-10.5c6.8-4.9,13.3-7.7,14.8-7    c0.7,0.9,1.7,5.6-0.9,8.4c-0.3,0.3-0.6,0.7-1,1.1c-3.9,4.1-10.4,11-8.7,18.4c-1.7,3.3-3.7,7.2-5.3,10.8    C599.6,342,595.8,329.6,596.3,327.2z M610.5,374.2c-1.9-1.5-7.3-14-7.5-16.2c-0.1-0.8,0.6-2.9,1.8-5.5c0.1-0.2,0.2-0.4,0.3-0.6    c3.1-7.3,8.9-18.2,10.1-19.6c0.4-0.5,1-1.2,1.6-2.1c1-1.4,3.3-4.5,4.3-4.9c0.5,0.2,1.9,1,2.7,2.6c1.2,2.5,0.9,6.1-0.9,10.5    c-1.7,4.2-3.4,7.6-4.7,10.3c-2.7,5.6-4.5,9.2-3.9,13.2c0.7,4.5,2.7,5.6,4.8,6.4c0.5,0.2,0.9,0.3,1.2,0.5c0,0,0,0,0,0    c-0.7,2.5-1.6,5.7-1.4,8.7C616.1,376.8,611.6,375.1,610.5,374.2z M640.9,386c-0.8-0.3-1.5-0.6-2.2-0.8c-2-0.7-4.4-1.3-6.7-1.8    c-2.5-0.6-5-1.2-7.2-2c-4.3-1.6-3.3-6.3-1.7-11.9c0.2-0.6,0.4-1.2,0.5-1.7l0-0.2c2.8-10.7,6-18.4,8.1-19.6    c0.9-0.5,1.7-0.5,2.5,0.1c1.9,1.4,3.4,5.8,2.5,10c-0.2,1.2-0.6,2.5-1,3.9c-1.4,4.8-3,10.3-0.4,13.3c1.5,1.7,3.9,2.2,7.3,1.6    c0.3,0,0.5-0.2,0.7-0.3c2.4,1.9,4.6,3.5,5.6,4.1c0.4,0.2,0.9,0.5,1.4,0.7c1.4,0.7,3.3,1.6,3.7,2.6c0.4,1.1,0.5,2.5,0.6,3.9    c0,0.4,0.1,0.8,0.1,1.2C650.4,389.5,645,387.5,640.9,386z M640.4,374.1c-1.1,0-2.2-0.2-2.8-0.8c-0.5-0.5-0.7-1.4-0.7-2.4    C637.9,371.9,639.1,373,640.4,374.1z M659.6,395.2c-0.2-0.3-0.3-0.5-0.4-0.7c-0.3-0.6-0.6-1.5-0.9-2.3l-0.2-0.6    c-0.4-1.1-0.5-2.5-0.6-3.9c-0.1-1.5-0.2-3.1-0.7-4.6c-0.8-2.2-3.2-3.4-5.2-4.4c-0.5-0.2-0.9-0.4-1.2-0.6c-3.6-2-11.5-9-12.5-10.4    c-0.1-0.3-0.3-0.5-0.5-0.7c0.3-1.4,0.8-2.9,1.1-4.2c0.4-1.5,0.8-2.9,1.1-4.1c1.1-5.1-0.5-10.8-3.7-13.1c-1.8-1.3-3.8-1.4-5.7-0.2    c-3.6,2.1-7,12.1-9.2,20.6c-0.4-0.2-0.7-0.3-1-0.4c-1.4-0.5-2.4-0.9-2.9-4c-0.4-3.1,1.1-6.3,3.6-11.5c1.3-2.8,3-6.2,4.8-10.5    c3-7.3,1.8-11.6,0.2-14c-1.6-2.3-3.9-3.3-4.8-3.3c-2.1,0-4.1,2.6-6.8,6.1c-0.6,0.8-1.1,1.5-1.4,1.8c-0.2,0.2-0.4,0.6-0.8,1.2    c1.5-3.9,5-7.6,7.4-10.1c0.4-0.4,0.7-0.8,1-1.1c1.9-2.1,2.8-5.1,2.4-8.4c-0.1-0.8-0.5-3.6-2-4.5c-1-0.6-2.4-0.7-4-0.4    c2-4.1,2.2-6.9,0.4-8.6c-0.4-0.4-0.9-0.7-1.5-0.9c4-9.1,16-14.4,19.7-15.9c7.8-3.1,33.6-8.8,58,1.3c8.2,3.4,21.9,11.2,21.9,25.3    c0,1.4-0.2,2.9-0.4,4.6c-0.4,3.4-0.8,6.9,0.5,9.6c1.4,2.8,4.2,4.2,6.6,5.4c2.4,1.2,3.9,2,4,3.3c0.2,2.7-0.8,3.9-1.8,5.1    c-0.8,1-1.8,2.1-1.7,3.7c0,1.4,1,2,1.5,2.5c0.5,0.4,0.8,0.6,0.9,1.3c0,0.1,0,0.1,0,0.2c0,0,0,0,0,0c-0.4,0.3-1.6,1-1.3,2.7    c0.2,1.4,0.8,2,1.5,2.4c0,0,0.1,0,0.1,0c0,0,0,0.1,0.1,0.3c0.1,0.4-0.1,0.8-0.6,1.6c-0.4,0.7-0.9,1.4-0.9,2.4    c0,1,0.4,1.8,0.8,2.6c0.3,0.6,0.6,1.3,0.5,1.7c-0.3,1.6-3.1,4.7-5.2,4.7c-0.1,0-0.2,0-0.3,0c-5.8-2-12.4-3.1-20.2-2.9    c-3.3,0.1-6.2,0.4-8.6,0.8c0.4-1.4,0.6-2.5,0.6-2.7c0.1-0.7-0.2-1.4-0.9-1.7c-0.6-0.3-1.4-0.1-1.8,0.5c-1,1.3-7.9,4.1-9.6,4.4    c-4.6,0.8-8.9,0-12.3-2.5c-3.8-2.8-6.2-7.2-6.9-12.7c0-0.3-0.1-0.6-0.1-0.9c-0.2-1.7-0.7-4.6,0-5.9c0.8-1.5,2.6-2.6,4.8-3    c2.6-0.5,5.3,0.1,6.9,1.4c0.6,0.5,1.6,0.5,2.1-0.2c0.5-0.6,0.5-1.6-0.2-2.1c-2.3-1.9-5.8-2.7-9.3-2.1c-3.1,0.6-5.6,2.2-6.9,4.5    c-1.2,2.1-0.7,5.4-0.4,7.7c0,0.3,0.1,0.6,0.1,0.8c0.8,6.2,3.7,11.5,8.1,14.7c4.1,3,9.1,4.1,14.6,3.1c1-0.2,4.8-1.5,7.9-3    c0,0.1-0.1,0.2-0.1,0.4c-4.2,1.3-6.5,3.3-6.9,6.1c0,0.1,0,0.2,0,0.3c0,0,0,0,0,0c0,0,0,0,0,0.1c-6.1-0.9-8.2-1-9.2-0.3    c-4.9,3.3-0.2,12.9,1.3,15.8c2.3,4.4,7.7,8.4,13.3,10.1c3.2,0.9,6.2,2.7,8.8,5c0.1,0.1,0.6,0.7,1,1.3c1,1.4,2.1,2.7,3.1,4    c-2.4,0.2-4.9,0.5-7.4,0.9c-0.7,0.1-1.3,0.2-1.6,0.2c-4.9,0.5-9-1.4-13.2-3.5c-3.2-1.5-6.5-3.1-10.4-3.8l-0.5-0.1    c-1.5-0.3-3.6-0.6-5.6-0.5C660,395.8,659.8,395.5,659.6,395.2z M684,366.7c-0.1,0-0.2,0-0.3,0c0.4-0.8,1.2-1.6,2.4-2.2    c-0.2,0.5-0.4,0.9-0.7,1.2C685,366.3,684.5,366.6,684,366.7z M741.7,407.5c-1.1,1-2.2,2.1-3.4,3.2c-3.3,3.1-7,6.5-9.6,9.9    c-0.1,0.1-0.1,0.1-0.2,0.2c-7.4,9.6-25.8,22.2-47.9,33.6c0-0.7-0.5-1.4-1.2-1.6c-4.6-0.9-7.9-4.2-8.6-6.8c-0.2-0.7-0.2-1.4,0-1.9    c3.2,2.2,5.9,3.7,6.8,4.2c0.2,0.1,0.4,0.1,0.6,0.1c0.6,0,1.1-0.3,1.4-0.9c0.3-0.8,0-1.6-0.8-2c-2.3-1.1-16-9.9-18.7-14.9    c-1.1-2-1.4-4.3-0.7-5.8c0.4-1,1.2-1.7,2.5-2.1c0.5-0.1,1.4-0.2,2.4-0.1c11.7,6.4,13.3,5.4,14.1,4.9c0.7-0.4,1-1.1,1-1.9    c0-0.9-0.5-1.7-1.5-2.4c-2.4-1.7-8.3-3.1-12.6-3.5c-0.5-0.3-1-0.6-1.5-0.9l-0.1-0.1c-2.6-1.5-9.7-5.5-9.7-12.1    c0-3,0.7-5.1,2.1-6.3c2.3-2,6.4-1.3,9.2-0.8l0.5,0.1c3.4,0.6,6.5,2.1,9.5,3.5c4.4,2.1,9,4.4,14.8,3.8c0.4,0,1-0.1,1.7-0.2    c3.9-0.5,7-0.8,9.4-1c3.4,3.7,6.5,6.3,9.1,5.9c0.9-0.1,2.2-0.7,2.9-2.6c0.7-1.9,0.2-3.2-0.4-4c-1.6-2-5.4-2.6-10.3-2.4    c-1.3-1.5-2.7-3.3-4.5-5.5c-0.8-1.1-1.1-1.4-1.3-1.6c-2.9-2.7-6.4-4.7-10-5.7c-4.8-1.4-9.5-4.9-11.5-8.6    c-2.5-4.7-4.2-10.4-2.4-11.8c1.4-0.3,7.4,0.7,9.8,1.1c0.9,0.1,1.6,0.3,2,0.3c0.9,0.1,1.7,0.2,2.5,0.3c1.8,0.2,3.6,0.3,5.3,0.9    c0.9,0.3,7.6,4.2,11.6,6.5c3.4,1.9,4.7,2.7,5,2.9c0.8,0.4,1.9,0.9,3.3,1.5c8.2,3.5,27,11.6,32.4,21.4    C743.9,405.4,742.8,406.5,741.7,407.5z M705.4,405.8c3.3,0.1,4.7,0.7,5.2,1.3c0.1,0.1,0.2,0.3,0,1c-0.2,0.4-0.4,0.7-0.6,0.7    C709.3,408.9,708,408.4,705.4,405.8z M754.6,395.7c-3,1.8-5.3,4-7.6,6.3c-6.4-10.3-24.4-18-33.3-21.8c-1.4-0.6-2.5-1.1-3.2-1.4    c-0.3-0.2-2.6-1.5-4.8-2.7c-6.2-3.6-11-6.3-12-6.7c-2.1-0.8-4.1-1-6.1-1.1c-0.1,0-0.2,0-0.3,0c0.2-0.2,0.4-0.4,0.6-0.7    c0.8-1.1,1.5-2.6,2-4.2c2.5-0.6,5.7-0.9,9.6-1c22.1-0.6,34,9.9,44.5,19.3c1.2,1,2.3,2,3.4,3c1.3,1.2,2.6,2.4,3.8,3.5    c2.1,2,4.2,4,6.6,5.7C756.5,394.5,755.4,395.2,754.6,395.7z M763.6,390.7c-0.9,0.5-1.8,1-2.7,1.5c-2.8-1.8-5.1-3.9-7.5-6.3    c-1.3-1.2-2.6-2.4-4-3.7c-1.1-1-2.2-2-3.4-3c-4.2-3.7-8.7-7.7-14.2-11.2c1.1,0.3,2.3,0.6,3.3,1c1.6,0.5,2.9,1,4,0.9    c3.4-0.2,6.3,1.1,9.2,2.5c1.6,0.8,2.9,1.8,4.3,2.9c1.6,1.2,3.3,2.5,5.4,3.5c0.9,0.4,2.5,0.5,5.1,0.7c1.3,0.1,2.7,0.2,3.2,0.3    c3.5,0.9,4.5,2,6.5,4.4c0.2,0.3,0.5,0.6,0.8,0.9c-0.2,0.1-0.3,0.2-0.5,0.3C772,386.1,767.7,388.4,763.6,390.7z M786.6,375.3    c-1.6,1.7-3.2,3.2-3.9,3.7c-1.6,1.1-3.2,2.1-4.8,3.1c-0.6,0.4-1.2,0.8-1.8,1.1c-0.4-0.4-0.7-0.8-1.1-1.2c-2-2.3-3.3-3.9-6.9-5    c4.5-3.1,12.7-8.4,15.5-9.2c5.1-1.4,8-1.2,12-0.6C793.3,368.6,790.4,371.6,786.6,375.3z M804.9,371.8c-0.4-1.4-1.2-2.5-2.2-3.4    c6.2,1.2,12.3,3.5,17.9,5.9c2.4,1,4.1,1.8,5.7,2.6c0.1,0.3,0.2,0.7,0.3,1c0.7,1.6,4.7,9.7,8.9,9.9c0.1,0,0.1,0,0.2,0    c1,0,2.4-0.4,3.5-2.4c0.7-1.1,0.6-3.2-3.3-6.4c3.6-6.5,2-14.8,0.7-21.6c-0.5-2.6-1-5-1-6.8c0-0.2,0-0.5,0-0.7    c-0.2-3.4,0.2-4.3,0.5-4.5c1.6-0.7,2.8-0.9,3.6-0.4c2.1,1.2,2.5,6.2,2.7,8.3c0.1,1.6,0.2,2.2,0.9,2.7c0.5,0.3,1.1,0.3,1.6,0    c1.4-0.8,0.9-5.7,0.9-5.9l0-0.3c-0.1-1.3-0.4-3.3,0.2-3.9c0.3-0.3,0.8-0.3,1.2-0.3c0.4,0,0.8,0.6,1,0.9c0.1,0.2,0.3,0.4,0.4,0.7    c-0.6,0.9-0.9,2-1.1,3c-0.4,2.4,0.4,4.3,2,4.9c0.7,0.3,1.5,0.1,2.1-0.4c0.3-0.3,0.6-0.8,0.7-1.4c0.1,1.1,0.8,2,1.8,2.5    c0.7,0.3,1.4,0.2,2-0.3c0.8-0.8,1-2.9,0.7-4.9c0.6-0.4,1.2-0.5,1.8-0.3c0.2,0.3,0.2,0.8,0.3,1.5c-0.7,0.6-1.2,1.3-1.6,1.9    c-1.4,2.2-0.6,3.8,0.5,4.5c0.7,0.4,1.5,0.4,2.2,0c1.4-0.8,1.8-3.1,1.9-4.8c0.1,0,0.1,0,0.1,0c1.4,0.9,1.2,1.4,0.4,3.4    c-0.4,1-0.9,2.1-0.9,3.4c0.1,1.7-0.1,3.7-0.4,5.3c-3.3,1-6.5,4.1-7.3,5.4c-1.5,2.4-2.5,4.4-3.4,6.1c-1.3,2.6-2.4,4.8-4.8,7.6    c-2.5,3-12.4,10.8-20.4,8c-11.4-3.9-20.6-4.3-25.6-4.1c0.2-0.2,0.4-0.5,0.6-0.7C801.3,386.1,806.8,378,804.9,371.8z M830.1,417.1    c-6.7-2.1-10.5-2.6-14.9-3.1c-3.1-0.4-6.3-0.8-11.1-1.8c-1.8-0.4-4.2-0.6-7-0.9c-5.9-0.6-13.3-1.3-17.8-3.9    c-0.1-0.1-0.2-0.1-0.3-0.1c0,0,0,0,0,0c2.1-1.6,4.1-3.9,5.7-5.8c0.7-0.8,1.3-1.5,1.9-2.1c1.7-1.8,3.7-3.2,5.8-4.7    c1.3-0.9,2.7-1.9,4-3c2-0.2,13-1.3,27.9,3.8c1.5,0.5,3,0.7,4.5,0.7c8.3,0,16.7-6.7,19.2-9.7c2.6-3.1,3.8-5.6,5.1-8.2    c0.9-1.8,1.8-3.6,3.3-5.9c0.7-1.2,4.7-4.6,7.1-4.3c0.3,0,1.2,0.2,1.8,2.1c0.1,1.4-0.6,3.1-1.4,4.7c-1.8,0.3-3.5,1-4.5,1.8    c-2,1.4-2,3.1-1.3,4.2c0.7,1,1.8,1.4,3.1,1c1.4-0.5,3.1-2.1,4.5-4.2c1.1,0,1.6,0.2,1.7,0.3c0.1,0.1,0.2,0.3,0.1,0.9    c-0.2,0.8-0.9,1.7-1.7,2.5c-1.6,0.7-3,1.6-3.5,2.2c-0.7,0.8-0.4,1.6-0.3,1.9c0.3,0.6,0.9,0.9,1.5,0.9c0,0,0,0,0,0    c1,0,2.5-1,3.9-2.4c1.1-0.4,2.2-0.7,2.6-0.5c0,0,0,0,0,0.1c0,0.5-1,1.5-2.2,2.3c-1.2,0.1-2.1,0.3-2.6,0.5    c-1.8,0.6-1.7,1.8-1.6,2.2c0.2,0.8,1,1.7,2.6,1.4c0.7-0.1,1.6-0.5,2.6-1.1c1.1,0,2.2,0,3,0.4c0.4,0.2,0.6,0.3,0.7,0.5    c0.1,0.2-0.1,0.8-0.7,1.6c-0.3,0.3-0.6,0.7-0.9,0.9c-2.6-0.4-4.8-0.6-5.9,0.7c-0.3,0.4-0.8,1.2-0.4,2.4c0.3,0.9,1,1.5,1.9,1.7    c0.2,0,0.4,0.1,0.6,0.1c1.4,0,3-0.7,4.5-1.7c0.3,0.1,0.6,0.2,0.9,0.1c0.6-0.1,1.2,0,1.5,0.3c0.1,0.1,0.3,0.3,0.2,0.8    c-0.1,0.6-2.7,1.6-3.6,1.9c-1,0.4-1.9,0.7-2.5,1.1c-1.2,0.8-2,2.5-2.8,4.4c-0.4,0.8-0.9,2.1-1.2,2.4c-2.4,2.3-5.7,3.6-10.8,4.1    c-0.2-0.1-0.4-0.3-0.7-0.5c-0.8-3.3-2.8-7.2-4.7-10.2c-0.3-0.5-0.6-1-0.9-1.5c-1.2-2.2-2.9-5.3-6.5-4.6c-0.9,0.2-1.7,1-1.5,2.4    c0.3,2.3,6.5,11.2,10.8,15.3c0.1,0.5,0.1,0.9,0.1,1.3c0,1-0.9,2.4-2.5,3.9c-3.3,3.1-8.2,5.3-9.2,5.2c-0.2,0-0.5,0-0.7,0.1    C835.8,419.7,833.3,418.1,830.1,417.1z M845.6,402.1c-1.5-2-2.8-4-3.5-5.3c0.6,0.4,1.2,1.3,2,2.9c0.3,0.6,0.6,1.1,1,1.7    C845.3,401.5,845.4,401.8,845.6,402.1z M806.8,477.9c0,0,0-0.1,0-0.4c0.6-0.1,1.7,0.2,3.2,0.7C807.6,478.5,807,478.1,806.8,477.9    z M794,497.2c-0.6,0.3-1.2,0.5-1.8,0.7c-1.6,0.6-3.2,1.2-5,2c-5.9,2.4-12.6,5.2-18,4.1c-3.2-0.6-12.6-3.9-13.5-6.8c0,0,0,0,0,0    c0-2.2,2-3.5,6.6-4.3c9.7-1.7,21.4,0.3,33.1,3.8C794.9,496.8,794.4,497,794,497.2z M863.2,536.8c-0.2,0.4-1.5,0.5-3.6-0.5    c-7-3.3-10.6-8.1-10.1-13.5c0-0.3,0.1-0.5,0.1-0.8C861.7,529.6,863.8,535.6,863.2,536.8z M1032.3,293.5    c-1.1,3.6-9.6,5.7-14.8,6.2c-5.6,0-10-1.7-13.8-4.7c9.2-7.6,18.4-13.6,24-8.9C1030.2,288.1,1033,291.1,1032.3,293.5z"></path>			<path class="st0" d="M672.2,340.9c-0.4-0.5-1.5-2.1-3-1.9c-0.8,0.1-1.4,0.7-1.6,1.5c-0.4,1.4,0.3,3.8,2,5.3    c-0.1,0.1-0.3,0.2-0.4,0.3c-0.9,0.6-1.9,1.4-2.5,2.6c-0.6,1-0.1,2.2,0.3,3.3c0.1,0.2,0.1,0.3,0.1,0.4c0.3,1.1,0.8,2.4,1.7,2.9    c0.7,0.4,1.4,0.6,2.1,0.6c1.6,0,3-0.9,4.3-1.6c2.3-1.4,3.8-2.1,5.9-0.4c0.6,0.5,1.6,0.5,2.1-0.2c0.5-0.6,0.5-1.6-0.2-2.1    c-3.8-3.3-7.1-1.2-9.3,0.1c-1.6,1-2.5,1.4-3.2,1.1c-0.1-0.1-0.2-0.4-0.4-1.2c0-0.2-0.1-0.4-0.2-0.6c-0.1-0.2-0.3-0.7-0.3-1.1    c0.4-0.5,0.9-0.9,1.5-1.4c0.5-0.3,1-0.8,1.5-1.3c0.8,0.2,1.7,0.4,2.4,0.5c1.2,0.2,2.4,0.4,3.2,0.9c0.7,0.4,1.6,0.1,2-0.6    c0.4-0.7,0.1-1.6-0.6-2c-1.2-0.7-2.7-1-4.1-1.2c-0.6-0.1-1.3-0.2-1.8-0.4C673.6,343.6,673.2,342.4,672.2,340.9z"></path>		</g>	</g>			<linearGradient id="SVGID_00000159440141575683986860000014825440929565350806_" gradientUnits="userSpaceOnUse" x1="59.3763" y1="107.197" x2="152.7289" y2="107.197">		<stop offset="0" style="stop-color:#FF6404"></stop>		<stop offset="1" style="stop-color:#FF0C93"></stop>	</linearGradient>	<path style="fill:url(#SVGID_00000159440141575683986860000014825440929565350806_);" d="M138.7,95.5c-1.9-3-0.8-7,2.4-8.7  c2.8-1.4,6.3-0.3,8,2.4l3,4.8c-5.5-20-23.8-34.8-45.5-34.8c-26,0-47.2,21.2-47.2,47.2v1.4c0,26,21.2,47.2,47.2,47.2  c15.6,0,29.5-7.7,38.1-19.4c-1-0.8-1.6-1.2-1.6-1.2l-0.4-0.4c-1.2-1.1-2.4-2.4-1.9-5.3c0.4-1.8,1.2-2.9,2.6-3.6  c2.2-1.2,3.8-1,6.3,0.5l0.6,0.3c1.1-2.6,1.9-5.2,2.5-8L138.7,95.5z M122.7,111.1h-12.2v12.2c0,2.2-1.8,3.9-3.9,3.9  c-2.2,0-3.9-1.8-3.9-3.9v-12.2H90.5c-2.2,0-3.9-1.8-3.9-3.9c0-2.2,1.8-3.9,3.9-3.9h12.2V91.1c0-2.2,1.8-3.9,3.9-3.9  c2.2,0,3.9,1.8,3.9,3.9v12.2h12.2c2.2,0,3.9,1.8,3.9,3.9C126.6,109.4,124.9,111.1,122.7,111.1z"></path>	<g>		<g id="XMLID_00000168094827205430013350000004609628261893570471_">			<g id="XMLID_00000045620280637076781060000005138442643668228485_">									<linearGradient id="SVGID_00000142891506106591849530000015529016574863353239_" gradientUnits="userSpaceOnUse" x1="181.1996" y1="155.2646" x2="219.6166" y2="155.2646">					<stop offset="0" style="stop-color:#FF6404"></stop>					<stop offset="1" style="stop-color:#FF0C93"></stop>				</linearGradient>				<path style="fill:url(#SVGID_00000142891506106591849530000015529016574863353239_);" d="M219.5,150.7L188,170.5     c-0.1,0.1-0.3,0-0.4-0.1l-6.4-10.2c-0.1-0.1,0-0.3,0.1-0.4l31.4-19.7c0.1-0.1,0.3,0,0.4,0.1l6.4,10.2     C219.7,150.5,219.6,150.6,219.5,150.7z"></path>			</g>			<path class="st0" d="M221.1,149.4l-6.4-10.2c-0.2-0.3-0.5-0.6-0.8-0.8c-1-2.1-2-4.9-3.1-8.3c-1.7-4.9-3.7-10.9-7.2-18.7    c-1.9-4.2-8-12.8-8.5-13.6l-1.7-2.7c-2.1-3.4-6-4.6-9.2-3c-1.4,0.7-2.6,1.9-3.3,3.3c-2.2-2.5-5.8-3.3-8.7-1.8    c-1.5,0.8-2.7,2-3.4,3.5c-2.2-2-5.5-2.6-8.2-1.3c-1.4,0.7-2.5,1.8-3.2,3.2l-6.7-10.7c-2.2-3.5-6.7-4.8-10.3-3.1    c-2,1-3.4,2.8-4,4.9c-0.6,2.1-0.3,4.4,0.9,6.3L157,128c-2.5-1.5-3.9-2.4-3.9-2.4c0,0-0.1,0-0.1-0.1l-2.4-1.4    c-2.6-1.6-4.9-2.2-8-0.5c-1.9,1.1-3,2.6-3.4,4.8c-0.8,3.8,1.2,5.8,2.4,6.9c0,0,0,0,0.1,0.1l0.5,0.4c0.4,0.3,9.9,8,22.8,13.7    c7.1,3.2,11.3,7.3,14,10.1c0.2,0.2,0.4,0.4,0.6,0.6c0,0.3,0.1,0.6,0.3,0.9l6.4,10.2c0.3,0.5,0.7,0.8,1.3,0.9    c0.2,0,0.3,0.1,0.5,0.1c0.4,0,0.8-0.1,1.1-0.3l31.4-19.7c0,0,0,0,0,0C221.4,151.6,221.7,150.3,221.1,149.4z M166.3,146.3    c-12.5-5.6-21.9-13.2-22-13.2l-0.4-0.3c-1-1-1.7-1.7-1.3-3.7c0.2-1.2,0.7-1.9,1.7-2.5c1.5-0.8,2.3-0.9,4.5,0.4l2.4,1.4    c0.5,0.3,3.8,2.5,9.7,5.8c0.2,0.1,0.3,0.2,0.5,0.3c0.7,0.3,1.5,0.2,2.1-0.4c0.5-0.6,0.6-1.4,0.2-2.1l-23.5-37.4    c-0.6-1-0.8-2.3-0.5-3.5c0.3-1.2,1.1-2.1,2.2-2.7c2-1,4.5-0.2,5.7,1.8l10,16c0,0,0,0,0,0l8,12.7c0.3,0.5,0.9,0.8,1.5,0.8    c0.3,0,0.6-0.1,0.9-0.3c0.8-0.5,1.1-1.6,0.6-2.4l-8-12.7c-0.6-0.9-0.7-2-0.4-3c0.3-1,1-1.9,1.9-2.3c1.7-0.8,3.9-0.2,4.9,1.6    l2.1,3.4c0,0,0,0,0,0c0,0,0,0,0,0l5.7,9.1c0.3,0.5,0.9,0.8,1.5,0.8c0.3,0,0.6-0.1,0.9-0.3c0.8-0.5,1.1-1.6,0.6-2.4l-5.7-9.1v0    c-0.6-0.9-0.7-2-0.4-3c0.3-1,1-1.9,1.9-2.3c1.7-0.8,3.9-0.2,4.9,1.6l2.6,4.1c0,0,0,0,0,0l3,4.8c0.3,0.5,0.9,0.8,1.5,0.8    c0.3,0,0.6-0.1,0.9-0.3c0.8-0.5,1.1-1.6,0.6-2.4l-3-4.8c0,0,0,0,0,0c-0.6-0.9-0.7-2-0.4-3c0.3-1,1-1.9,1.9-2.3    c1.9-0.9,3.7,0.2,4.7,1.7l1.7,2.8c0,0,0,0.1,0.1,0.1c0.1,0.1,6.4,9,8.2,13c3.4,7.7,5.4,13.6,7.1,18.4c1.1,3.2,2,5.9,3,8.1    l-28.8,18.1c-0.1-0.1-0.2-0.2-0.3-0.3C178.4,154.2,174,149.8,166.3,146.3z M188.3,168.2l-4.8-7.7l29-18.2l4.8,7.7L188.3,168.2z"></path>		</g>		<g>			<g>				<g>					<path class="st0" d="M138.6,75.5c-0.8,0-1.5-0.5-1.7-1.3l-1.3-5.4c-0.2-0.9,0.4-1.9,1.3-2.1c0.9-0.2,1.9,0.4,2.1,1.3l1.3,5.4      c0.2,0.9-0.4,1.9-1.3,2.1C138.9,75.5,138.7,75.5,138.6,75.5z"></path>				</g>			</g>			<g>				<g>					<path class="st0" d="M127.4,83.6c-0.3,0-0.6-0.1-0.9-0.3l-4.7-2.9c-0.8-0.5-1.1-1.6-0.6-2.4c0.5-0.8,1.6-1.1,2.4-0.6l4.7,2.9      c0.8,0.5,1.1,1.6,0.6,2.4C128.6,83.3,128,83.6,127.4,83.6z"></path>				</g>			</g>			<g>				<g>					<path class="st0" d="M160.4,88.9c-0.8,0-1.5-0.5-1.7-1.3c-0.2-0.9,0.4-1.9,1.3-2.1l5.4-1.3c0.9-0.2,1.9,0.4,2.1,1.3      c0.2,0.9-0.4,1.9-1.3,2.1l-5.4,1.3C160.6,88.9,160.5,88.9,160.4,88.9z"></path>				</g>				<g>					<path class="st0" d="M119.8,98.5c-0.8,0-1.5-0.5-1.7-1.3c-0.2-0.9,0.4-1.9,1.3-2.1l5.4-1.3c0.9-0.2,1.9,0.4,2.1,1.3      c0.2,0.9-0.4,1.9-1.3,2.1l-5.4,1.3C120.1,98.5,120,98.5,119.8,98.5z"></path>				</g>			</g>			<g>				<g>					<path class="st0" d="M152.3,77.7c-0.3,0-0.6-0.1-0.9-0.3c-0.8-0.5-1.1-1.6-0.6-2.4l2.9-4.7c0.5-0.8,1.6-1.1,2.4-0.6      c0.8,0.5,1.1,1.6,0.6,2.4l-2.9,4.7C153.4,77.4,152.8,77.7,152.3,77.7z"></path>				</g>				<g>					<path class="st0" d="M130.4,113.2c-0.3,0-0.6-0.1-0.9-0.3c-0.8-0.5-1.1-1.6-0.6-2.4l2.9-4.7c0.5-0.8,1.6-1.1,2.4-0.6      c0.8,0.5,1.1,1.6,0.6,2.4l-2.9,4.7C131.6,112.9,131,113.2,130.4,113.2z"></path>				</g>			</g>		</g>	</g>	<g>		<g>							<linearGradient id="SVGID_00000015333622913512620320000012988089745228504241_" gradientUnits="userSpaceOnUse" x1="-27.4273" y1="-1328.0087" x2="-5.6331" y2="-1328.0087" gradientTransform="matrix(0.9936 -0.1129 0.1129 0.9936 450.2601 1652.019)">				<stop offset="0" style="stop-color:#FF6404"></stop>				<stop offset="1" style="stop-color:#FF0C93"></stop>			</linearGradient>			<path style="fill:url(#SVGID_00000015333622913512620320000012988089745228504241_);" d="M280.5,356.8c-2.7,0.3-5.2-1.6-5.5-4.3    l-3.8-33.8c-0.3-2.7,1.6-5.2,4.3-5.5l16.7-1.9l5,43.6L280.5,356.8z"></path>			<path class="st0" d="M279.9,358.6c-3.4,0-6.3-2.5-6.6-5.9l-3.8-33.8c-0.2-1.8,0.3-3.5,1.4-4.9c1.1-1.4,2.7-2.3,4.5-2.5l16.7-1.9    c0.5-0.1,0.9,0.1,1.3,0.4c0.4,0.3,0.6,0.7,0.7,1.2l5,43.6c0.1,0.5-0.1,0.9-0.4,1.3c-0.3,0.4-0.7,0.6-1.2,0.7l-16.7,1.9l0,0    C280.4,358.6,280.2,358.6,279.9,358.6z M280.5,356.8L280.5,356.8L280.5,356.8z M290.7,313.3l-15,1.7c-0.8,0.1-1.6,0.5-2.1,1.2    c-0.5,0.7-0.8,1.5-0.7,2.3l3.8,33.8c0.2,1.7,1.8,3,3.5,2.8l15-1.7L290.7,313.3z"></path>		</g>		<g>			<g>				<path class="st0" d="M297.2,356.7c-0.9,0-1.6-0.7-1.7-1.6l-5-44.3c0-0.2,0-0.5,0.1-0.7l12.2-38.6c0.3-0.8,1.1-1.3,1.9-1.2     c5,0.8,8.8,4.8,9.4,9.8l2,17.9c0.1,0.6,0.4,1.2,0.9,1.5c0.5,0.4,1.1,0.6,1.7,0.5l25.3-2.9c0.4,0,0.7-0.1,1.1-0.1     c1.8,0.1,3.5,0.8,4.7,2.1c1.2,1.3,1.8,3,1.8,4.8c0,0,0,0,0,0l-1.6,41c-0.1,3.3-2.7,6-5.9,6.4l-46.5,5.3     C297.3,356.7,297.3,356.7,297.2,356.7z M294,310.8l4.8,42.2l44.8-5.1c1.6-0.2,2.8-1.5,2.8-3l1.6-41c0-0.8-0.3-1.6-0.9-2.3     c-0.6-0.6-1.4-1-2.2-1c-0.2,0-0.3,0-0.6,0l-25.3,2.9c-1.5,0.2-3.1-0.3-4.3-1.2c-1.2-1-2-2.4-2.2-3.9l-2-17.9     c-0.3-2.9-2.3-5.4-5-6.4L294,310.8z M349.7,303.9L349.7,303.9L349.7,303.9z"></path>			</g>			<g>				<line class="st0" x1="349.3" y1="312.2" x2="333.8" y2="314"></line>				<path class="st0" d="M333.8,315.8c-0.9,0-1.6-0.7-1.7-1.6c-0.1-1,0.6-1.8,1.5-1.9l15.5-1.8c0.9-0.1,1.8,0.6,1.9,1.5     c0.1,1-0.6,1.8-1.5,1.9l-15.5,1.8C333.9,315.8,333.8,315.8,333.8,315.8z"></path>			</g>			<g>				<line class="st0" x1="348" y1="325.1" x2="333.7" y2="326.7"></line>				<path class="st0" d="M333.7,328.5c-0.9,0-1.6-0.7-1.7-1.6c-0.1-1,0.6-1.8,1.5-1.9l14.3-1.6c0.9-0.1,1.8,0.6,1.9,1.5     c0.1,1-0.6,1.8-1.5,1.9l-14.3,1.6C333.8,328.5,333.8,328.5,333.7,328.5z"></path>			</g>			<g>				<line class="st0" x1="347.6" y1="336.7" x2="334" y2="338.2"></line>				<path class="st0" d="M334,340c-0.9,0-1.6-0.7-1.7-1.6c-0.1-1,0.6-1.8,1.5-1.9l13.7-1.6c0.9-0.1,1.8,0.6,1.9,1.5     c0.1,1-0.6,1.8-1.5,1.9l-13.7,1.6C334.1,340,334,340,334,340z"></path>			</g>		</g>	</g>	<g>					<linearGradient id="SVGID_00000057148719071182472090000003161951952233540539_" gradientUnits="userSpaceOnUse" x1="240.3795" y1="262.9748" x2="240.3795" y2="156.5244">			<stop offset="0" style="stop-color:#FF6404"></stop>			<stop offset="1" style="stop-color:#FF0C93"></stop>		</linearGradient>		<path style="fill:url(#SVGID_00000057148719071182472090000003161951952233540539_);" d="M298.1,221.1h-120   c-37.2,0-67.8-28.3-71.5-64.5c-0.9,0-1.8,0-2.6,0c3.7,37.6,35.5,67.2,74.1,67.2h120c31.3,0,59,15.5,75.8,39.3   c0.9-0.2,1.9-0.4,2.8-0.6C359.5,237.4,330.7,221.1,298.1,221.1z"></path>					<linearGradient id="SVGID_00000111170940645109542600000012987289754817725106_" gradientUnits="userSpaceOnUse" x1="244.2797" y1="478.0742" x2="244.2797" y2="360.6683">			<stop offset="0" style="stop-color:#FF6404"></stop>			<stop offset="1" style="stop-color:#FF0C93"></stop>		</linearGradient>		<path style="fill:url(#SVGID_00000111170940645109542600000012987289754817725106_);" d="M379.9,360.7   c-15.7,29.1-46.5,48.9-81.8,48.9H197.4c-43.2,0-79.8,28.8-91.6,68.3c0.9,0,1.8,0.1,2.7,0.3c11.6-38.1,47.1-65.9,88.9-65.9h100.7   c36.7,0,68.6-20.8,84.6-51.3C381.8,360.8,380.8,360.8,379.9,360.7z"></path>	</g>	<g>					<linearGradient id="SVGID_00000051362123092701829810000000518880907516191933_" gradientUnits="userSpaceOnUse" x1="68.2741" y1="532.269" x2="135.0517" y2="532.269">			<stop offset="0" style="stop-color:#FF6404"></stop>			<stop offset="1" style="stop-color:#FF0C93"></stop>		</linearGradient>		<path style="fill:url(#SVGID_00000051362123092701829810000000518880907516191933_);" d="M135,560.1c0.3-5.8-2.9-11.2-8.1-13.7   l-8.8-4.3c-4.1-2-5.7-6.8-3.8-10.9c2-4.1,6.8-5.7,10.9-3.8l7.9,3.8l-14.8-42.6c-0.3-0.8-1.1-1.2-1.8-0.9l-47.2,16.4   c-0.8,0.3-1.2,1.1-0.9,1.8l24.3,69.8c0.3,0.8,1.1,1.2,1.8,0.9l40.6-14.1C135,561.8,134.9,561,135,560.1z M102.8,538.3   c-0.6,0-1.2-0.1-1.7-0.4l-11.5-5.5c-2-0.9-2.8-3.3-1.8-5.3c0.9-2,3.3-2.8,5.3-1.8l7.9,3.8l9.5-19.7c0.9-2,3.3-2.8,5.3-1.8   c2,0.9,2.8,3.3,1.8,5.3L106.4,536C105.7,537.4,104.3,538.3,102.8,538.3z"></path>		<g>			<path class="st0" d="M96.7,598.7c-0.8,0-1.5-0.2-2.3-0.5c-1.3-0.6-2.2-1.7-2.7-3L58,497.9c-0.9-2.7,0.5-5.7,3.2-6.6l53.6-18.6    c1.3-0.5,2.7-0.4,4,0.2c1.3,0.6,2.2,1.7,2.7,3L143,538l-18.6-9c-3.2-1.5-7-0.2-8.5,3c-1.5,3.2-0.2,7,3,8.5l8.8,4.3    c5.9,2.8,9.4,8.9,9.1,15.4c-0.2,4.7,1.9,9.1,5.8,11.9l10.8,7.2l-55,19.1C97.8,598.6,97.3,598.7,96.7,598.7z M116.5,475.9    c-0.2,0-0.4,0-0.6,0.1l-53.6,18.6c-0.9,0.3-1.4,1.3-1.1,2.2L95.1,594c0.2,0.4,0.5,0.8,0.9,1c0.4,0.2,0.9,0.2,1.3,0.1l49.1-17.1    l-5.8-3c-4.9-3.4-7.7-9-7.4-15c0.3-5.1-2.5-9.8-7.1-12l-8.8-4.3c-2.4-1.2-4.2-3.2-5-5.7c-0.9-2.5-0.7-5.2,0.4-7.6    c2.4-4.9,8.3-7,13.2-4.6l11,5.3L118.1,477c-0.2-0.4-0.5-0.8-0.9-1C117,475.9,116.7,475.9,116.5,475.9z"></path>		</g>		<g>			<path class="st0" d="M152.9,581.2c-0.3,0-0.5-0.1-0.8-0.2l-11.3-5.9c-0.1,0-0.1-0.1-0.2-0.1c-4.9-3.4-7.7-9-7.4-15    c0.3-5.1-2.5-9.8-7.1-12l-8.8-4.3c-2.4-1.2-4.2-3.2-5-5.7c-0.9-2.5-0.7-5.2,0.4-7.6c2.4-4.9,8.3-7,13.2-4.6l25.6,12.6    c0.9,0.4,1.2,1.5,0.8,2.3c-0.4,0.9-1.5,1.2-2.3,0.8L124.4,529c-3.2-1.5-7-0.2-8.5,3c-1.5,3.2-0.2,7,3,8.5l8.8,4.3    c5.9,2.8,9.4,8.9,9.1,15.4c-0.2,4.7,1.9,9.1,5.8,11.9l11.2,5.8c0.9,0.4,1.2,1.5,0.7,2.4C154.2,580.8,153.6,581.2,152.9,581.2z"></path>		</g>		<g>							<linearGradient id="SVGID_00000168838934238152833490000016593905471256520580_" gradientUnits="userSpaceOnUse" x1="7023.7256" y1="-251.9063" x2="7041.6074" y2="-251.9063" gradientTransform="matrix(-0.9001 -0.4357 0.4357 -0.9001 6621.9316 3414.561)">				<stop offset="0" style="stop-color:#FF6404"></stop>				<stop offset="1" style="stop-color:#FF0C93"></stop>			</linearGradient>			<path style="fill:url(#SVGID_00000168838934238152833490000016593905471256520580_);" d="M194.5,562.8c2,1,2.9,3.4,1.9,5.4    l-12.1,25.1c-1,2-3.4,2.9-5.4,1.9l-12.4-6l15.7-32.4L194.5,562.8z"></path>			<path class="st0" d="M180.6,597.4c-0.9,0-1.7-0.2-2.5-0.6l-12.4-6c-0.9-0.4-1.2-1.5-0.8-2.3l15.7-32.4c0.4-0.9,1.5-1.2,2.3-0.8    l12.4,6h0c1.4,0.7,2.4,1.9,3,3.3c0.5,1.5,0.4,3-0.3,4.4l-12.1,25.1c-0.7,1.4-1.9,2.4-3.3,3C181.9,597.3,181.2,597.4,180.6,597.4z     M168.7,588.4l10.9,5.3c0.6,0.3,1.2,0.3,1.8,0.1c0.6-0.2,1-0.6,1.3-1.2l12.1-25.1c0.3-0.6,0.3-1.2,0.1-1.8    c-0.2-0.6-0.6-1-1.2-1.3l-10.9-5.3L168.7,588.4z"></path>		</g>		<g>							<linearGradient id="SVGID_00000132789099791101951030000010708337711383054007_" gradientUnits="userSpaceOnUse" x1="921.3234" y1="-1603.1865" x2="959.814" y2="-1603.1865" gradientTransform="matrix(0.9446 -0.3283 0.3283 0.9446 -271.3894 2312.8469)">				<stop offset="0" style="stop-color:#FF6404"></stop>				<stop offset="1" style="stop-color:#FF0C93"></stop>			</linearGradient>			<path style="fill:url(#SVGID_00000132789099791101951030000010708337711383054007_);" d="M74.1,497.2c-0.7,0-1.4-0.5-1.7-1.2    c-0.3-0.9,0.2-1.9,1.1-2.2l33-11.5c0.9-0.3,1.9,0.2,2.2,1.1c0.3,0.9-0.2,1.9-1.1,2.2l-33,11.5C74.5,497.2,74.3,497.2,74.1,497.2z    "></path>		</g>					<linearGradient id="SVGID_00000044177414512486468210000004974316915701261229_" gradientUnits="userSpaceOnUse" x1="934.084" y1="-1509.801" x2="947.0536" y2="-1509.801" gradientTransform="matrix(0.9446 -0.3283 0.3283 0.9446 -271.3894 2312.8469)">			<stop offset="0" style="stop-color:#FF6404"></stop>			<stop offset="1" style="stop-color:#FF0C93"></stop>		</linearGradient>		<circle style="fill:url(#SVGID_00000044177414512486468210000004974316915701261229_);" cx="121.3" cy="577.9" r="6.5"></circle>		<path class="st0" d="M81.5,560.2l-3.9-1.1c-1.5-0.4-2.7-1.4-3.4-2.8c-0.7-1.4-0.8-2.9-0.3-4.4c0.6-1.7,1.9-3,3.6-3.5l-1.1-3.3   c-2.6,0.9-4.8,2.9-5.7,5.7c-0.8,2.4-0.6,4.9,0.6,7.1c1.2,2.2,3.1,3.8,5.5,4.5l6.3,1.8L81.5,560.2z"></path>		<g>			<path class="st0" d="M86.6,575l-1.7-0.5c-1.5-0.4-2.7-1.4-3.4-2.8c-0.7-1.4-0.8-2.9-0.3-4.4c0.4-1.1,1-2,1.9-2.6l-1.2-3.4    c-1.8,1.1-3.3,2.8-4,4.9c-0.8,2.4-0.6,4.9,0.6,7.1c1.2,2.2,3.1,3.8,5.5,4.5L88,579L86.6,575z"></path>			<path class="st0" d="M183.4,556.1l-5.8-9.4c0,0,0-0.1-0.1-0.1c-6-8.3-11.4-10.9-19.7-14.8c-1-0.5-2-0.9-3-1.5l-19.6-9.5l1.6,4.7    l16.5,8c1.1,0.5,2.1,1,3.1,1.5c8,3.8,12.9,6.1,18.3,13.7l5.3,8.5l-14.8,30.6c-9.7,3.2-21.5,3.5-31,0.8l-7-2l-5.7,2l11.8,3.4    c4.6,1.3,9.7,2,14.9,2c6.5,0,13.1-1,18.9-3.1c0.4-0.2,0.8-0.5,1-0.9l15.6-32.1C183.8,557.3,183.7,556.6,183.4,556.1z"></path>		</g>	</g>	<g>					<linearGradient id="SVGID_00000013160370689136794900000010584057339001165203_" gradientUnits="userSpaceOnUse" x1="338.8127" y1="311.3099" x2="433.2246" y2="311.3099">			<stop offset="0" style="stop-color:#FF6404"></stop>			<stop offset="1" style="stop-color:#FF0C93"></stop>		</linearGradient>		<path style="fill:url(#SVGID_00000013160370689136794900000010584057339001165203_);" d="M385.1,262.5   c-22.1,0-40.7,14.9-46.3,35.2l5.1-0.6c0.4,0,0.7-0.1,1.1-0.1c1.8,0.1,3.5,0.8,4.7,2.1c1.2,1.3,1.8,3,1.8,4.8c0,0,0,0,0,0   l-1.6,40.6c8.8,9.5,21.3,15.4,35.3,15.4c26.6,0,48.1-21.5,48.1-48.1v-1.4C433.2,284.1,411.7,262.5,385.1,262.5z M369.4,301.8   c1.2-1.2,3.1-1.2,4.3,0l8.1,8.1v-22.6c0-1.7,1.4-3.1,3.1-3.1c1.7,0,3.1,1.4,3.1,3.1v22.6l8.1-8.1c1.2-1.2,3.1-1.2,4.3,0   c1.2,1.2,1.2,3.1,0,4.3L387,319.5c-0.6,0.6-1.4,0.9-2.2,0.9s-1.6-0.3-2.2-0.9l-13.3-13.3C368.2,305,368.2,303,369.4,301.8z    M401,331.3h-31.7c-1.7,0-3.1-1.4-3.1-3.1c0-1.7,1.4-3.1,3.1-3.1H401c1.7,0,3.1,1.4,3.1,3.1C404,330,402.7,331.3,401,331.3z"></path>	</g>	<g>		<path class="st0" d="M66.4,302.3l-4.7-12.4l-4.7,12.4h-3.1L48.6,282h3.5l3.7,14.8l5.8-15.1l5.8,15.1l3.7-14.8h3.6l-5.3,20.3H66.4z   "></path>		<path class="st0" d="M82.3,302.6c-1.9,0-3.6-0.7-4.9-2.2c-1.3-1.5-2-3.2-2-5.3s0.7-3.8,2-5.3c1.3-1.5,3-2.2,4.9-2.2   c1,0,1.9,0.2,2.7,0.6c0.8,0.4,1.5,0.9,1.9,1.6V288h3.1v14.3h-3.1v-1.9c-0.4,0.6-1.1,1.1-1.9,1.6C84.2,302.4,83.3,302.6,82.3,302.6   z M79.9,298.4c0.8,0.9,1.8,1.3,3.1,1.3c1.2,0,2.3-0.4,3.1-1.3c0.8-0.9,1.2-2,1.2-3.3c0-1.3-0.4-2.4-1.2-3.3   c-0.8-0.9-1.8-1.3-3.1-1.3c-1.2,0-2.3,0.4-3.1,1.3c-0.8,0.9-1.2,2-1.2,3.3C78.7,296.5,79.1,297.5,79.9,298.4z"></path>		<path class="st0" d="M94.3,302.3v-21.5h3.1v21.5H94.3z"></path>		<path class="st0" d="M111.7,302.3l-6.8-6.9v6.9h-3.1v-21.5h3.1v12.6l5.5-5.4h4l-6.4,6.4l7.8,7.9H111.7z"></path>		<path class="st0" d="M129.3,302.5c-1.5,0-2.6-0.4-3.5-1.2c-0.9-0.8-1.4-2-1.4-3.5v-6.9h-3V288h3v-4h3.2v4h4.1v2.8h-4.1v6.4   c0,0.9,0.2,1.5,0.6,1.9c0.4,0.4,1,0.6,1.8,0.6c0.7,0,1.2-0.1,1.7-0.3v2.8C130.9,302.4,130.2,302.5,129.3,302.5z"></path>		<path class="st0" d="M137.7,302.3h-3.1v-21.5h3.1v9.1c0.9-1.5,2.3-2.2,4.4-2.2c1.7,0,3,0.5,4,1.6c1,1.1,1.5,2.5,1.5,4.4v8.6h-3.1   v-8.1c0-1.1-0.3-2-0.8-2.7c-0.5-0.6-1.3-1-2.2-1c-1.1,0-2,0.4-2.7,1.2c-0.7,0.8-1,2-1,3.5V302.3z"></path>		<path class="st0" d="M151.6,302.3V288h3.1v2.5c0.3-0.8,0.8-1.5,1.5-1.9c0.7-0.5,1.5-0.7,2.3-0.7c0.5,0,0.9,0,1.2,0.1v3.2   c-0.5-0.2-1-0.3-1.6-0.3c-1,0-1.8,0.4-2.4,1.2c-0.7,0.8-1,1.8-1,3.2v7H151.6z"></path>		<path class="st0" d="M173.8,300.4c-1.4,1.4-3.2,2.2-5.3,2.2s-3.9-0.7-5.3-2.2c-1.4-1.4-2.2-3.2-2.2-5.3s0.7-3.8,2.2-5.3   c1.4-1.4,3.2-2.2,5.3-2.2s3.9,0.7,5.3,2.2c1.4,1.4,2.2,3.2,2.2,5.3S175.2,299,173.8,300.4z M168.4,299.7c1.2,0,2.3-0.4,3.1-1.3   c0.8-0.9,1.2-1.9,1.2-3.2s-0.4-2.4-1.2-3.2s-1.8-1.3-3.1-1.3c-1.3,0-2.3,0.4-3.1,1.3c-0.8,0.9-1.2,1.9-1.2,3.2s0.4,2.4,1.2,3.2   C166.1,299.2,167.2,299.7,168.4,299.7z"></path>		<path class="st0" d="M184.2,302.6c-1.6,0-2.9-0.5-3.9-1.6c-1-1.1-1.4-2.6-1.4-4.4V288h3.2v8c0,1.1,0.2,2,0.7,2.7   c0.5,0.7,1.2,1,2.1,1c1.1,0,1.9-0.4,2.5-1.2c0.6-0.8,0.9-2,0.9-3.5v-7h3.1v14.3h-3.1v-1.9C187.6,301.9,186.2,302.6,184.2,302.6z"></path>		<path class="st0" d="M202,308.6c-1.4,0-2.7-0.2-3.9-0.7c-1.2-0.5-2.1-1.1-2.8-1.9l1.9-2.3c1.3,1.4,2.9,2.1,4.8,2.1   c1.2,0,2.3-0.4,3.1-1.2c0.8-0.8,1.2-1.9,1.2-3.3V300c-0.5,0.6-1.1,1.2-1.9,1.6c-0.8,0.4-1.7,0.6-2.7,0.6c-1.9,0-3.6-0.7-4.9-2.1   s-2-3.1-2-5.2c0-2,0.7-3.7,2-5.1c1.3-1.4,3-2.1,4.9-2.1c1,0,1.8,0.2,2.7,0.6c0.8,0.4,1.5,0.9,1.9,1.6V288h3.1v13.3   c0,2.4-0.7,4.2-2,5.4C206,308,204.2,308.6,202,308.6z M199.2,298.1c0.8,0.8,1.8,1.2,3,1.2c1.2,0,2.2-0.4,3-1.2   c0.8-0.8,1.2-1.9,1.2-3.1c0-1.3-0.4-2.3-1.2-3.1c-0.8-0.8-1.8-1.2-3-1.2c-1.2,0-2.2,0.4-3,1.2c-0.8,0.8-1.2,1.9-1.2,3.1   C198,296.2,198.4,297.3,199.2,298.1z"></path>		<path class="st0" d="M216.8,302.3h-3.1v-21.5h3.1v9.1c0.9-1.5,2.3-2.2,4.4-2.2c1.7,0,3,0.5,4,1.6c1,1.1,1.5,2.5,1.5,4.4v8.6h-3.1   v-8.1c0-1.1-0.3-2-0.8-2.7c-0.5-0.6-1.3-1-2.2-1c-1.1,0-2,0.4-2.7,1.2c-0.7,0.8-1,2-1,3.5V302.3z"></path>		<path class="st0" d="M44,336.8c-1.5,0-2.6-0.4-3.5-1.2c-0.9-0.8-1.4-2-1.4-3.5v-6.9h-3v-2.8h3v-4h3.2v4h4.1v2.8h-4.1v6.4   c0,0.9,0.2,1.5,0.6,1.9s1,0.6,1.8,0.6c0.7,0,1.2-0.1,1.7-0.3v2.8C45.6,336.7,44.9,336.8,44,336.8z"></path>		<path class="st0" d="M52.5,336.7h-3.1v-21.5h3.1v9.1c0.9-1.5,2.3-2.2,4.4-2.2c1.7,0,3,0.5,4,1.6c1,1.1,1.5,2.5,1.5,4.4v8.6h-3.1   v-8.1c0-1.1-0.3-2-0.8-2.7c-0.5-0.6-1.3-1-2.2-1c-1.1,0-2,0.4-2.7,1.2c-0.7,0.8-1,2-1,3.5V336.7z"></path>		<path class="st0" d="M72.8,337c-2.2,0-4-0.7-5.4-2.1c-1.4-1.4-2.1-3.2-2.1-5.4c0-2.1,0.7-3.9,2.1-5.3c1.4-1.4,3.2-2.1,5.4-2.1   c2,0,3.6,0.6,4.9,1.9c1.3,1.3,2,3,2,5.2c0,0.4,0,0.7,0,1H68.4c0.1,1.2,0.5,2.1,1.3,2.8c0.8,0.7,1.8,1.1,3.1,1.1   c1.8,0,3.2-0.7,4.1-2.2l2.4,1.7C77.9,335.9,75.8,337,72.8,337z M68.5,327.9h8c-0.2-1-0.6-1.8-1.3-2.3c-0.7-0.6-1.6-0.8-2.5-0.8   c-1,0-1.9,0.3-2.6,0.8C69.2,326.1,68.8,326.9,68.5,327.9z"></path>		<path class="st0" d="M97.4,337c-1,0-1.9-0.2-2.7-0.6c-0.8-0.4-1.5-0.9-1.9-1.6v1.9h-3.1v-21.5h3.1v9.1c0.4-0.6,1.1-1.1,1.9-1.6   c0.8-0.4,1.7-0.6,2.7-0.6c1.9,0,3.6,0.7,4.9,2.2c1.3,1.5,2,3.2,2,5.3s-0.7,3.8-2,5.3C101,336.2,99.4,337,97.4,337z M96.8,334.1   c1.2,0,2.3-0.4,3.1-1.3c0.8-0.9,1.2-2,1.2-3.3s-0.4-2.4-1.2-3.3c-0.8-0.9-1.8-1.3-3.1-1.3c-1.3,0-2.3,0.4-3.1,1.3   c-0.8,0.9-1.2,2-1.2,3.3s0.4,2.4,1.2,3.3C94.5,333.7,95.6,334.1,96.8,334.1z"></path>		<path class="st0" d="M114,337c-2.2,0-4-0.7-5.4-2.1c-1.4-1.4-2.1-3.2-2.1-5.4c0-2.1,0.7-3.9,2.1-5.3c1.4-1.4,3.2-2.1,5.4-2.1   c2,0,3.6,0.6,4.9,1.9c1.3,1.3,2,3,2,5.2c0,0.4,0,0.7,0,1h-11.3c0.1,1.2,0.5,2.1,1.3,2.8c0.8,0.7,1.8,1.1,3.1,1.1   c1.8,0,3.2-0.7,4.1-2.2l2.4,1.7C119.1,335.9,117,337,114,337z M109.7,327.9h8c-0.2-1-0.6-1.8-1.3-2.3c-0.7-0.6-1.6-0.8-2.5-0.8   c-1,0-1.9,0.3-2.6,0.8C110.4,326.1,110,326.9,109.7,327.9z"></path>		<path class="st0" d="M128.7,337c-1.3,0-2.5-0.3-3.5-0.8c-1-0.5-1.8-1.3-2.3-2.3l2.3-1.7c0.3,0.6,0.7,1.1,1.4,1.4   c0.6,0.4,1.3,0.5,2.1,0.5c0.6,0,1.1-0.1,1.5-0.4c0.4-0.3,0.6-0.6,0.6-1.1c0-0.4-0.2-0.8-0.5-1c-0.3-0.3-0.9-0.5-1.7-0.8l-1.3-0.3   c-2.5-0.7-3.8-2.1-3.8-4.4c0-1.2,0.5-2.2,1.5-3s2.2-1.1,3.7-1.1c2.2,0,3.8,0.8,4.8,2.4l-2.2,1.7c-0.7-1-1.6-1.5-2.7-1.5   c-0.5,0-1,0.1-1.3,0.4c-0.4,0.2-0.6,0.6-0.6,1c0,0.4,0.1,0.7,0.4,1s0.7,0.5,1.3,0.7l1.5,0.4c1.3,0.4,2.3,0.9,3,1.6   c0.7,0.7,1,1.6,1,2.7c0,1.4-0.5,2.4-1.5,3.2C131.4,336.6,130.2,337,128.7,337z"></path>		<path class="st0" d="M143.1,336.8c-1.5,0-2.6-0.4-3.5-1.2c-0.9-0.8-1.4-2-1.4-3.5v-6.9h-3v-2.8h3v-4h3.2v4h4.1v2.8h-4.1v6.4   c0,0.9,0.2,1.5,0.6,1.9s1,0.6,1.8,0.6c0.7,0,1.2-0.1,1.7-0.3v2.8C144.8,336.7,144,336.8,143.1,336.8z"></path>		<path class="st0" d="M159.7,337c-1.3,0-2.5-0.3-3.5-0.8c-1-0.5-1.8-1.3-2.3-2.3l2.3-1.7c0.3,0.6,0.7,1.1,1.4,1.4   c0.6,0.4,1.3,0.5,2.1,0.5c0.6,0,1.1-0.1,1.5-0.4c0.4-0.3,0.6-0.6,0.6-1.1c0-0.4-0.2-0.8-0.5-1c-0.3-0.3-0.9-0.5-1.7-0.8l-1.3-0.3   c-2.5-0.7-3.8-2.1-3.8-4.4c0-1.2,0.5-2.2,1.5-3s2.2-1.1,3.7-1.1c2.2,0,3.8,0.8,4.8,2.4l-2.2,1.7c-0.7-1-1.6-1.5-2.7-1.5   c-0.5,0-1,0.1-1.3,0.4c-0.4,0.2-0.6,0.6-0.6,1c0,0.4,0.1,0.7,0.4,1s0.7,0.5,1.3,0.7l1.5,0.4c1.3,0.4,2.3,0.9,3,1.6   c0.7,0.7,1,1.6,1,2.7c0,1.4-0.5,2.4-1.5,3.2C162.5,336.6,161.2,337,159.7,337z"></path>		<path class="st0" d="M174.7,337c-2.2,0-4-0.7-5.4-2.1c-1.4-1.4-2.1-3.2-2.1-5.4c0-2.1,0.7-3.9,2.1-5.3c1.4-1.4,3.2-2.1,5.4-2.1   c2,0,3.6,0.6,4.9,1.9c1.3,1.3,2,3,2,5.2c0,0.4,0,0.7,0,1h-11.3c0.1,1.2,0.5,2.1,1.3,2.8c0.8,0.7,1.8,1.1,3.1,1.1   c1.8,0,3.2-0.7,4.1-2.2l2.4,1.7C179.8,335.9,177.6,337,174.7,337z M170.4,327.9h8c-0.2-1-0.6-1.8-1.3-2.3   c-0.7-0.6-1.6-0.8-2.5-0.8c-1,0-1.9,0.3-2.6,0.8C171.1,326.1,170.6,326.9,170.4,327.9z"></path>		<path class="st0" d="M190.8,336.8c-1.5,0-2.6-0.4-3.5-1.2c-0.9-0.8-1.4-2-1.4-3.5v-6.9h-3v-2.8h3v-4h3.2v4h4.1v2.8H189v6.4   c0,0.9,0.2,1.5,0.6,1.9s1,0.6,1.8,0.6c0.7,0,1.2-0.1,1.7-0.3v2.8C192.4,336.7,191.7,336.8,190.8,336.8z"></path>		<path class="st0" d="M201.2,337c-1.6,0-2.9-0.5-3.9-1.6c-1-1.1-1.4-2.6-1.4-4.4v-8.6h3.2v8c0,1.1,0.2,2,0.7,2.7   c0.5,0.7,1.2,1,2.1,1c1.1,0,1.9-0.4,2.5-1.2s0.9-2,0.9-3.5v-7h3.1v14.3h-3.1v-1.9C204.6,336.2,203.2,337,201.2,337z"></path>		<path class="st0" d="M215.9,342.7h-3.1v-20.3h3.1v1.9c0.4-0.6,1.1-1.1,1.9-1.6c0.8-0.4,1.7-0.6,2.7-0.6c1.9,0,3.6,0.7,4.9,2.2   c1.3,1.5,2,3.2,2,5.3s-0.7,3.8-2,5.3c-1.3,1.5-3,2.2-4.9,2.2c-1,0-1.9-0.2-2.7-0.6c-0.8-0.4-1.5-0.9-1.9-1.6V342.7z M220,334.1   c1.2,0,2.3-0.4,3.1-1.3c0.8-0.9,1.2-2,1.2-3.3s-0.4-2.4-1.2-3.3c-0.8-0.9-1.8-1.3-3.1-1.3c-1.3,0-2.3,0.4-3.1,1.3   c-0.8,0.9-1.2,2-1.2,3.3s0.4,2.4,1.2,3.3C217.7,333.7,218.7,334.1,220,334.1z"></path>	</g></g></svg>