<svg xmlns="http://www.w3.org/2000/svg" xmlns:xlink="http://www.w3.org/1999/xlink" id="Layer_1" data-name="Layer 1" width="1059.07" height="151.66" viewBox="0 0 1059.07 151.66"><defs><style>      .cls-1 {        fill: #323232;      }      .cls-2 {        fill: url(#linear-gradient);      }    </style><linearGradient id="linear-gradient" x1="0" y1="1844.19" x2="143.58" y2="1844.19" gradientTransform="translate(0 1916.01) scale(1 -1)" gradientUnits="userSpaceOnUse"><stop offset="0" stop-color="#f60"></stop><stop offset="1" stop-color="#ff00a6"></stop></linearGradient></defs><path id="SVGID" class="cls-2" d="M121.1,76.55c2.51,0,4.54,2.03,4.54,4.54s-2.03,4.54-4.54,4.54-4.54-2.03-4.54-4.54c-.01-2.51,2.03-4.54,4.54-4.54m-1.09,67.09c1.96-.01,7.32-.02,8.34-.03,8.08-.1,15.23-6.61,15.23-14.69V14.68c0-8.08-8.41-14.68-16.48-14.68h-5.79l-54.87,.03c-3.61,0-6.55,2.95-6.55,6.55V76.55c0,4.02,1.26,7.45,3.34,10.25,2.4,3.24,5.91,5.7,9.85,7.31l40.91,12.23c3.37,1.38,6.38,3.37,8.49,5.99,1.97,2.45,3.16,5.41,3.16,8.89v13.31c0,2.85,.12,7.57-5.63,9.11Zm-105.33-.03c25.62,0,75.45,.01,98.66,.01,3.93-1.31,6.24-5.01,6.24-9.09v-13.31c0-1.94-.62-3.6-1.82-5.1-1.47-1.84-3.67-3.17-5.82-4.08l-40.89-12.22-.25-.1c-4.84-1.98-9.28-5.08-12.42-9.31-3.01-4.06-4.53-8.81-4.53-13.86V17.98l-39.16,.02C6.62,18,0,24.61,0,32.68v96.24c0,8.08,6.6,14.69,14.68,14.69Z"></path><path class="cls-1" d="M277.19,125.54h18.05V17.98h-18.05V125.54Zm48.44-48.56c0-13.83,2.31-19.98,14.66-19.98,6.65,0,11.23,2.3,13.28,7.59,1.54,3.97,1.19,8.23,1.19,12.39h-29.13Zm45.2,48.56v-13.83h-27.62c-13.88,0-17.59-8.6-17.59-20.9h47.74v-12.85c.06-.81,.09-1.65,.09-2.52,0-26.12-11.57-32.27-33.17-32.27-26.23,0-33.32,9.22-33.32,41.49,0,26.12,6.17,40.87,30.85,40.87h33.02Zm37.03-67.6h7.56c17.43,0,17.74,11.37,17.74,26.74s-.31,27.04-17.74,27.04h-12.19V57.93h4.63Zm-22.68,93.73h18.05v-26.12h16.66c26.23,0,31.94-16.29,31.94-40.87s-5.71-40.57-31.94-40.57h-34.71c0,35.85,0,71.71,0,107.56Zm78.37-26.12h18.05V57.93h10.34c12.34,0,17.12,6.46,17.12,18.75v48.86h18.05v-53.63c0-21.51-13.27-27.81-31.78-27.81h-13.73V17.98h-18.05V125.54Zm120.33-36.88v23.05h-17.75c-6.17,0-8.64-3.84-8.64-11.52s2.47-11.52,8.64-11.52h17.75Zm-39.03-44.57v13.83h27.61c7.71,0,11.42,4,11.42,11.68v5.22h-24.68c-13.88,0-20.36,9.99-20.36,25.35,0,16.9,6.48,25.35,20.36,25.35h28.85c.41,0,.82-.01,1.21-.03h12.68v-57.44c0-13.83-7.56-23.97-22.99-23.97h-34.1Zm71.28,81.45h18.05V57.99c1.61,0,12.45-.15,12.45,0,10.78,.72,15.01,7.12,15.01,18.68v48.86h18.05v-53.63c0-21.51-13.27-27.81-31.78-27.81h-31.78V125.54Zm115.39,0v-13.83h-1.23c-12.34,0-15.74-4.15-15.74-16.44V57.93h16.97v-13.83h-16.97V17.98h-18.05v26.12h-9.72v13.83h9.72v41.03c0,19.97,8.48,26.58,27,26.58h8.02Zm58.18-91.34c21.71,1.31,22.56,16.97,22.56,37.56s-.85,36.25-22.56,37.56c0,.17-18.96,.09-20.79,.09V34.21c1.73,0,20.79,0,20.79,0Zm4.72,91.34c33.94,0,36.72-27.66,36.72-53.78s-2.78-53.78-39.49-53.78h-40.78V125.54h43.55Zm48.66,0h18.05v-45.95c0-14.44,3.55-21.67,18.05-21.67h2.93v-13.83h-7.56c-21.91,0-31.47,8.91-31.47,30.73v50.72h0Zm65.13-92.2V16.74h-18.05v16.6h18.05Zm-18.05,92.2h18.05V44.1h-18.05V125.54Zm43.01-81.44h-18.67l23.45,73.6c2.31,7.38,8.02,8.76,14.19,8.76s11.72-1.38,14.04-8.76l23.45-73.6h-18.67l-16.66,60.39c-.62,2.15-1.23,3.23-2.16,3.23s-1.54-1.23-2.16-3.23l-16.81-60.39Zm78.07,32.88c0-13.83,2.31-19.98,14.66-19.98,6.65,0,11.23,2.3,13.28,7.59,1.54,3.97,1.19,8.23,1.19,12.39h-29.13Zm45.2,48.56v-13.83h-27.61c-13.88,0-17.59-8.6-17.59-20.9h47.74v-12.85c.06-.81,.09-1.65,.09-2.52,0-26.12-11.57-32.27-33.17-32.27-26.23,0-33.32,9.22-33.32,41.49,0,26.12,6.17,40.87,30.85,40.87h33.01Zm-790.97-16.13h-42.27c-6.17,0-7.71-1.54-7.71-7.68v-23.05h47.83v-16.14h-47.84v-28.43h49.37V17.96h-67.42V109.39c0,12.29,4.16,16.14,13.42,16.14h54.62v-16.13Z"></path></svg>